<?xml version="1.0" encoding="utf-8"?>
<!-- Generator: Adobe Illustrator 26.2.1, SVG Export Plug-In . SVG Version: 6.00 Build 0)  -->
<svg version="1.1" id="Capa_1" xmlns="http://www.w3.org/2000/svg" xmlns:xlink="http://www.w3.org/1999/xlink" x="0px" y="0px"
	 viewBox="0 0 200 200" style="enable-background:new 0 0 200 200;" xml:space="preserve">
<style type="text/css">
	.st0{clip-path:url(#SVGID_00000080186488224777522650000006126387848964930952_);}
	.st1{fill:url(#SVGID_00000155838970737474810200000010706476873891443124_);}
	.st2{fill:url(#SVGID_00000067237046126205201250000007975643716679945621_);}
	.st3{fill:url(#SVGID_00000149368052279369378590000010979529766588017033_);}
	.st4{fill:url(#SVGID_00000145747459792478396400000014692581431024971945_);}
	.st5{fill:url(#SVGID_00000067232889610717718460000017283399745875011245_);}
	.st6{fill:url(#SVGID_00000081649681608254498260000000662902463540092036_);}
	.st7{fill:url(#SVGID_00000022528347560433608460000015791948124621597846_);}
	.st8{fill:url(#SVGID_00000013900453253526151000000012854996156563687099_);}
	.st9{fill:url(#SVGID_00000082352932779350346810000013530380634976580266_);}
	.st10{fill:url(#SVGID_00000027565320077155280170000006548748654881384350_);}
	.st11{fill:url(#SVGID_00000182523386634995436360000006926752343331458972_);}
	.st12{fill:url(#SVGID_00000130622300370134468010000013123832640560440987_);}
	.st13{fill:url(#SVGID_00000036219603969496307320000014694211517017210281_);}
	.st14{fill:url(#SVGID_00000122694241377752498980000008386922959965736893_);}
	.st15{fill:url(#SVGID_00000014600754394561883050000015170569721407509943_);}
	.st16{fill:url(#SVGID_00000053511795021538978440000011663393267739739029_);}
	.st17{fill:url(#SVGID_00000054975022860487279470000001163872490506527618_);}
	.st18{fill:url(#SVGID_00000167372262664111556420000013302530294073511610_);}
	.st19{fill:url(#SVGID_00000153701865405954007940000003179601478130350518_);}
	.st20{fill:url(#SVGID_00000037660157641275872140000002099285397321173433_);}
	.st21{fill:url(#SVGID_00000044174955152745390160000009965800123731743368_);}
	.st22{fill:url(#SVGID_00000085950356203253430030000009993137094592939410_);}
	.st23{fill:url(#SVGID_00000048478055007118151880000011178747795080596925_);}
	.st24{fill:url(#SVGID_00000045585247377716352630000015993514690433665173_);}
	.st25{fill:url(#SVGID_00000071523101871359649160000009375104912667383480_);}
	.st26{fill:#606060;}
	.st27{clip-path:url(#SVGID_00000173136325125065073720000001134898310856396169_);}
	.st28{fill:url(#SVGID_00000016796416435319964300000003100115657097165240_);}
	.st29{fill:url(#SVGID_00000154424437593036950670000000809923384448787853_);}
	.st30{fill:url(#SVGID_00000181769283483800810980000014965872534661642678_);}
	.st31{fill:url(#SVGID_00000153680690972749177870000004521109576750215861_);}
	.st32{fill:url(#SVGID_00000152238005865636678200000006843872761282317964_);}
	.st33{fill:url(#SVGID_00000013907775478044551640000002997140633561552303_);}
	.st34{fill:url(#SVGID_00000172415695817113487220000009954944215712951450_);}
	.st35{fill:url(#SVGID_00000041273063230030539370000017358072006924561289_);}
	.st36{fill:url(#SVGID_00000093886263570580752540000012400622095938442907_);}
	.st37{fill:url(#SVGID_00000024703382518935351820000008050910611201846410_);}
	.st38{fill:url(#SVGID_00000055693530604059681500000014304118360111577758_);}
	.st39{fill:url(#SVGID_00000119800030835023766390000010208099894211529662_);}
	.st40{fill:url(#SVGID_00000060017840200710230190000009280583272433362325_);}
	.st41{fill:url(#SVGID_00000178197511141492535310000008657022227738353068_);}
	.st42{fill:url(#SVGID_00000114776573738092197440000002524423413179465903_);}
	.st43{fill:url(#SVGID_00000163048712219458557010000008353340703016964241_);}
	.st44{fill:url(#SVGID_00000017502931017624721880000003902530208050905224_);}
	.st45{fill:url(#SVGID_00000045594366830080677810000003948335989438699423_);}
	.st46{fill:url(#SVGID_00000124878705733278159680000000710523399779220886_);}
	.st47{fill:url(#SVGID_00000055667510056962422840000018305660822854017191_);}
	.st48{fill:url(#SVGID_00000035517088699372734660000010771604029603036577_);}
	.st49{fill:url(#SVGID_00000170991501084594086930000015541810230528102834_);}
	.st50{fill:url(#SVGID_00000022543123723254474090000008409761926040618942_);}
	.st51{fill:url(#SVGID_00000028306572897823886540000015624642220175257013_);}
	.st52{fill:url(#SVGID_00000016775996636926528380000006062670421727335851_);}
	.st53{fill:#FFFFFF;}
	.st54{fill:#ECB154;}
	.st55{fill:#ECB340;}
	.st56{fill:#EAC843;}
	.st57{fill:#ECB340;stroke:#ECB340;stroke-width:2;stroke-miterlimit:10;}
</style>
<g>
	<path class="st55" d="M137.55,143.37H36.69c-1.25,0-2.39-0.75-2.89-1.9c-2.14-4.93-5.98-8.97-10.82-11.38
		c-1.07-0.53-1.75-1.62-1.75-2.82V97.08c0-1.19,0.68-2.29,1.74-2.82c4.84-2.41,8.69-6.46,10.82-11.38c0.5-1.15,1.63-1.9,2.89-1.9
		h100.86c1.25,0,2.39,0.75,2.89,1.9c2.14,4.93,5.98,8.97,10.82,11.38c1.07,0.53,1.74,1.62,1.74,2.82v30.19
		c0,1.19-0.68,2.29-1.75,2.82c-4.84,2.41-8.68,6.45-10.82,11.38C139.94,142.62,138.8,143.37,137.55,143.37z M38.67,137.07h96.89
		c2.53-4.84,6.4-8.9,11.14-11.67V98.96c-4.74-2.78-8.61-6.83-11.14-11.67H38.67c-2.53,4.84-6.4,8.9-11.14,11.67v26.44
		C32.27,128.17,36.14,132.23,38.67,137.07z"/>
	<path class="st55" d="M94.61,131.07H79.63c-3.01,0-5.45-2.45-5.45-5.45v-3.65c0-1.74,1.41-3.15,3.15-3.15s3.15,1.41,3.15,3.15v2.8
		h13.29v-9.45H79.63c-3.01,0-5.45-2.45-5.45-5.45V98.73c0-3.01,2.45-5.45,5.45-5.45h14.98c3.01,0,5.45,2.45,5.45,5.45v3.65
		c0,1.74-1.41,3.15-3.15,3.15s-3.15-1.41-3.15-3.15v-2.81H80.47v9.45h14.14c3.01,0,5.45,2.45,5.45,5.45v11.14
		C100.07,128.63,97.62,131.07,94.61,131.07z"/>
	<path class="st55" d="M87.12,134.29c-1.74,0-3.15-1.41-3.15-3.15V93.21c0-1.74,1.41-3.15,3.15-3.15c1.74,0,3.15,1.41,3.15,3.15
		v37.94C90.27,132.88,88.86,134.29,87.12,134.29z"/>
	<path class="st55" d="M112.22,133c-0.27,0-0.54-0.03-0.81-0.11c-1.68-0.45-2.68-2.17-2.24-3.85c1.42-5.34,2.14-11.01,2.14-16.87
		c0-5.86-0.72-11.53-2.14-16.87c-0.45-1.68,0.55-3.4,2.24-3.85c1.68-0.45,3.41,0.55,3.85,2.24c1.56,5.86,2.35,12.08,2.35,18.48
		c0,6.4-0.79,12.62-2.35,18.48C114.89,132.07,113.61,133,112.22,133z"/>
	<path class="st55" d="M124.82,133c-0.27,0-0.54-0.03-0.81-0.11c-1.68-0.45-2.68-2.17-2.24-3.85c1.42-5.34,2.14-11.01,2.14-16.87
		c0-5.86-0.72-11.53-2.14-16.87c-0.45-1.68,0.55-3.4,2.24-3.85c1.67-0.45,3.4,0.55,3.85,2.24c1.56,5.86,2.35,12.08,2.35,18.48
		c0,6.4-0.79,12.62-2.35,18.48C127.48,132.07,126.21,133,124.82,133z"/>
	<path class="st55" d="M62.02,133c-1.39,0-2.67-0.93-3.04-2.34c-1.56-5.86-2.35-12.08-2.35-18.48c0-6.4,0.79-12.62,2.35-18.48
		c0.45-1.68,2.18-2.68,3.85-2.24c1.68,0.45,2.68,2.17,2.24,3.85c-1.42,5.33-2.14,11.01-2.14,16.87c0,5.86,0.72,11.53,2.14,16.87
		c0.45,1.68-0.55,3.4-2.24,3.85C62.56,132.97,62.29,133,62.02,133z"/>
	<path class="st55" d="M49.42,133c-1.39,0-2.67-0.93-3.04-2.34c-1.56-5.86-2.35-12.08-2.35-18.48c0-6.4,0.79-12.62,2.35-18.48
		c0.45-1.68,2.18-2.68,3.85-2.24c1.68,0.45,2.68,2.17,2.24,3.85c-1.42,5.33-2.14,11.01-2.14,16.87c0,5.86,0.72,11.53,2.14,16.87
		c0.45,1.68-0.55,3.4-2.24,3.85C49.96,132.97,49.69,133,49.42,133z"/>
	<path class="st55" d="M189.06,129.36c-1.74,0-3.15-1.41-3.15-3.15V52.58H40.42c-1.74,0-3.15-1.41-3.15-3.15s1.41-3.15,3.15-3.15
		h148.64c1.74,0,3.15,1.41,3.15,3.15v76.78C192.21,127.95,190.8,129.36,189.06,129.36z"/>
	<path class="st55" d="M161.44,153.71H12.8c-1.74,0-3.15-1.41-3.15-3.15V73.79c0-1.74,1.41-3.15,3.15-3.15h148.64
		c1.74,0,3.15,1.41,3.15,3.15v76.78C164.59,152.3,163.18,153.71,161.44,153.71z M15.95,147.42h142.34V76.94H15.95V147.42z"/>
	<path class="st55" d="M175.25,141.54c-1.74,0-3.15-1.41-3.15-3.15V64.76H26.61c-1.74,0-3.15-1.41-3.15-3.15
		c0-1.74,1.41-3.15,3.15-3.15h148.64c1.74,0,3.15,1.41,3.15,3.15v76.78C178.4,140.13,176.99,141.54,175.25,141.54z"/>
</g>
</svg>
