<?xml version="1.0" encoding="utf-8"?>
<!-- Generator: Adobe Illustrator 26.2.1, SVG Export Plug-In . SVG Version: 6.00 Build 0)  -->
<svg version="1.1" id="Capa_1" xmlns="http://www.w3.org/2000/svg" xmlns:xlink="http://www.w3.org/1999/xlink" x="0px" y="0px"
	 viewBox="0 0 200 200" style="enable-background:new 0 0 200 200;" xml:space="preserve">
<style type="text/css">
	.st0{clip-path:url(#SVGID_00000105428939266950371250000017144961376770400135_);}
	.st1{fill:url(#SVGID_00000032624562959179201470000003107778662095980466_);}
	.st2{fill:url(#SVGID_00000131344996854485971070000011769905344756042126_);}
	.st3{fill:url(#SVGID_00000073718254057954893380000003844319104582712214_);}
	.st4{fill:url(#SVGID_00000179615490422214425790000012503654887700554378_);}
	.st5{fill:url(#SVGID_00000020380130260953115060000000267783702353655963_);}
	.st6{fill:url(#SVGID_00000108266579408111662470000016430428706826907794_);}
	.st7{fill:url(#SVGID_00000085951437528272083470000010247924337239067535_);}
	.st8{fill:url(#SVGID_00000039817390688068428140000014094465604574766223_);}
	.st9{fill:url(#SVGID_00000152246569104095917650000000198806641786791848_);}
	.st10{fill:url(#SVGID_00000178907341962841012140000000659266886975658669_);}
	.st11{fill:url(#SVGID_00000163779386994546117770000017741956011138927292_);}
	.st12{fill:url(#SVGID_00000023244401556096236710000003195429405082828214_);}
	.st13{fill:url(#SVGID_00000030474696987832411160000003542613375283885982_);}
	.st14{fill:url(#SVGID_00000156580605334123072410000015844886064550361505_);}
	.st15{fill:url(#SVGID_00000042721727876076557420000009576730145524055177_);}
	.st16{fill:url(#SVGID_00000170976512163495831980000009333002263764798639_);}
	.st17{fill:url(#SVGID_00000049903389388361293950000012093589242884469404_);}
	.st18{fill:url(#SVGID_00000124141182015072681660000016319392997178849712_);}
	.st19{fill:url(#SVGID_00000145763384431067071360000016830312995607076287_);}
	.st20{fill:url(#SVGID_00000126319890584087730730000012139673773578446266_);}
	.st21{fill:url(#SVGID_00000064335880408864533000000014943812779059041444_);}
	.st22{fill:url(#SVGID_00000001653350901684882790000006190069164361820824_);}
	.st23{fill:url(#SVGID_00000008128050918853930390000005422073882331557773_);}
	.st24{fill:url(#SVGID_00000026146150192408983060000005088002001111681450_);}
	.st25{fill:url(#SVGID_00000143579306513428572330000009110308195431050653_);}
	.st26{fill:#606060;}
	.st27{clip-path:url(#SVGID_00000147213864473925726860000016751593544633263749_);}
	.st28{fill:url(#SVGID_00000045603563013505491530000002506801789300654524_);}
	.st29{fill:url(#SVGID_00000047766087343056066000000012823917117992659854_);}
	.st30{fill:url(#SVGID_00000065068469398343975540000006887935786515071929_);}
	.st31{fill:url(#SVGID_00000072983785036292087340000017348869076264616598_);}
	.st32{fill:url(#SVGID_00000024717185945163087350000005357035749057379984_);}
	.st33{fill:url(#SVGID_00000048478800631023771660000014625531110167968411_);}
	.st34{fill:url(#SVGID_00000109734320571692917040000014802938041674463660_);}
	.st35{fill:url(#SVGID_00000169552529668402417160000011350319742466349994_);}
	.st36{fill:url(#SVGID_00000059278579054805010750000007750714428998710174_);}
	.st37{fill:url(#SVGID_00000120540422163663321460000012018243560728698814_);}
	.st38{fill:url(#SVGID_00000041262292124445154510000017350635838204484028_);}
	.st39{fill:url(#SVGID_00000005247228460637147600000011599277670580656263_);}
	.st40{fill:url(#SVGID_00000065767676034486813220000018105982422071298741_);}
	.st41{fill:url(#SVGID_00000150064509394031548680000008515899260575383453_);}
	.st42{fill:url(#SVGID_00000085942142517938117220000000010156562658977176_);}
	.st43{fill:url(#SVGID_00000101096445200168983510000014711976597759249581_);}
	.st44{fill:url(#SVGID_00000047752650246779796930000006538442301719463564_);}
	.st45{fill:url(#SVGID_00000093855593567088940240000009918559798603165868_);}
	.st46{fill:url(#SVGID_00000127735839289153818420000007583973994507693748_);}
	.st47{fill:url(#SVGID_00000086690892206339312220000010520054214612459708_);}
	.st48{fill:url(#SVGID_00000062892726122657071440000010808179111332274583_);}
	.st49{fill:url(#SVGID_00000108270759013688756290000007030492325977775773_);}
	.st50{fill:url(#SVGID_00000110429236254262936500000008239133863696442805_);}
	.st51{fill:url(#SVGID_00000005253721413386188010000009272385869724554403_);}
	.st52{fill:url(#SVGID_00000010273507268971842990000011395057073156158652_);}
	.st53{fill:#FFFFFF;}
	.st54{fill:#ECB154;}
	.st55{fill:#ECB340;}
	.st56{fill:#EAC843;}
	.st57{fill:#ECB340;stroke:#ECB340;stroke-width:2;stroke-miterlimit:10;}
</style>
<g>
	<path class="st55" d="M127.36,169.63c-1.95,0-3.91-0.21-5.83-0.65l-66.77-15.13c-1.49-0.34-2.55-1.66-2.55-3.19v-56.1
		c0-1.67,1.25-3.07,2.91-3.25l10.66-1.19c6.87-0.77,13.76,0.49,19.92,3.63l54.66,27.83c0.72,0.37,1.39,0.79,2.01,1.26l25.36-15.17
		c6.43-3.71,14.47-1.96,18.75,4.05c4.37,6.14,3.19,14.64-2.7,19.35l-39.4,32.47C139.6,167.51,133.52,169.63,127.36,169.63z
		 M58.75,148.05l64.22,14.55c6.04,1.37,12.5-0.17,17.27-4.1l39.43-32.5c3.21-2.57,3.85-7.17,1.49-10.49
		c-2.31-3.24-6.66-4.19-10.1-2.2l-24.63,14.73c0.2,0.47,0.37,0.95,0.52,1.44c1.03,3.46,0.61,7.09-1.19,10.21
		c-3.02,5.27-9.2,7.73-15.02,6l-34.38-10.23c-1.73-0.52-2.72-2.34-2.2-4.07c0.52-1.73,2.34-2.72,4.07-2.2l34.38,10.22
		c2.9,0.86,5.98-0.37,7.48-2.99c0.9-1.56,1.11-3.36,0.59-5.09c-0.25-0.82-0.64-1.57-1.16-2.22c-0.06-0.07-0.12-0.14-0.18-0.21
		c-0.54-0.61-1.19-1.12-1.95-1.51L82.74,99.59c-5.02-2.56-10.63-3.57-16.23-2.96l-7.76,0.86V148.05z"/>
	<path class="st55" d="M48.35,162.58H28.41c-4.64,0-8.41-4.95-8.41-11.05v-59.3c0-6.09,3.77-11.05,8.41-11.05h19.94
		c4.64,0,8.41,4.95,8.41,11.05v59.3C56.75,157.63,52.98,162.58,48.35,162.58z M28.41,87.74c-1.89,0-3.43,2.02-3.43,4.5v59.3
		c0,2.48,1.54,4.5,3.43,4.5h19.94c1.89,0,3.43-2.02,3.43-4.5v-59.3c0-2.48-1.54-4.5-3.43-4.5H28.41z"/>
	<path class="st55" d="M79.9,147.7c-0.25,0-0.51-0.03-0.77-0.09l-24.42-5.91c-1.76-0.42-2.83-2.19-2.41-3.95
		c0.43-1.76,2.19-2.84,3.95-2.41l24.42,5.91c1.76,0.42,2.83,2.19,2.41,3.95C82.72,146.7,81.38,147.7,79.9,147.7z"/>
</g>
<g>
	<g>
		<path class="st55" d="M137.72,98.87c-15.26,0-27.67-12.41-27.67-27.67c0-14.35,22.62-38.44,25.2-41.14
			c0.64-0.67,1.54-1.06,2.47-1.06l0,0c0.93,0,1.83,0.38,2.47,1.06c2.58,2.7,25.2,26.79,25.2,41.14
			C165.39,86.45,152.98,98.87,137.72,98.87z M137.72,37.45c-7.5,8.34-20.84,24.97-20.84,33.74c0,11.49,9.35,20.83,20.84,20.83
			c11.49,0,20.83-9.35,20.83-20.83C158.56,62.41,145.22,45.78,137.72,37.45z"/>
	</g>
	<g>
		<path class="st55" d="M137.72,98.87c-1.89,0-3.42-1.53-3.42-3.42v-40.2c0-1.89,1.53-3.42,3.42-3.42c1.89,0,3.42,1.53,3.42,3.42
			v40.2C141.14,97.34,139.61,98.87,137.72,98.87z"/>
	</g>
	<g>
		<path class="st55" d="M137.59,83.68c-0.88,0-1.75-0.33-2.42-1l-10.15-10.15c-1.34-1.33-1.34-3.5,0-4.83c1.34-1.34,3.5-1.34,4.83,0
			l10.15,10.15c1.34,1.33,1.34,3.5,0,4.83C139.34,83.35,138.47,83.68,137.59,83.68z"/>
	</g>
</g>
</svg>
