<?xml version="1.0" encoding="utf-8"?>
<!-- Generator: Adobe Illustrator 26.2.1, SVG Export Plug-In . SVG Version: 6.00 Build 0)  -->
<svg version="1.1" id="Capa_1" xmlns="http://www.w3.org/2000/svg" xmlns:xlink="http://www.w3.org/1999/xlink" x="0px" y="0px"
	 viewBox="0 0 200 200" style="enable-background:new 0 0 200 200;" xml:space="preserve">
<style type="text/css">
	.st0{fill:url(#SVGID_1_);}
	.st1{fill:#F8F9F9;}
	.st2{filter:url(#Adobe_OpacityMaskFilter);}
	.st3{fill:url(#SVGID_00000059275780839970449500000007294290785130739342_);}
	.st4{opacity:0.14;mask:url(#SVGID_00000026136385992712277030000008195364844313422990_);}
	.st5{fill:url(#SVGID_00000036949869117532383220000013923138077981637806_);}
	.st6{fill:url(#SVGID_00000058560276731452868260000002893187411280362911_);}
	.st7{fill:url(#SVGID_00000135691185041803800390000009681499322866299294_);}
	.st8{fill:url(#SVGID_00000031177271854709263580000018176283433008426384_);}
	.st9{fill:url(#SVGID_00000147218606567018745390000017014438339610007184_);}
	.st10{fill:url(#SVGID_00000043429506546842165880000012496936768068082353_);}
	.st11{fill:url(#SVGID_00000008840546299770244410000011938737956227405497_);}
	.st12{fill:url(#SVGID_00000116932845372392239860000012006863006315158945_);}
	.st13{fill:url(#SVGID_00000180359296689666832080000009656279646186290094_);}
	.st14{fill:url(#SVGID_00000029738041979628256750000008412746208449422517_);}
	.st15{fill:url(#SVGID_00000124154156929866251260000000579607150611028146_);}
	.st16{fill:url(#SVGID_00000156566543206082131850000015464034592176780949_);}
	.st17{fill:url(#SVGID_00000115492474420766585440000010449133506601022870_);}
	.st18{fill:url(#SVGID_00000143613653254394411440000008233363971736179859_);}
	.st19{fill:url(#SVGID_00000040546213928040150540000001024716077166244245_);}
	.st20{fill:url(#SVGID_00000113328268233755662950000018334766319674511749_);}
	.st21{fill:url(#SVGID_00000156554293965898809570000001797784590158222743_);}
	.st22{fill:url(#SVGID_00000110467347456572657920000006647807145676788621_);}
	.st23{fill:url(#SVGID_00000051352901450915008980000010186479794461357209_);}
	.st24{fill:url(#SVGID_00000179641311496679099830000017608344229644446868_);}
	.st25{fill:#ECB340;}
	.st26{clip-path:url(#SVGID_00000124862015375328417790000004803411821451362444_);}
	
		.st27{opacity:0.62;clip-path:url(#SVGID_00000124862015375328417790000004803411821451362444_);fill:url(#SVGID_00000028284793208254281030000015374787014573589155_);}
	.st28{fill:url(#SVGID_00000025407724810284625190000010237711506430569346_);}
	.st29{clip-path:url(#SVGID_00000054977498083491896900000003716757847631291558_);}
	
		.st30{opacity:0.62;clip-path:url(#SVGID_00000054977498083491896900000003716757847631291558_);fill:url(#SVGID_00000017497796800953520060000002503864877468039610_);}
	.st31{fill:url(#SVGID_00000033331125685122765300000010024907499059402425_);}
	.st32{opacity:0.43;}
	.st33{clip-path:url(#SVGID_00000080915940116456672180000012776180411221230724_);}
	.st34{fill:url(#SVGID_00000147206829592432011340000014804851255128318598_);}
	.st35{fill:url(#SVGID_00000075861061342076375930000015222157169101423784_);}
	.st36{fill:url(#SVGID_00000143601464230381309170000007953503770291594128_);}
	.st37{fill:url(#SVGID_00000153686552050782965710000009515628735796345753_);}
	.st38{fill:url(#SVGID_00000164486452220898616120000002700277377881155990_);}
	.st39{fill:url(#SVGID_00000173846328565996068980000013214593386914139325_);}
	.st40{fill:url(#SVGID_00000160151950098832812190000006195580145278192314_);}
	.st41{fill:url(#SVGID_00000069375513469523391880000010768253756448414599_);}
	.st42{fill:url(#SVGID_00000026880234472608286630000004582104321431590531_);}
	.st43{fill:url(#SVGID_00000057119190716462318050000008857220269830874510_);}
	.st44{fill:url(#SVGID_00000051342441827661092460000011470088406908919192_);}
	.st45{fill:url(#SVGID_00000072265720238120860380000013410178733947116181_);}
	.st46{fill:url(#SVGID_00000031201215295548023520000005477960783798557584_);}
	.st47{fill:url(#SVGID_00000102520005151364120290000005570509146554892689_);}
	.st48{fill:url(#SVGID_00000121267105036503249590000005668659007646483865_);}
	.st49{fill:url(#SVGID_00000091014335611068270810000000978038849700613782_);}
	.st50{fill:url(#SVGID_00000070078945047750050210000006536845162708801214_);}
	.st51{fill:url(#SVGID_00000035515464130324903030000012208114498210595724_);}
	.st52{fill:url(#SVGID_00000144336179304440627110000017966211910246771869_);}
	.st53{fill:url(#SVGID_00000044887375404505676330000012707879810302619034_);}
	.st54{fill:url(#SVGID_00000093857607852379375660000000428486618829205164_);}
	.st55{fill:url(#SVGID_00000019667150622372737990000001025712620625574294_);}
	.st56{fill:url(#SVGID_00000036968937660206410980000000338198819220632217_);}
	.st57{fill:url(#SVGID_00000143616926444348829240000011897096374960880800_);}
	.st58{fill:url(#SVGID_00000011022801236982054090000006665344301968025768_);}
	.st59{fill:#606060;}
	.st60{clip-path:url(#SVGID_00000078752791053849999820000008862866017230616247_);}
	.st61{fill:url(#SVGID_00000103222963754412888990000000300889563629044375_);}
	.st62{fill:url(#SVGID_00000045608706081151661690000002274759650440857765_);}
	.st63{fill:url(#SVGID_00000016074989480369892320000008801321900109582742_);}
	.st64{fill:url(#SVGID_00000008118642279108728930000015578263550496357303_);}
	.st65{fill:url(#SVGID_00000068676896451209213970000014802620896436974772_);}
	.st66{fill:url(#SVGID_00000121995395878415992590000005810865881350256571_);}
	.st67{fill:url(#SVGID_00000109011487960110687690000007997750112964277925_);}
	.st68{fill:url(#SVGID_00000013157553119051822700000015849477223654586554_);}
	.st69{fill:url(#SVGID_00000177483346014979882470000002836062027549506494_);}
	.st70{fill:url(#SVGID_00000040567492716932431020000009598344546984522896_);}
	.st71{fill:url(#SVGID_00000128444271547707106630000007271235180355862199_);}
	.st72{fill:url(#SVGID_00000060716056900011611110000006076372065536729753_);}
	.st73{fill:url(#SVGID_00000175294680163175075690000010265978013776375730_);}
	.st74{fill:url(#SVGID_00000111190624893027112900000007363017521223590040_);}
	.st75{fill:url(#SVGID_00000037657585955826089230000007478399729138902184_);}
	.st76{fill:url(#SVGID_00000179625127411200663510000016390036977477633710_);}
	.st77{fill:url(#SVGID_00000030489348097570508450000000668609979213813943_);}
	.st78{fill:url(#SVGID_00000150783801537892950440000014537380893387412632_);}
	.st79{fill:url(#SVGID_00000169558983281511241590000014806426061172813973_);}
	.st80{fill:url(#SVGID_00000103261972064481169380000018294462246003340700_);}
	.st81{fill:url(#SVGID_00000136372041054232336670000005721434833505819016_);}
	.st82{fill:url(#SVGID_00000127745809475408862940000002380244565146430632_);}
	.st83{fill:url(#SVGID_00000156563797956436001150000018353435268932838065_);}
	.st84{fill:url(#SVGID_00000047053484639748466420000003622893798563905941_);}
	.st85{fill:url(#SVGID_00000045620093301114429620000013230963352894140082_);}
	.st86{fill:#FFFFFF;}
	.st87{clip-path:url(#SVGID_00000147929619731918914130000017511169449973582214_);}
	.st88{fill:url(#SVGID_00000080906600594183789630000014651598323793341596_);}
	.st89{fill:url(#SVGID_00000165929755949349642570000016823827241255223995_);}
	.st90{fill:url(#SVGID_00000103969063123032909290000000271358278136448132_);}
	.st91{fill:url(#SVGID_00000074406224171945020960000016067466213034587045_);}
	.st92{fill:url(#SVGID_00000010279245089744717520000012664168997402087573_);}
	.st93{fill:url(#SVGID_00000045604011062392153750000015024099199739915951_);}
	.st94{fill:url(#SVGID_00000030466391241357617010000009742763678477811088_);}
	.st95{fill:url(#SVGID_00000179609577970958150240000011230018170668941731_);}
	.st96{fill:url(#SVGID_00000008106766358869535220000004479851184509134470_);}
	.st97{fill:url(#SVGID_00000101820093748677736080000002051006908661056404_);}
	.st98{fill:url(#SVGID_00000063614129408974800540000014436902063978730144_);}
	.st99{fill:url(#SVGID_00000048463609819012590650000008032248675105099393_);}
	.st100{fill:url(#SVGID_00000028305554223058949970000008614334065119358135_);}
	.st101{fill:url(#SVGID_00000106866345823883483450000003796920721568390821_);}
	.st102{fill:url(#SVGID_00000026861900522254578120000010371732296219789210_);}
	.st103{fill:url(#SVGID_00000047769567284384647470000013936316499295072422_);}
	.st104{fill:url(#SVGID_00000037658674754399371630000007054140421776683159_);}
	.st105{fill:url(#SVGID_00000150802228070246417690000004208156953540406676_);}
	.st106{fill:url(#SVGID_00000016762193538544883600000014473013728209987771_);}
	.st107{fill:url(#SVGID_00000179626856075824314430000006409375907757537969_);}
	.st108{fill:url(#SVGID_00000034796969789960712640000005365189784075760274_);}
	.st109{fill:url(#SVGID_00000013159039575809491920000008864863413720781190_);}
	.st110{fill:url(#SVGID_00000031209352723235765190000005629593603152727217_);}
	.st111{fill:url(#SVGID_00000111167885863277265110000011231057457074114462_);}
	.st112{fill:url(#SVGID_00000067204226415179867370000000110632494088850869_);}
	.st113{fill:url(#SVGID_00000062165252570246145710000011258454463274240142_);}
	.st114{fill:url(#SVGID_00000062882044477497339440000001987821658763805885_);}
	.st115{fill:#EAC843;}
	.st116{clip-path:url(#SVGID_00000168084963345850172130000011271542162516852865_);}
	.st117{clip-path:url(#SVGID_00000101791862122643997950000013860302267741405832_);}
	.st118{clip-path:url(#SVGID_00000128469271043847207320000010262301896151604629_);}
	.st119{clip-path:url(#SVGID_00000067915425166125802730000005090807218906487953_);}
	.st120{clip-path:url(#SVGID_00000069356723870632799000000009581144028176580483_);}
	.st121{clip-path:url(#SVGID_00000170977558625572443320000004477981988890305923_);}
	.st122{clip-path:url(#SVGID_00000008143264924958432090000004806785591688053140_);}
	.st123{clip-path:url(#SVGID_00000105414341554696092740000010793279069834243772_);}
	.st124{fill:#E7E148;}
	.st125{fill:#ECB154;}
	.st126{fill:#D76031;}
	.st127{fill:url(#SVGID_00000180355027689719616760000011438491108486728860_);}
	.st128{fill:#6F6F6F;}
	.st129{fill:#F3F3F3;}
	.st130{fill:#393B52;}
	.st131{fill:#B3BA94;}
	.st132{fill:#D17C61;}
	.st133{fill:#1E0C05;}
	.st134{fill:#EE9D3B;}
	.st135{fill:#D0DEDF;}
	.st136{fill:#EDE7B0;}
	.st137{fill:none;stroke:#ECB154;stroke-width:2;stroke-miterlimit:10;}
	.st138{fill:none;stroke:url(#SVGID_00000103976184734959368670000002246817415380962988_);stroke-miterlimit:10;}
	.st139{fill:none;stroke:url(#SVGID_00000149355117908818921220000013358838532700517782_);stroke-miterlimit:10;}
	.st140{fill:none;stroke:url(#SVGID_00000038371297544671479300000018178649966118539178_);stroke-miterlimit:10;}
	.st141{fill:none;stroke:url(#SVGID_00000119089621333173204670000004904868015579564416_);stroke-miterlimit:10;}
	.st142{fill:none;stroke:url(#SVGID_00000101104104659097110740000003905297831747899066_);stroke-miterlimit:10;}
</style>
<g>
	<g>
		<path class="st125" d="M61.34,86.55c-9.57,0-17.35-7.78-17.35-17.35c0-9.57,7.78-17.35,17.35-17.35c9.56,0,17.35,7.78,17.35,17.35
			C78.68,78.77,70.9,86.55,61.34,86.55z M61.34,57.39c-6.51,0-11.81,5.3-11.81,11.81c0,6.51,5.3,11.81,11.81,11.81
			s11.81-5.3,11.81-11.81C73.15,62.69,67.85,57.39,61.34,57.39z"/>
		<path class="st125" d="M117.18,86.55h-25.7c-1.53,0-2.77-1.24-2.77-2.77c0-1.53,1.24-2.77,2.77-2.77h25.7
			c1.53,0,2.77,1.24,2.77,2.77C119.95,85.31,118.71,86.55,117.18,86.55z"/>
		<path class="st125" d="M105.32,104.1H47.99c-1.53,0-2.77-1.24-2.77-2.77c0-1.53,1.24-2.77,2.77-2.77h57.33
			c1.53,0,2.77,1.24,2.77,2.77C108.09,102.86,106.85,104.1,105.32,104.1z"/>
		<path class="st125" d="M90,120.66H47.99c-1.53,0-2.77-1.24-2.77-2.77c0-1.53,1.24-2.77,2.77-2.77H90c1.53,0,2.77,1.24,2.77,2.77
			C92.77,119.42,91.53,120.66,90,120.66z"/>
		<path class="st125" d="M84.56,137.21H47.99c-1.53,0-2.77-1.24-2.77-2.77c0-1.53,1.24-2.77,2.77-2.77h36.57
			c1.53,0,2.77,1.24,2.77,2.77C87.33,135.97,86.09,137.21,84.56,137.21z"/>
		<path class="st125" d="M84.56,153.77H47.99c-1.53,0-2.77-1.24-2.77-2.77c0-1.53,1.24-2.77,2.77-2.77h36.57
			c1.53,0,2.77,1.24,2.77,2.77C87.33,152.53,86.09,153.77,84.56,153.77z"/>
		<path class="st125" d="M117.18,73.21h-25.7c-1.53,0-2.77-1.24-2.77-2.77c0-1.53,1.24-2.77,2.77-2.77h25.7
			c1.53,0,2.77,1.24,2.77,2.77C119.95,71.97,118.71,73.21,117.18,73.21z"/>
		<path class="st125" d="M117.18,59.87h-25.7c-1.53,0-2.77-1.24-2.77-2.77c0-1.53,1.24-2.77,2.77-2.77h25.7
			c1.53,0,2.77,1.24,2.77,2.77C119.95,58.63,118.71,59.87,117.18,59.87z"/>
		<path class="st125" d="M143.08,181.2H125.5c-1.53,0-2.77-1.24-2.77-2.77v-8.28c-0.56-0.21-1.11-0.45-1.67-0.7l-5.86,5.86
			c-1.08,1.08-2.83,1.08-3.91,0l-12.43-12.43c-0.52-0.52-0.81-1.22-0.81-1.96c0-0.73,0.29-1.44,0.81-1.96l5.86-5.86
			c-0.25-0.55-0.48-1.11-0.7-1.67h-8.28c-1.53,0-2.77-1.24-2.77-2.77v-17.58c0-1.53,1.24-2.77,2.77-2.77h8.28
			c0.22-0.56,0.45-1.11,0.7-1.67l-5.86-5.86c-0.52-0.52-0.81-1.22-0.81-1.96c0-0.73,0.29-1.44,0.81-1.96l12.43-12.43
			c0.52-0.52,1.22-0.81,1.96-0.81c0.73,0,1.44,0.29,1.96,0.81l5.86,5.86c0.55-0.25,1.11-0.48,1.67-0.7v-8.28
			c0-1.53,1.24-2.77,2.77-2.77h17.58c1.53,0,2.77,1.24,2.77,2.77v8.28c0.56,0.21,1.11,0.45,1.67,0.7l5.86-5.86
			c1.08-1.08,2.83-1.08,3.91,0l12.43,12.43c1.08,1.08,1.08,2.83,0,3.91l-5.86,5.86c0.25,0.55,0.48,1.11,0.7,1.67h8.28
			c1.53,0,2.77,1.24,2.77,2.77v17.58c0,1.53-1.24,2.77-2.77,2.77h-8.28c-0.21,0.56-0.45,1.11-0.7,1.67l5.86,5.86
			c1.08,1.08,1.08,2.83,0,3.91l-12.43,12.43c-1.08,1.08-2.83,1.08-3.91,0l-5.86-5.86c-0.55,0.25-1.11,0.48-1.67,0.7v8.28
			C145.84,179.96,144.6,181.2,143.08,181.2z M128.27,175.66h12.04v-7.48c0-1.21,0.79-2.28,1.95-2.64c1.51-0.47,3.03-1.1,4.52-1.89
			c1.07-0.57,2.39-0.37,3.25,0.49l5.3,5.3l8.52-8.52l-5.3-5.3c-0.86-0.86-1.06-2.17-0.49-3.25c0.79-1.49,1.42-3.02,1.89-4.53
			c0.36-1.16,1.43-1.95,2.64-1.95h7.48v-12.04h-7.48c-1.21,0-2.28-0.79-2.64-1.95c-0.47-1.51-1.11-3.03-1.89-4.53
			c-0.57-1.07-0.37-2.39,0.49-3.25l5.3-5.3l-8.52-8.52l-5.3,5.3c-0.86,0.86-2.18,1.06-3.25,0.49c-1.49-0.79-3.01-1.42-4.52-1.89
			c-1.16-0.36-1.95-1.43-1.95-2.64v-7.48h-12.04v7.48c0,1.21-0.79,2.28-1.95,2.64c-1.51,0.47-3.03,1.11-4.52,1.89
			c-1.07,0.57-2.39,0.37-3.25-0.49l-5.3-5.3l-8.52,8.52l5.3,5.3c0.86,0.86,1.06,2.17,0.49,3.25c-0.79,1.49-1.42,3.02-1.89,4.53
			c-0.36,1.16-1.43,1.95-2.64,1.95H98.5v12.04h7.48c1.21,0,2.28,0.79,2.64,1.95c0.47,1.51,1.1,3.03,1.89,4.53
			c0.57,1.07,0.37,2.39-0.49,3.25l-5.3,5.3l8.52,8.52l5.3-5.3c0.85-0.86,2.17-1.06,3.25-0.49c1.49,0.79,3.02,1.42,4.53,1.89
			c1.16,0.36,1.95,1.43,1.95,2.64V175.66z"/>
		<path class="st125" d="M134.29,162.05c-12.22,0-22.17-9.94-22.17-22.17s9.94-22.17,22.17-22.17c12.22,0,22.17,9.94,22.17,22.17
			S146.51,162.05,134.29,162.05z M134.29,123.25c-9.17,0-16.63,7.46-16.63,16.63s7.46,16.63,16.63,16.63s16.63-7.46,16.63-16.63
			S143.46,123.25,134.29,123.25z"/>
		<path class="st125" d="M153.75,97.18c-1.53,0-2.77-1.24-2.77-2.77V21.87h-93.8v5.21H143c1.53,0,2.77,1.24,2.77,2.77v59.62
			c0,1.53-1.24,2.77-2.77,2.77c-1.53,0-2.77-1.24-2.77-2.77V32.62H54.42c-1.53,0-2.77-1.24-2.77-2.77V19.1
			c0-1.53,1.24-2.77,2.77-2.77h99.34c1.53,0,2.77,1.24,2.77,2.77v75.31C156.52,95.94,155.28,97.18,153.75,97.18z"/>
		<path class="st125" d="M132.26,92.24c-1.53,0-2.77-1.24-2.77-2.77v-46.1H43.67c-1.53,0-2.77-1.24-2.77-2.77V29.85
			c0-1.53,1.24-2.77,2.77-2.77H143c1.53,0,2.77,1.24,2.77,2.77v57.88c0,1.53-1.24,2.77-2.77,2.77c-1.53,0-2.77-1.24-2.77-2.77V32.62
			h-93.8v5.21h85.82c1.53,0,2.77,1.24,2.77,2.77v48.87C135.02,91,133.78,92.24,132.26,92.24z"/>
		<path class="st125" d="M107.3,182H32.92c-1.53,0-2.77-1.24-2.77-2.77V40.6c0-1.53,1.24-2.77,2.77-2.77h99.34
			c1.53,0,2.77,1.24,2.77,2.77v48.87c0,1.53-1.24,2.77-2.77,2.77c-1.53,0-2.77-1.24-2.77-2.77v-46.1h-93.8v133.09h71.61
			c1.53,0,2.77,1.24,2.77,2.77S108.82,182,107.3,182z"/>
	</g>
</g>
</svg>
