<?xml version="1.0" encoding="utf-8"?>
<!-- Generator: Adobe Illustrator 26.2.1, SVG Export Plug-In . SVG Version: 6.00 Build 0)  -->
<svg version="1.1" id="Capa_1" xmlns="http://www.w3.org/2000/svg" xmlns:xlink="http://www.w3.org/1999/xlink" x="0px" y="0px"
	 viewBox="0 0 200 200" style="enable-background:new 0 0 200 200;" xml:space="preserve">
<style type="text/css">
	.st0{fill:url(#SVGID_1_);}
	.st1{fill:#F8F9F9;}
	.st2{filter:url(#Adobe_OpacityMaskFilter);}
	.st3{fill:url(#SVGID_00000001665293057905140790000009811852771059539369_);}
	.st4{opacity:0.14;mask:url(#SVGID_00000155834088843183810190000000477378244968788912_);}
	.st5{fill:url(#SVGID_00000169543199838401338970000009648222258553676471_);}
	.st6{fill:url(#SVGID_00000031169334771023519870000011650798135246165688_);}
	.st7{fill:url(#SVGID_00000129179407799599404160000001406753141893266095_);}
	.st8{fill:url(#SVGID_00000166644084415182406680000017825342934945472667_);}
	.st9{fill:url(#SVGID_00000117659972485383065160000011507486324407382400_);}
	.st10{fill:url(#SVGID_00000065776935154141797730000012180232671994644124_);}
	.st11{fill:url(#SVGID_00000051363727096765210530000010374581335798246069_);}
	.st12{fill:url(#SVGID_00000108275677689118825620000014165741178784018833_);}
	.st13{fill:url(#SVGID_00000008863085117471175110000015648497503157724568_);}
	.st14{fill:url(#SVGID_00000094614482605103797830000008767534979294452403_);}
	.st15{fill:url(#SVGID_00000087398401940093551090000016356946236868922756_);}
	.st16{fill:url(#SVGID_00000003821844510725231640000017655956224947555006_);}
	.st17{fill:url(#SVGID_00000025444124822288072320000014195735204288181408_);}
	.st18{fill:url(#SVGID_00000177474672402512536910000008801545570527297708_);}
	.st19{fill:url(#SVGID_00000032617063400202108110000018201561149064948637_);}
	.st20{fill:url(#SVGID_00000060733471158948928530000008852483119144481983_);}
	.st21{fill:url(#SVGID_00000084529020538107453890000008069918645639166635_);}
	.st22{fill:url(#SVGID_00000103970807859896846250000007445634649716319409_);}
	.st23{fill:url(#SVGID_00000021808151238747848360000001377978607609628851_);}
	.st24{fill:url(#SVGID_00000100372244144412849620000000701472742256063104_);}
	.st25{fill:#ECB340;}
	.st26{clip-path:url(#SVGID_00000119839311496632390960000004786752704900056254_);}
	
		.st27{opacity:0.62;clip-path:url(#SVGID_00000119839311496632390960000004786752704900056254_);fill:url(#SVGID_00000070103643447715558980000017012268942413576079_);}
	.st28{fill:url(#SVGID_00000152241970785797129330000004584616911375522192_);}
	.st29{clip-path:url(#SVGID_00000015328164836689918720000011825667466236391552_);}
	
		.st30{opacity:0.62;clip-path:url(#SVGID_00000015328164836689918720000011825667466236391552_);fill:url(#SVGID_00000143603858114746086300000010356196153454134430_);}
	.st31{fill:url(#SVGID_00000164502282487055726360000009578369950299588224_);}
	.st32{opacity:0.43;}
	.st33{clip-path:url(#SVGID_00000167363031363542826450000007577418854228858528_);}
	.st34{fill:url(#SVGID_00000111875040660157307740000007150348929360319406_);}
	.st35{fill:url(#SVGID_00000031200613222129866760000000511095134445293489_);}
	.st36{fill:url(#SVGID_00000116237490299277318380000010844154801280286395_);}
	.st37{fill:url(#SVGID_00000124143535275713725970000004983213266495950765_);}
	.st38{fill:url(#SVGID_00000182527639448288460030000003913140007499757201_);}
	.st39{fill:url(#SVGID_00000047058260876530989790000003739704884603765898_);}
	.st40{fill:url(#SVGID_00000168091861972333436060000005429198751621071516_);}
	.st41{fill:url(#SVGID_00000092452175175004989570000006179688778031378086_);}
	.st42{fill:url(#SVGID_00000034772396521129326620000005507324494573964183_);}
	.st43{fill:url(#SVGID_00000170978171651435776260000012929681313993188020_);}
	.st44{fill:url(#SVGID_00000183215168770280614650000016506085061641131681_);}
	.st45{fill:url(#SVGID_00000098194664195815110390000016404650599059970214_);}
	.st46{fill:url(#SVGID_00000115511042889673877090000005434278553236439474_);}
	.st47{fill:url(#SVGID_00000129165159776959996510000015484070124754312864_);}
	.st48{fill:url(#SVGID_00000047745524454650275760000007692623354148323003_);}
	.st49{fill:url(#SVGID_00000170244334999594999130000012251033732355372208_);}
	.st50{fill:url(#SVGID_00000015342397188127979600000002533417112611598479_);}
	.st51{fill:url(#SVGID_00000036960225899987665690000000901295073439009721_);}
	.st52{fill:url(#SVGID_00000065797376696619447290000006896381315420468865_);}
	.st53{fill:url(#SVGID_00000067936353765453470220000011653201688680533916_);}
	.st54{fill:url(#SVGID_00000152255903346149619830000013208765218967381391_);}
	.st55{fill:url(#SVGID_00000030486695294970533420000013224718270555552908_);}
	.st56{fill:url(#SVGID_00000117639196820231565560000015880593817152423594_);}
	.st57{fill:url(#SVGID_00000126319067806076409420000004586652525970605971_);}
	.st58{fill:url(#SVGID_00000076593510852134164500000006581566166588983743_);}
	.st59{fill:#606060;}
	.st60{clip-path:url(#SVGID_00000103237573262842795480000018072007897350971028_);}
	.st61{fill:url(#SVGID_00000161593966419461542060000017606465004785449101_);}
	.st62{fill:url(#SVGID_00000158750573018207269930000002283426238092908971_);}
	.st63{fill:url(#SVGID_00000016042717373598285050000012618449192312291998_);}
	.st64{fill:url(#SVGID_00000167385896974727926330000005517697260544753562_);}
	.st65{fill:url(#SVGID_00000021100534998339229660000003123369448170207141_);}
	.st66{fill:url(#SVGID_00000151541116403444474040000007810935183571306128_);}
	.st67{fill:url(#SVGID_00000052793480586625519620000013312865315774602935_);}
	.st68{fill:url(#SVGID_00000154416707123079506540000005706924903430551197_);}
	.st69{fill:url(#SVGID_00000124131656133454554670000005445294823546255774_);}
	.st70{fill:url(#SVGID_00000058567549733564569670000012966469749274623407_);}
	.st71{fill:url(#SVGID_00000060744429145560315430000008923316998541670817_);}
	.st72{fill:url(#SVGID_00000054961846144670084960000007405106922044853653_);}
	.st73{fill:url(#SVGID_00000166676771753888288130000015884710659005911732_);}
	.st74{fill:url(#SVGID_00000079482197727916293200000002695348865668764572_);}
	.st75{fill:url(#SVGID_00000038399447581564674230000002705087632433515195_);}
	.st76{fill:url(#SVGID_00000138542215149454372310000015608143699568986006_);}
	.st77{fill:url(#SVGID_00000133514494239277537950000003751770613938820509_);}
	.st78{fill:url(#SVGID_00000157304989038571417440000008740038792729480889_);}
	.st79{fill:url(#SVGID_00000137125605750919361050000003316232334288536728_);}
	.st80{fill:url(#SVGID_00000067237987850368952760000003475554376933508271_);}
	.st81{fill:url(#SVGID_00000097468671013479406760000016187920863863400597_);}
	.st82{fill:url(#SVGID_00000151511538303546481470000006404384248710503605_);}
	.st83{fill:url(#SVGID_00000031177273881037766940000000557505801672936335_);}
	.st84{fill:url(#SVGID_00000003818770693342715900000016851027725664473510_);}
	.st85{fill:url(#SVGID_00000032639519246766538090000009502068798865362330_);}
	.st86{fill:#FFFFFF;}
	.st87{clip-path:url(#SVGID_00000109747639505404178560000005022149475882468013_);}
	.st88{fill:url(#SVGID_00000078009987391179657500000004531592065731979689_);}
	.st89{fill:url(#SVGID_00000029012777035971714960000009753042017724489100_);}
	.st90{fill:url(#SVGID_00000078762649005227432420000000296832266244776363_);}
	.st91{fill:url(#SVGID_00000094614624049770921600000003915897690648011437_);}
	.st92{fill:url(#SVGID_00000005962311741244041140000016576577302754847368_);}
	.st93{fill:url(#SVGID_00000047763221685661339660000007487336157742332319_);}
	.st94{fill:url(#SVGID_00000061469345619065557180000016809443575724045746_);}
	.st95{fill:url(#SVGID_00000012464935867473704110000011793353040131005314_);}
	.st96{fill:url(#SVGID_00000128474064063377845460000013802657387446356386_);}
	.st97{fill:url(#SVGID_00000075147702451314776720000018377763752801836677_);}
	.st98{fill:url(#SVGID_00000076580308546236011090000013108108887109826210_);}
	.st99{fill:url(#SVGID_00000014609931623974451890000003612465515815687592_);}
	.st100{fill:url(#SVGID_00000000210540000795768640000011323694049243630526_);}
	.st101{fill:url(#SVGID_00000112613896729027842120000000547076253156084353_);}
	.st102{fill:url(#SVGID_00000163038346735418040370000010042718259754751672_);}
	.st103{fill:url(#SVGID_00000018927915284152822990000018160882620055000734_);}
	.st104{fill:url(#SVGID_00000098925500270332225900000015600133746071240863_);}
	.st105{fill:url(#SVGID_00000158006497867090200480000006398416385194075561_);}
	.st106{fill:url(#SVGID_00000036253514665958498420000006951954914323797948_);}
	.st107{fill:url(#SVGID_00000007397224524925478000000015040246463913907074_);}
	.st108{fill:url(#SVGID_00000096772558770959841580000001440051414845405630_);}
	.st109{fill:url(#SVGID_00000042708540106700879810000003931611483387903133_);}
	.st110{fill:url(#SVGID_00000103236416292446638370000001639160743062843276_);}
	.st111{fill:url(#SVGID_00000060711853024584839880000014923242863337763481_);}
	.st112{fill:url(#SVGID_00000171680803753177648800000003460100276441440415_);}
	.st113{fill:url(#SVGID_00000073000974027566963920000014968895629549785760_);}
	.st114{fill:url(#SVGID_00000118365270421299817620000016901467832029228965_);}
	.st115{fill:#EAC843;}
	.st116{clip-path:url(#SVGID_00000044155851105001541620000003570627270483012025_);}
	.st117{clip-path:url(#SVGID_00000050656502158242054070000012834839453331206828_);}
	.st118{clip-path:url(#SVGID_00000016055256202014354380000002842202329885953179_);}
	.st119{clip-path:url(#SVGID_00000139288777574610285100000018210111918862741427_);}
	.st120{clip-path:url(#SVGID_00000101824246684355108280000014265109583634034567_);}
	.st121{clip-path:url(#SVGID_00000175316304050177079550000016130825174583419830_);}
	.st122{clip-path:url(#SVGID_00000021121141979415376950000011916230920067934872_);}
	.st123{clip-path:url(#SVGID_00000178927171034637658440000000892678958500362393_);}
	.st124{fill:#E7E148;}
	.st125{fill:#ECB154;}
	.st126{fill:#D76031;}
	.st127{fill:url(#SVGID_00000177444946039875604370000017258294534640668568_);}
	.st128{fill:#6F6F6F;}
	.st129{fill:#F3F3F3;}
	.st130{fill:#393B52;}
	.st131{fill:#B3BA94;}
	.st132{fill:#D17C61;}
	.st133{fill:#1E0C05;}
	.st134{fill:#EE9D3B;}
	.st135{fill:#D0DEDF;}
	.st136{fill:#EDE7B0;}
	.st137{fill:none;stroke:#ECB154;stroke-width:2;stroke-miterlimit:10;}
	.st138{fill:none;stroke:url(#SVGID_00000156563428252986727260000000626256414269591983_);stroke-miterlimit:10;}
	.st139{fill:none;stroke:url(#SVGID_00000147928841619344274860000008876601564525080253_);stroke-miterlimit:10;}
	.st140{fill:none;stroke:url(#SVGID_00000056391588106017620110000017390179914010418306_);stroke-miterlimit:10;}
	.st141{fill:none;stroke:url(#SVGID_00000155845279143740088620000012420536254762490033_);stroke-miterlimit:10;}
	.st142{fill:none;stroke:url(#SVGID_00000158011744695927877870000004452119063169187468_);stroke-miterlimit:10;}
</style>
<g>
	<g>
		<path class="st25" d="M142.9,89.59h-18.52c-3.37,0-6.12-2.74-6.12-6.12v-4.51c0-1.81,1.46-3.27,3.27-3.27s3.27,1.46,3.27,3.27
			v4.09h17.67V70.13h-18.1c-3.37,0-6.12-2.74-6.12-6.12V50.23c0-3.38,2.75-6.12,6.12-6.12h18.52c3.37,0,6.12,2.74,6.12,6.12v4.51
			c0,1.81-1.46,3.27-3.27,3.27s-3.27-1.46-3.27-3.27v-4.09h-17.67v12.93h18.1c3.37,0,6.12,2.74,6.12,6.12v13.77
			C149.02,86.85,146.28,89.59,142.9,89.59z"/>
		<path class="st25" d="M133.65,93.57c-1.81,0-3.27-1.46-3.27-3.27V43.41c0-1.81,1.46-3.27,3.27-3.27s3.27,1.46,3.27,3.27V90.3
			C136.92,92.1,135.45,93.57,133.65,93.57z"/>
		<path class="st25" d="M133.65,107.36c-22.36,0-40.55-18.19-40.55-40.55c0-22.36,18.19-40.55,40.55-40.55
			c22.36,0,40.55,18.19,40.55,40.55C174.2,89.17,156.01,107.36,133.65,107.36z M133.65,32.79c-18.75,0-34.01,15.26-34.01,34.01
			s15.26,34.01,34.01,34.01s34.01-15.26,34.01-34.01S152.4,32.79,133.65,32.79z"/>
		<path class="st25" d="M127.47,180c-1.95,0-3.91-0.21-5.83-0.65l-66.77-15.13c-1.49-0.34-2.55-1.66-2.55-3.19v-56.1
			c0-1.67,1.25-3.07,2.91-3.25l10.66-1.19c6.87-0.77,13.76,0.49,19.92,3.63l54.66,27.83c0.72,0.37,1.39,0.79,2.01,1.26l25.36-15.17
			c6.43-3.71,14.47-1.96,18.75,4.05c4.37,6.14,3.19,14.64-2.7,19.35l-39.4,32.47C139.71,177.87,133.62,180,127.47,180z
			 M58.86,158.42l64.22,14.55c6.04,1.37,12.5-0.17,17.27-4.1l39.43-32.5c3.21-2.57,3.85-7.17,1.49-10.49
			c-2.31-3.24-6.66-4.19-10.1-2.2l-24.63,14.73c0.2,0.47,0.37,0.95,0.52,1.44c1.03,3.46,0.61,7.09-1.19,10.21
			c-3.02,5.27-9.2,7.73-15.02,6l-34.38-10.23c-1.73-0.52-2.72-2.34-2.2-4.07c0.52-1.73,2.34-2.72,4.07-2.2l34.38,10.22
			c2.9,0.86,5.98-0.37,7.48-2.99c0.9-1.56,1.11-3.36,0.59-5.09c-0.25-0.82-0.64-1.57-1.16-2.22c-0.06-0.07-0.12-0.14-0.18-0.21
			c-0.54-0.61-1.19-1.12-1.95-1.51l-54.66-27.83c-5.02-2.56-10.63-3.57-16.23-2.96l-7.76,0.86V158.42z"/>
		<path class="st25" d="M47.81,171.95h-26.2c-6.09,0-11.05-4.95-11.05-11.05v-59.3c0-6.09,4.96-11.05,11.05-11.05h26.2
			c6.09,0,11.05,4.95,11.05,11.05v59.3C58.86,167,53.9,171.95,47.81,171.95z M21.61,97.1c-2.48,0-4.51,2.02-4.51,4.5v59.3
			c0,2.48,2.02,4.5,4.51,4.5h26.2c2.48,0,4.51-2.02,4.51-4.5v-59.3c0-2.48-2.02-4.5-4.51-4.5H21.61z"/>
		<path class="st25" d="M34.71,121.48c-5.55,0-10.07-4.52-10.07-10.08c0-5.55,4.52-10.07,10.07-10.07c5.56,0,10.08,4.52,10.08,10.07
			C44.79,116.96,40.27,121.48,34.71,121.48z M34.71,107.87c-1.95,0-3.53,1.58-3.53,3.53s1.59,3.54,3.53,3.54
			c1.95,0,3.54-1.59,3.54-3.54S36.66,107.87,34.71,107.87z"/>
		<path class="st25" d="M26.09,171.95c-1.81,0-3.27-1.46-3.27-3.27v-22.76c0-1.81,1.46-3.27,3.27-3.27c1.81,0,3.27,1.46,3.27,3.27
			v22.76C29.36,170.49,27.89,171.95,26.09,171.95z"/>
		<path class="st25" d="M43.34,171.95c-1.81,0-3.27-1.46-3.27-3.27v-36.13c0-1.81,1.46-3.27,3.27-3.27c1.81,0,3.27,1.46,3.27,3.27
			v36.13C46.61,170.49,45.15,171.95,43.34,171.95z"/>
		<path class="st25" d="M80.01,158.07c-0.25,0-0.51-0.03-0.77-0.09l-24.42-5.91c-1.76-0.42-2.83-2.19-2.41-3.95
			c0.43-1.76,2.19-2.84,3.95-2.41l24.42,5.91c1.76,0.42,2.83,2.19,2.41,3.95C82.82,157.06,81.48,158.07,80.01,158.07z"/>
	</g>
</g>
</svg>
