<?xml version="1.0" encoding="utf-8"?>
<!-- Generator: Adobe Illustrator 26.2.1, SVG Export Plug-In . SVG Version: 6.00 Build 0)  -->
<svg version="1.1" id="Capa_1" xmlns="http://www.w3.org/2000/svg" xmlns:xlink="http://www.w3.org/1999/xlink" x="0px" y="0px"
	 viewBox="0 0 200 200" style="enable-background:new 0 0 200 200;" xml:space="preserve">
<style type="text/css">
	.st0{fill:url(#SVGID_1_);}
	.st1{fill:#F8F9F9;}
	.st2{filter:url(#Adobe_OpacityMaskFilter);}
	.st3{fill:url(#SVGID_00000153687098075836219910000009610561522155632272_);}
	.st4{opacity:0.14;mask:url(#SVGID_00000066494724158585363840000005658455872734652599_);}
	.st5{fill:url(#SVGID_00000142176818623629387260000007409777492944171905_);}
	.st6{fill:url(#SVGID_00000103243878789294232670000007741029671342731196_);}
	.st7{fill:url(#SVGID_00000147900118710507456390000016283096950669765260_);}
	.st8{fill:url(#SVGID_00000001657709252850974230000001830520003058451603_);}
	.st9{fill:url(#SVGID_00000097502903732849439750000011660737812386126269_);}
	.st10{fill:url(#SVGID_00000158748696779873330010000017512187598832095137_);}
	.st11{fill:url(#SVGID_00000009548443251707468760000018314640313261911700_);}
	.st12{fill:url(#SVGID_00000146495566938315916380000014964477060361794181_);}
	.st13{fill:url(#SVGID_00000035511202779056707250000013075761795204946827_);}
	.st14{fill:url(#SVGID_00000039127207018970465980000006013187959548306049_);}
	.st15{fill:url(#SVGID_00000124848219940463005660000003783628853243030170_);}
	.st16{fill:url(#SVGID_00000000919530355716342880000016002464616172406439_);}
	.st17{fill:url(#SVGID_00000054947992006599392410000016255706357581906823_);}
	.st18{fill:url(#SVGID_00000074409406350189469170000012246948094182375353_);}
	.st19{fill:url(#SVGID_00000063600738679915784900000014647199526174674578_);}
	.st20{fill:url(#SVGID_00000002375727438873057520000017840038323783794074_);}
	.st21{fill:url(#SVGID_00000108276675107405916220000012370124136821989053_);}
	.st22{fill:url(#SVGID_00000047061257866318252490000011159516978179316117_);}
	.st23{fill:url(#SVGID_00000072994774418704017550000006792485553622661249_);}
	.st24{fill:url(#SVGID_00000039829398678802699720000018433601916448374181_);}
	.st25{fill:#ECB340;}
	.st26{clip-path:url(#SVGID_00000085240286688262228280000013945255871048896655_);}
	
		.st27{opacity:0.62;clip-path:url(#SVGID_00000085240286688262228280000013945255871048896655_);fill:url(#SVGID_00000073714585285180271820000003942884633354704769_);}
	.st28{fill:url(#SVGID_00000051370948661129519300000018116329016103947181_);}
	.st29{clip-path:url(#SVGID_00000065753037138676394420000009332169204211302565_);}
	
		.st30{opacity:0.62;clip-path:url(#SVGID_00000065753037138676394420000009332169204211302565_);fill:url(#SVGID_00000111907359978642131840000017589154049803012535_);}
	.st31{fill:url(#SVGID_00000076586255008433797030000008988932360588502409_);}
	.st32{opacity:0.43;}
	.st33{clip-path:url(#SVGID_00000168826348801572919650000001976892653855339431_);}
	.st34{fill:url(#SVGID_00000060723866467279114640000013883053021491790758_);}
	.st35{fill:url(#SVGID_00000011721052711391672990000017598373011732154028_);}
	.st36{fill:url(#SVGID_00000164475597996501880830000015916775576256062641_);}
	.st37{fill:url(#SVGID_00000028315049961012513090000018428229024724319154_);}
	.st38{fill:url(#SVGID_00000003795590239806515330000001804935843047279778_);}
	.st39{fill:url(#SVGID_00000093866285614408785730000001768303683620898961_);}
	.st40{fill:url(#SVGID_00000019642660558659513460000018243524112523598729_);}
	.st41{fill:url(#SVGID_00000162346722627114992660000000131861028277384108_);}
	.st42{fill:url(#SVGID_00000097462122047941613350000003711732170000337582_);}
	.st43{fill:url(#SVGID_00000136378804334166539810000006601211415072899498_);}
	.st44{fill:url(#SVGID_00000035516719758144077810000005803772814523218620_);}
	.st45{fill:url(#SVGID_00000141444904425508187660000006765764998069197996_);}
	.st46{fill:url(#SVGID_00000078041984169048006310000009048649910129653915_);}
	.st47{fill:url(#SVGID_00000173839223421801232150000014519603271952598197_);}
	.st48{fill:url(#SVGID_00000134248093404554643980000009454318833966355133_);}
	.st49{fill:url(#SVGID_00000035520291302903752520000002932967232756366222_);}
	.st50{fill:url(#SVGID_00000127001765691670651070000008769291145177993115_);}
	.st51{fill:url(#SVGID_00000179638152317601286490000005281502056901514919_);}
	.st52{fill:url(#SVGID_00000007399766960630739710000007137933035769444274_);}
	.st53{fill:url(#SVGID_00000067955206279304706990000017145714687054220949_);}
	.st54{fill:url(#SVGID_00000072988777908683636780000005613209569030890883_);}
	.st55{fill:url(#SVGID_00000071531802880421080080000017898065395665395647_);}
	.st56{fill:url(#SVGID_00000084498146246947152920000010224522431930404769_);}
	.st57{fill:url(#SVGID_00000080197117197630830250000008584872528487746691_);}
	.st58{fill:url(#SVGID_00000015327223114816411850000000245554048153727891_);}
	.st59{fill:#606060;}
	.st60{clip-path:url(#SVGID_00000009564041966059370710000013185624690893797275_);}
	.st61{fill:url(#SVGID_00000174598820424966187030000000795562379110921860_);}
	.st62{fill:url(#SVGID_00000066506453424986479390000010217979240137836676_);}
	.st63{fill:url(#SVGID_00000126308324394970209400000015499774513502955438_);}
	.st64{fill:url(#SVGID_00000052787444530987158900000006287932008554617742_);}
	.st65{fill:url(#SVGID_00000036955195635047108930000014246731161574600323_);}
	.st66{fill:url(#SVGID_00000061466484802924255260000003878988473311449250_);}
	.st67{fill:url(#SVGID_00000003080204144157409610000013493997721377695647_);}
	.st68{fill:url(#SVGID_00000035505998097537205580000011246037994839018891_);}
	.st69{fill:url(#SVGID_00000009556015089403535480000015297673225763706014_);}
	.st70{fill:url(#SVGID_00000169556153066260420400000007604163338309059755_);}
	.st71{fill:url(#SVGID_00000130616413057838120670000007762829412770522276_);}
	.st72{fill:url(#SVGID_00000033347523726306094970000006960178330372764056_);}
	.st73{fill:url(#SVGID_00000170245438465547336580000001388112534670474408_);}
	.st74{fill:url(#SVGID_00000062152019512410033310000006494470592207756706_);}
	.st75{fill:url(#SVGID_00000081611114231646564630000002626371792128878219_);}
	.st76{fill:url(#SVGID_00000115482845864588899670000010737883609361559466_);}
	.st77{fill:url(#SVGID_00000026124824340763851930000016377260751458578821_);}
	.st78{fill:url(#SVGID_00000164505924505697207250000012327453632987343530_);}
	.st79{fill:url(#SVGID_00000158736110727077161660000015240920991466283705_);}
	.st80{fill:url(#SVGID_00000177458421424336869240000001552546588567144611_);}
	.st81{fill:url(#SVGID_00000002367090430951855940000002443039779083161279_);}
	.st82{fill:url(#SVGID_00000106126981200901028780000007174544180131015040_);}
	.st83{fill:url(#SVGID_00000102536631179695354160000017503500162844008121_);}
	.st84{fill:url(#SVGID_00000106862076833593477040000011623197491862764682_);}
	.st85{fill:url(#SVGID_00000022556374399349042600000009360130593465349039_);}
	.st86{fill:#FFFFFF;}
	.st87{clip-path:url(#SVGID_00000070115401924205091370000008284324974415803834_);}
	.st88{fill:url(#SVGID_00000099662190826647835670000002774169803344843673_);}
	.st89{fill:url(#SVGID_00000163757504471819683070000010575901327838580670_);}
	.st90{fill:url(#SVGID_00000031188057611070587700000009537945188008454050_);}
	.st91{fill:url(#SVGID_00000083084792014925238680000012966106088345093251_);}
	.st92{fill:url(#SVGID_00000050628133799129326540000010252344925099989148_);}
	.st93{fill:url(#SVGID_00000014633392206022690280000014254352367099962264_);}
	.st94{fill:url(#SVGID_00000089539096493189669080000005442979257094834608_);}
	.st95{fill:url(#SVGID_00000125565222308136933740000005053816725031141283_);}
	.st96{fill:url(#SVGID_00000096775657697815356240000001934991373293015192_);}
	.st97{fill:url(#SVGID_00000182502051932902340240000010189884584474028977_);}
	.st98{fill:url(#SVGID_00000056385587901051202530000002285559568707982757_);}
	.st99{fill:url(#SVGID_00000155145713811606483840000002401686587472034459_);}
	.st100{fill:url(#SVGID_00000101822108838814215610000009657484278024257160_);}
	.st101{fill:url(#SVGID_00000176042307031172623910000011696590818315612807_);}
	.st102{fill:url(#SVGID_00000036253149255160061460000018410772832072718515_);}
	.st103{fill:url(#SVGID_00000109745862356748230670000003787322833199192511_);}
	.st104{fill:url(#SVGID_00000134244813961194566340000003911590116088463259_);}
	.st105{fill:url(#SVGID_00000149373057226259121590000002496054625486947757_);}
	.st106{fill:url(#SVGID_00000041260925843370686150000007825141962043349949_);}
	.st107{fill:url(#SVGID_00000166654086835518842500000000949822657172319882_);}
	.st108{fill:url(#SVGID_00000139268435400790772370000016286703017037452435_);}
	.st109{fill:url(#SVGID_00000145029726384303121730000009937076050436598188_);}
	.st110{fill:url(#SVGID_00000029747844634244855160000012875295243396404921_);}
	.st111{fill:url(#SVGID_00000156553606130273816260000005243646528885985692_);}
	.st112{fill:url(#SVGID_00000050640796626285170280000013293543109219453871_);}
	.st113{fill:url(#SVGID_00000053508230665924028250000010678639684405298338_);}
	.st114{fill:url(#SVGID_00000119108491809243322670000006384810759992768187_);}
	.st115{fill:#EAC843;}
	.st116{clip-path:url(#SVGID_00000141448927814295653030000003255946037563055278_);}
	.st117{clip-path:url(#SVGID_00000122722882010926156940000008807695357742828196_);}
	.st118{clip-path:url(#SVGID_00000140698102216172558250000016255891501560725417_);}
	.st119{clip-path:url(#SVGID_00000114032678062852426980000003695354689482049164_);}
	.st120{clip-path:url(#SVGID_00000050644949538115440160000006631693470436714377_);}
	.st121{clip-path:url(#SVGID_00000059991100680888575000000010316357804271688076_);}
	.st122{clip-path:url(#SVGID_00000036941316980593071450000004607885545428760450_);}
	.st123{clip-path:url(#SVGID_00000055700061490639701170000003116736338058824862_);}
	.st124{fill:#E7E148;}
	.st125{fill:#ECB154;}
	.st126{fill:#D76031;}
	.st127{fill:url(#SVGID_00000096058391621219690350000000088481695624075907_);}
	.st128{fill:#6F6F6F;}
	.st129{fill:#F3F3F3;}
	.st130{fill:#393B52;}
	.st131{fill:#B3BA94;}
	.st132{fill:#D17C61;}
	.st133{fill:#1E0C05;}
	.st134{fill:#EE9D3B;}
	.st135{fill:#D0DEDF;}
	.st136{fill:#EDE7B0;}
	.st137{fill:none;stroke:#ECB154;stroke-width:2;stroke-miterlimit:10;}
	.st138{fill:none;stroke:url(#SVGID_00000146499761282727501260000000371536038613097607_);stroke-miterlimit:10;}
	.st139{fill:none;stroke:url(#SVGID_00000003818552036301089820000006571479561824338617_);stroke-miterlimit:10;}
	.st140{fill:none;stroke:url(#SVGID_00000018942549438909416730000001739100687643909043_);stroke-miterlimit:10;}
	.st141{fill:none;stroke:url(#SVGID_00000021839127588156352660000015520241737766680704_);stroke-miterlimit:10;}
	.st142{fill:none;stroke:url(#SVGID_00000078013270884651094800000008931527353016173215_);stroke-miterlimit:10;}
</style>
<g>
	<path class="st125" d="M151.4,180.5H48.87c-1.64,0-2.96-1.33-2.96-2.96V47.75h-4.47c-1.64,0-2.96-1.33-2.96-2.96V22.46
		c0-1.64,1.33-2.96,2.96-2.96h117.39c1.64,0,2.96,1.33,2.96,2.96v22.32c0,1.64-1.33,2.96-2.96,2.96h-4.47v129.79
		C154.36,179.17,153.04,180.5,151.4,180.5z M51.84,174.57h96.6V44.79c0-1.64,1.33-2.96,2.96-2.96h4.47v-16.4H44.4v16.4h4.47
		c1.64,0,2.96,1.33,2.96,2.96V174.57z"/>
	<path class="st125" d="M178.71,180.5H151.4c-1.64,0-2.96-1.33-2.96-2.96V81.51c0-1.64,1.33-2.96,2.96-2.96h27.31
		c1.64,0,2.96,1.33,2.96,2.96v96.02C181.67,179.17,180.35,180.5,178.71,180.5z M154.36,174.57h21.38v-90.1h-21.38V174.57z"/>
	<path class="st125" d="M48.6,180.5H21.29c-1.64,0-2.96-1.33-2.96-2.96V81.51c0-1.64,1.33-2.96,2.96-2.96H48.6
		c1.64,0,2.96,1.33,2.96,2.96v96.02C51.56,179.17,50.24,180.5,48.6,180.5z M24.25,174.57h21.38v-90.1H24.25V174.57z"/>
	<path class="st125" d="M117.57,180.5H82.43c-1.64,0-2.96-1.33-2.96-2.96v-51.86c0-1.64,1.33-2.96,2.96-2.96h35.14
		c1.64,0,2.96,1.33,2.96,2.96v51.86C120.53,179.17,119.21,180.5,117.57,180.5z M85.39,174.57h29.21v-45.93H85.39V174.57z"/>
	<path class="st125" d="M77.76,84.48H60.58c-1.64,0-2.96-1.33-2.96-2.96V55.65c0-1.64,1.33-2.96,2.96-2.96h17.19
		c1.64,0,2.96,1.33,2.96,2.96v25.86C80.73,83.15,79.4,84.48,77.76,84.48z M63.54,78.55H74.8V58.61H63.54V78.55z"/>
	<path class="st125" d="M108.59,84.48H91.41c-1.64,0-2.96-1.33-2.96-2.96V55.65c0-1.64,1.33-2.96,2.96-2.96h17.19
		c1.64,0,2.96,1.33,2.96,2.96v25.86C111.56,83.15,110.23,84.48,108.59,84.48z M94.37,78.55h11.26V58.61H94.37V78.55z"/>
	<path class="st125" d="M139.42,84.48h-17.19c-1.64,0-2.96-1.33-2.96-2.96V55.65c0-1.64,1.33-2.96,2.96-2.96h17.19
		c1.64,0,2.96,1.33,2.96,2.96v25.86C142.39,83.15,141.06,84.48,139.42,84.48z M125.2,78.55h11.26V58.61H125.2V78.55z"/>
	<path class="st125" d="M139.42,118.2H60.58c-1.64,0-2.96-1.33-2.96-2.96V91.95c0-1.64,1.33-2.96,2.96-2.96h78.85
		c1.64,0,2.96,1.33,2.96,2.96v23.29C142.39,116.88,141.06,118.2,139.42,118.2z M63.54,112.28h72.92V94.92H63.54V112.28z"/>
	<path class="st125" d="M72.23,160.55H60.58c-1.64,0-2.96-1.33-2.96-2.96v-25.86c0-1.64,1.33-2.96,2.96-2.96h11.65
		c1.64,0,2.96,1.33,2.96,2.96v25.86C75.2,159.22,73.87,160.55,72.23,160.55z M63.54,154.62h5.73v-19.94h-5.73V154.62z"/>
	<path class="st125" d="M139.69,160.55h-11.65c-1.64,0-2.96-1.33-2.96-2.96v-25.86c0-1.64,1.33-2.96,2.96-2.96h11.65
		c1.64,0,2.96,1.33,2.96,2.96v25.86C142.66,159.22,141.33,160.55,139.69,160.55z M131,154.62h5.73v-19.94H131V154.62z"/>
	<path class="st125" d="M166.27,125.95H151.4c-1.64,0-2.96-1.33-2.96-2.96V96.12c0-1.64,1.33-2.96,2.96-2.96h14.87
		c1.64,0,2.96,1.33,2.96,2.96v26.87C169.23,124.62,167.9,125.95,166.27,125.95z M154.36,120.02h8.94V99.08h-8.94V120.02z"/>
	<path class="st125" d="M166.27,168.77H151.4c-1.64,0-2.96-1.33-2.96-2.96v-26.87c0-1.64,1.33-2.96,2.96-2.96h14.87
		c1.64,0,2.96,1.33,2.96,2.96v26.87C169.23,167.44,167.9,168.77,166.27,168.77z M154.36,162.84h8.94V141.9h-8.94V162.84z"/>
	<path class="st125" d="M48.91,125.95H34.04c-1.64,0-2.96-1.33-2.96-2.96V96.12c0-1.64,1.33-2.96,2.96-2.96h14.87
		c1.64,0,2.96,1.33,2.96,2.96v26.87C51.87,124.62,50.55,125.95,48.91,125.95z M37.01,120.02h8.94V99.08h-8.94V120.02z"/>
	<path class="st125" d="M48.91,168.77H34.04c-1.64,0-2.96-1.33-2.96-2.96v-26.87c0-1.64,1.33-2.96,2.96-2.96h14.87
		c1.64,0,2.96,1.33,2.96,2.96v26.87C51.87,167.44,50.55,168.77,48.91,168.77z M37.01,162.84h8.94V141.9h-8.94V162.84z"/>
	<path class="st125" d="M104.83,47.75H48.87c-1.64,0-2.96-1.33-2.96-2.96s1.33-2.96,2.96-2.96h55.95c1.64,0,2.96,1.33,2.96,2.96
		S106.46,47.75,104.83,47.75z"/>
	<path class="st125" d="M151.4,47.75h-29.16c-1.64,0-2.96-1.33-2.96-2.96s1.33-2.96,2.96-2.96h29.16c1.64,0,2.96,1.33,2.96,2.96
		S153.04,47.75,151.4,47.75z"/>
	<path class="st125" d="M187.51,180.5H12.49c-1.64,0-2.96-1.33-2.96-2.96s1.33-2.96,2.96-2.96h175.03c1.64,0,2.96,1.33,2.96,2.96
		S189.15,180.5,187.51,180.5z"/>
</g>
</svg>
