<?xml version="1.0" encoding="utf-8"?>
<!-- Generator: Adobe Illustrator 26.2.1, SVG Export Plug-In . SVG Version: 6.00 Build 0)  -->
<svg version="1.1" id="Capa_1" xmlns="http://www.w3.org/2000/svg" xmlns:xlink="http://www.w3.org/1999/xlink" x="0px" y="0px"
	 viewBox="0 0 200 200" style="enable-background:new 0 0 200 200;" xml:space="preserve">
<style type="text/css">
	.st0{fill:url(#SVGID_1_);}
	.st1{fill:#F8F9F9;}
	.st2{filter:url(#Adobe_OpacityMaskFilter);}
	.st3{fill:url(#SVGID_00000171712502212578938580000017731475706824340872_);}
	.st4{opacity:0.14;mask:url(#SVGID_00000051359376644132733710000006927471608993775789_);}
	.st5{fill:url(#SVGID_00000044139045613253277430000009746937140816184754_);}
	.st6{fill:url(#SVGID_00000071560103884840441780000003973116737921009827_);}
	.st7{fill:url(#SVGID_00000023963586006117335910000011584858130689291925_);}
	.st8{fill:url(#SVGID_00000158016411768368385990000002527360676549327787_);}
	.st9{fill:url(#SVGID_00000060740668276646067220000018445191032227512737_);}
	.st10{fill:url(#SVGID_00000021077176708471444440000014254030766571060375_);}
	.st11{fill:url(#SVGID_00000073705357285287445270000004967264472293341060_);}
	.st12{fill:url(#SVGID_00000018923208654467618050000008789951500747588758_);}
	.st13{fill:url(#SVGID_00000016759906644908939180000017448385786425590185_);}
	.st14{fill:url(#SVGID_00000181795739210478715770000003771655888515226519_);}
	.st15{fill:url(#SVGID_00000169518793357835325130000006920564653186080946_);}
	.st16{fill:url(#SVGID_00000058572281891489866420000004248184775811728317_);}
	.st17{fill:url(#SVGID_00000099650839431171436820000010191312233180835748_);}
	.st18{fill:url(#SVGID_00000023251731435730550920000007489705895671195530_);}
	.st19{fill:url(#SVGID_00000111168250654761782820000012647436919436231601_);}
	.st20{fill:url(#SVGID_00000084527567524642698570000017427119009258801030_);}
	.st21{fill:url(#SVGID_00000127014444128174536400000017124415199617918853_);}
	.st22{fill:url(#SVGID_00000121241368732107853990000016736420679106180797_);}
	.st23{fill:url(#SVGID_00000142153994291192965480000009752968886695626146_);}
	.st24{fill:url(#SVGID_00000026139642280276020870000007820823166777165734_);}
	.st25{fill:#ECB340;}
	.st26{clip-path:url(#SVGID_00000139288198896252618550000001043138939782478520_);}
	
		.st27{opacity:0.62;clip-path:url(#SVGID_00000139288198896252618550000001043138939782478520_);fill:url(#SVGID_00000150791387621283772000000004863173413660765080_);}
	.st28{fill:url(#SVGID_00000075162200175897559920000014665041455176313227_);}
	.st29{clip-path:url(#SVGID_00000083062450502403249150000015608292996837998726_);}
	
		.st30{opacity:0.62;clip-path:url(#SVGID_00000083062450502403249150000015608292996837998726_);fill:url(#SVGID_00000140718525286416659600000004183238178444697772_);}
	.st31{fill:url(#SVGID_00000039099849433698515490000012527097065415423159_);}
	.st32{opacity:0.43;}
	.st33{clip-path:url(#SVGID_00000174599497750641347750000010504320141059570325_);}
	.st34{fill:url(#SVGID_00000182513130621207307680000011883121752133738135_);}
	.st35{fill:url(#SVGID_00000031204380456830414550000004788786264177906067_);}
	.st36{fill:url(#SVGID_00000119100365231280705080000000683997934154089118_);}
	.st37{fill:url(#SVGID_00000163790221341574346750000015442794651467348910_);}
	.st38{fill:url(#SVGID_00000085228966867342549280000009261006234886257051_);}
	.st39{fill:url(#SVGID_00000155135346939565346610000000774755793694766736_);}
	.st40{fill:url(#SVGID_00000100348590652825279930000000673174135121236376_);}
	.st41{fill:url(#SVGID_00000152255602529967408790000002116063390387165844_);}
	.st42{fill:url(#SVGID_00000027570071718021091220000011600107594581889196_);}
	.st43{fill:url(#SVGID_00000018216662353391404840000018017366805834961024_);}
	.st44{fill:url(#SVGID_00000114767344947793845800000016054738535052887218_);}
	.st45{fill:url(#SVGID_00000069371009861454263790000011846938178586874034_);}
	.st46{fill:url(#SVGID_00000171687836137930530210000010121363053481760426_);}
	.st47{fill:url(#SVGID_00000183221270399087074900000003319474630992259228_);}
	.st48{fill:url(#SVGID_00000155128027205582963910000004041969603623097268_);}
	.st49{fill:url(#SVGID_00000098942171033452726530000011751873478885969854_);}
	.st50{fill:url(#SVGID_00000045616398785777899820000002825263002522533043_);}
	.st51{fill:url(#SVGID_00000176044699244995350660000013312484145884849802_);}
	.st52{fill:url(#SVGID_00000026134829390153755300000017960605799995245491_);}
	.st53{fill:url(#SVGID_00000029017023529329478480000015572558637442568089_);}
	.st54{fill:url(#SVGID_00000155853701417543431720000005345423065997110936_);}
	.st55{fill:url(#SVGID_00000029753867774359602110000005555710542820080779_);}
	.st56{fill:url(#SVGID_00000001627912486968688960000010952572986799569801_);}
	.st57{fill:url(#SVGID_00000130648574183602016890000011647273608596904383_);}
	.st58{fill:url(#SVGID_00000038410605886200517030000015708056365817599627_);}
	.st59{fill:#606060;}
	.st60{clip-path:url(#SVGID_00000005249219812960772720000003242117694033703869_);}
	.st61{fill:url(#SVGID_00000020391209767349266190000000839058898790621088_);}
	.st62{fill:url(#SVGID_00000022540813344006607020000016258832747141415323_);}
	.st63{fill:url(#SVGID_00000071533971001862788730000009373004155072618373_);}
	.st64{fill:url(#SVGID_00000050661651252515330030000017876602803104133823_);}
	.st65{fill:url(#SVGID_00000110439830989796519300000014065648223624339076_);}
	.st66{fill:url(#SVGID_00000163054239976406199710000007532760596775681446_);}
	.st67{fill:url(#SVGID_00000046299492941123467170000001682117443769758862_);}
	.st68{fill:url(#SVGID_00000100348665758900537520000016624221391911056031_);}
	.st69{fill:url(#SVGID_00000032645190820767800670000002210713280384791707_);}
	.st70{fill:url(#SVGID_00000119801835814675669060000002398532197622918330_);}
	.st71{fill:url(#SVGID_00000094618962499269575850000016163032409978502309_);}
	.st72{fill:url(#SVGID_00000122705384277544452440000018347248117496187282_);}
	.st73{fill:url(#SVGID_00000003063859565907406530000002188436007618527396_);}
	.st74{fill:url(#SVGID_00000017476208518035355650000008054667413722001312_);}
	.st75{fill:url(#SVGID_00000041263559781149324270000015572918566301777561_);}
	.st76{fill:url(#SVGID_00000013873173347684608350000013369433645972039870_);}
	.st77{fill:url(#SVGID_00000150067792683621670960000002538400173105683348_);}
	.st78{fill:url(#SVGID_00000023990956971656444800000010599260931502627468_);}
	.st79{fill:url(#SVGID_00000143604036630965253980000017687958157461115281_);}
	.st80{fill:url(#SVGID_00000149377814975606243450000003708766067541477794_);}
	.st81{fill:url(#SVGID_00000166637115645510392180000007713480985877750197_);}
	.st82{fill:url(#SVGID_00000078727037728751960440000005175812079026830976_);}
	.st83{fill:url(#SVGID_00000008110647972938619880000009822198516821462190_);}
	.st84{fill:url(#SVGID_00000095338129308860968980000005049703732612616604_);}
	.st85{fill:url(#SVGID_00000039099476876559413350000015012170571183654791_);}
	.st86{fill:#FFFFFF;}
	.st87{clip-path:url(#SVGID_00000035514803248647922840000018003604601285928322_);}
	.st88{fill:url(#SVGID_00000029759105143310805950000003022879170253673864_);}
	.st89{fill:url(#SVGID_00000024718624774499719060000018313892966391839159_);}
	.st90{fill:url(#SVGID_00000161590878504251494970000002267186625186704561_);}
	.st91{fill:url(#SVGID_00000156571434263731046620000003213119034804740996_);}
	.st92{fill:url(#SVGID_00000030448916173909323790000000281600444207042703_);}
	.st93{fill:url(#SVGID_00000099647276857465598620000011881030097750100156_);}
	.st94{fill:url(#SVGID_00000165210281392551830650000007555703044808962227_);}
	.st95{fill:url(#SVGID_00000176022219372225148920000010531453217896808383_);}
	.st96{fill:url(#SVGID_00000044156203203230666420000007088367571985719993_);}
	.st97{fill:url(#SVGID_00000070829480255505137230000009685992508741266859_);}
	.st98{fill:url(#SVGID_00000014593545147894906680000003964365773835993228_);}
	.st99{fill:url(#SVGID_00000076577226442191076530000007959822194799068035_);}
	.st100{fill:url(#SVGID_00000072237980445503475040000006000653038788864698_);}
	.st101{fill:url(#SVGID_00000028305069748271493230000003493003761324208786_);}
	.st102{fill:url(#SVGID_00000047051585015642828790000002983888235806138023_);}
	.st103{fill:url(#SVGID_00000011004429674949420230000006358970982890587282_);}
	.st104{fill:url(#SVGID_00000094614988937628352520000012855592425196144265_);}
	.st105{fill:url(#SVGID_00000032643950517495229650000001654139891594440375_);}
	.st106{fill:url(#SVGID_00000037688502580004224520000009695548172032044733_);}
	.st107{fill:url(#SVGID_00000082347174118668140610000007385202309553140908_);}
	.st108{fill:url(#SVGID_00000130606422008459781660000002850493402052073875_);}
	.st109{fill:url(#SVGID_00000044894678857670548260000000615596094781570433_);}
	.st110{fill:url(#SVGID_00000080891296191693291280000007878541529567774337_);}
	.st111{fill:url(#SVGID_00000144324516569488851750000012884756929614523783_);}
	.st112{fill:url(#SVGID_00000019637658546760043890000000442367836898926012_);}
	.st113{fill:url(#SVGID_00000086673618902544766100000001854983310816975495_);}
	.st114{fill:url(#SVGID_00000002346814622735305410000004435063850830767241_);}
	.st115{fill:#EAC843;}
	.st116{clip-path:url(#SVGID_00000133514834936914766920000006351706694486569866_);}
	.st117{clip-path:url(#SVGID_00000103953864517422713150000007672809046898823845_);}
	.st118{clip-path:url(#SVGID_00000172436405458030513370000013438618068929726397_);}
	.st119{clip-path:url(#SVGID_00000003790173374406926950000003493016113038160263_);}
	.st120{clip-path:url(#SVGID_00000159467609603053051800000002253919668685833371_);}
	.st121{clip-path:url(#SVGID_00000060016554852093857890000006628314077510981797_);}
	.st122{clip-path:url(#SVGID_00000142157803800069251150000018145220576102147467_);}
	.st123{clip-path:url(#SVGID_00000062187428489897609410000002206962752119146920_);}
	.st124{fill:#E7E148;}
	.st125{fill:#ECB154;}
	.st126{fill:#D76031;}
	.st127{fill:url(#SVGID_00000127016398889530493360000014983590001302391214_);}
	.st128{fill:#6F6F6F;}
	.st129{fill:#F3F3F3;}
	.st130{fill:#393B52;}
	.st131{fill:#B3BA94;}
	.st132{fill:#D17C61;}
	.st133{fill:#1E0C05;}
	.st134{fill:#EE9D3B;}
	.st135{fill:#D0DEDF;}
	.st136{fill:#EDE7B0;}
	.st137{fill:none;stroke:#ECB154;stroke-width:2;stroke-miterlimit:10;}
	.st138{fill:none;stroke:url(#SVGID_00000080206626952729063790000010052979037117016490_);stroke-miterlimit:10;}
	.st139{fill:none;stroke:url(#SVGID_00000033369395311121871420000012482644704736031632_);stroke-miterlimit:10;}
	.st140{fill:none;stroke:url(#SVGID_00000029724551705965873890000015978498740133015226_);stroke-miterlimit:10;}
	.st141{fill:none;stroke:url(#SVGID_00000019647809053014928970000005414709625237531540_);stroke-miterlimit:10;}
	.st142{fill:none;stroke:url(#SVGID_00000109730997482111704720000011871303984176016525_);stroke-miterlimit:10;}
</style>
<g>
	<path class="st125" d="M170.69,118.61c-1.43,0-2.73-0.95-3.12-2.39l-15.16-55.83c-0.23-0.83-0.11-1.72,0.32-2.46
		c0.43-0.75,1.14-1.29,1.97-1.51l23.36-6.26c1.72-0.47,3.5,0.56,3.96,2.28l15.07,55.93c0.22,0.83,0.11,1.72-0.32,2.46
		c-0.43,0.75-1.14,1.29-1.97,1.51l-23.28,6.16C171.25,118.58,170.97,118.61,170.69,118.61z M159.51,61.83l13.47,49.6l17.03-4.51
		l-13.39-49.67L159.51,61.83z"/>
	<path class="st125" d="M159.76,115.33c-3.85,0-7.65-1.13-10.95-3.32l-31.46-20.88c-3.11-2.06-7.14-2.09-10.27-0.08l-11.99,7.67
		c-2.45,1.56-5.46,2-8.24,1.18c-2.79-0.82-5.09-2.8-6.31-5.44c-1.84-3.98-0.9-8.65,2.33-11.62l20.6-18.92
		c5.26-4.84,12.77-6.54,19.61-4.45l15.78,4.83c3.56,1.09,7.33,1.14,10.91,0.14l6.58-1.83c0.83-0.23,1.71-0.12,2.47,0.31
		c0.75,0.43,1.3,1.13,1.52,1.96l11.99,44.18c0.46,1.68-0.49,3.41-2.15,3.93l-4.42,1.4C163.79,115.03,161.77,115.33,159.76,115.33z
		 M112.15,83.1c3.06,0,6.12,0.88,8.78,2.65l31.46,20.88c3.39,2.25,7.55,2.84,11.43,1.61l1.46-0.46l-10.33-38.04l-3.44,0.95
		c-4.77,1.33-9.8,1.26-14.54-0.19l-15.78-4.83c-4.65-1.42-9.76-0.26-13.34,3.03l-20.6,18.93c-1.15,1.06-1.48,2.72-0.83,4.14
		c0.44,0.95,1.24,1.64,2.25,1.94c1.01,0.29,2.05,0.15,2.94-0.42l11.99-7.67C106.2,83.93,109.17,83.1,112.15,83.1z"/>
	<path class="st125" d="M47.46,118.46c-0.46,0-0.93-0.1-1.37-0.31l-14.69-6.87c-1.56-0.73-2.27-2.55-1.63-4.14l16.45-40.86
		c0.56-1.39,2.01-2.21,3.47-1.99l11.18,1.65c2.8,0.41,5.68,0.12,8.34-0.85l23.31-8.49c3.23-1.18,6.76-1.12,9.95,0.17l8.88,3.57
		c1.66,0.67,2.46,2.55,1.79,4.21c-0.67,1.66-2.55,2.46-4.21,1.79l-8.88-3.57c-1.7-0.69-3.59-0.72-5.31-0.09l-23.31,8.49
		c-3.66,1.34-7.64,1.74-11.5,1.17l-8.66-1.28l-14.36,35.65l11.91,5.57c1.62,0.76,2.32,2.68,1.56,4.3
		C49.84,117.77,48.68,118.46,47.46,118.46z"/>
	<path class="st125" d="M51.04,130.96c-1.99,0-3.92-0.61-5.57-1.78c-4.35-3.08-5.39-9.13-2.31-13.49l4.1-5.78
		c1.49-2.11,3.72-3.51,6.27-3.95c2.55-0.43,5.11,0.15,7.22,1.64c4.35,3.08,5.39,9.13,2.31,13.49l-4.09,5.78
		c-1.49,2.11-3.72,3.51-6.27,3.95C52.14,130.91,51.59,130.96,51.04,130.96z M55.16,112.29c-0.18,0-0.36,0.02-0.55,0.05
		c-0.84,0.14-1.58,0.61-2.07,1.31l-4.1,5.78c-1.02,1.44-0.68,3.44,0.76,4.47c0.7,0.49,1.55,0.69,2.39,0.54
		c0.84-0.14,1.58-0.61,2.07-1.31l4.09-5.78c1.02-1.44,0.68-3.45-0.76-4.47C56.46,112.49,55.82,112.29,55.16,112.29z"/>
	<path class="st125" d="M59.88,141.47c-1.99,0-3.99-0.59-5.73-1.82c-4.47-3.17-5.53-9.38-2.37-13.85l12.31-17.39
		c3.16-4.47,9.37-5.54,13.85-2.37c4.47,3.17,5.53,9.38,2.37,13.85L68,137.28C66.07,140.01,63,141.47,59.88,141.47z M72.21,110.69
		c-1.09,0-2.16,0.51-2.83,1.46l-12.31,17.39c-1.1,1.56-0.73,3.72,0.83,4.83c1.56,1.1,3.72,0.73,4.83-0.83l12.31-17.39
		c1.1-1.56,0.74-3.72-0.82-4.83C73.6,110.9,72.9,110.69,72.21,110.69z"/>
	<path class="st125" d="M73.73,145.1c-1.99,0-3.99-0.59-5.73-1.82c-4.47-3.17-5.53-9.38-2.37-13.85l8.78-12.41
		c3.17-4.47,9.38-5.53,13.85-2.37c2.17,1.53,3.6,3.82,4.05,6.43c0.45,2.61-0.15,5.25-1.68,7.41l-8.78,12.4
		C79.92,143.64,76.84,145.1,73.73,145.1z M82.53,119.3c-0.2,0-0.39,0.02-0.59,0.05c-0.91,0.15-1.71,0.66-2.24,1.41l-8.78,12.41
		c-0.54,0.76-0.74,1.67-0.59,2.58c0.15,0.91,0.66,1.71,1.41,2.24c1.56,1.1,3.72,0.73,4.83-0.83l8.78-12.41
		c0.54-0.76,0.74-1.67,0.59-2.58c-0.16-0.91-0.66-1.71-1.41-2.24C83.93,119.52,83.24,119.3,82.53,119.3z"/>
	<path class="st125" d="M85.81,151.95c-2.09,0-4.13-0.64-5.88-1.88c-4.59-3.25-5.68-9.63-2.43-14.23l6.91-9.76
		c1.58-2.23,3.92-3.7,6.61-4.16c2.7-0.46,5.39,0.16,7.62,1.73c2.22,1.57,3.7,3.92,4.16,6.61c0.46,2.69-0.16,5.39-1.73,7.62
		l-6.91,9.76c-1.58,2.23-3.92,3.7-6.61,4.16C86.97,151.9,86.39,151.95,85.81,151.95z M92.75,128.25c-0.21,0-0.43,0.02-0.64,0.06
		c-0.98,0.17-1.84,0.71-2.42,1.52l-6.91,9.76c-1.19,1.68-0.79,4.02,0.89,5.2c0.82,0.58,1.81,0.81,2.79,0.63
		c0.98-0.17,1.84-0.71,2.42-1.52l6.91-9.76c0.58-0.82,0.8-1.8,0.63-2.79c-0.17-0.98-0.71-1.84-1.52-2.42
		C94.26,128.48,93.52,128.25,92.75,128.25z"/>
	<path class="st125" d="M114.39,148.37c-1.1,0-2.21-0.23-3.26-0.71l-15.28-6.97c-1.63-0.74-2.34-2.66-1.6-4.29
		c0.74-1.63,2.67-2.34,4.29-1.6l15.28,6.97c0.61,0.28,1.32,0.08,1.7-0.46c0.31-0.44,0.26-0.89,0.21-1.11
		c-0.05-0.22-0.21-0.64-0.69-0.89l-8.5-4.57c-1.57-0.85-2.16-2.81-1.32-4.38c0.85-1.57,2.8-2.17,4.38-1.32l8.5,4.57
		c1.97,1.06,3.4,2.92,3.92,5.1c0.52,2.18,0.08,4.48-1.21,6.32C119.31,147.18,116.89,148.37,114.39,148.37z"/>
	<path class="st125" d="M126.58,143.86c-1.36,0-2.74-0.31-4.05-0.94l-8.38-4.09c-1.61-0.78-2.27-2.72-1.49-4.33
		c0.78-1.6,2.71-2.28,4.33-1.49l8.38,4.09c1.21,0.59,2.64,0.22,3.41-0.9c0.43-0.63,0.58-1.38,0.41-2.12
		c-0.17-0.74-0.62-1.36-1.28-1.74l-24.65-14.32c-1.55-0.9-2.07-2.88-1.17-4.42c0.9-1.55,2.88-2.07,4.42-1.17l24.65,14.32
		c2.2,1.28,3.79,3.44,4.34,5.92c0.56,2.48,0.05,5.11-1.39,7.21C132.34,142.44,129.5,143.86,126.58,143.86z"/>
	<path class="st125" d="M135.23,135.19c-1.67,0-3.32-0.44-4.81-1.31l-19.33-11.3c-1.54-0.9-2.06-2.88-1.16-4.43
		c0.9-1.54,2.88-2.07,4.43-1.16l19.33,11.3c0.72,0.43,1.57,0.53,2.38,0.31c0.81-0.22,1.48-0.75,1.88-1.49
		c0.79-1.45,0.32-3.26-1.09-4.12l-24.19-14.84c-1.52-0.94-2-2.93-1.07-4.45c0.94-1.52,2.93-2,4.45-1.07l24.19,14.84
		c4.36,2.68,5.84,8.28,3.38,12.76c-1.26,2.28-3.33,3.91-5.84,4.61C136.95,135.07,136.09,135.19,135.23,135.19z"/>
	<path class="st125" d="M144.92,126.2c-2.08,0-4.11-0.58-5.92-1.72l-9.48-5.99c-1.51-0.95-1.96-2.95-1.01-4.46s2.96-1.96,4.46-1.01
		l9.48,5.99c1.08,0.68,2.37,0.89,3.6,0.59c1.24-0.3,2.28-1.08,2.92-2.18c1.25-2.13,0.61-4.87-1.45-6.24l-16.99-11.28
		c-1.49-0.99-1.9-3-0.91-4.48c0.99-1.49,3-1.9,4.48-0.91l17,11.28c4.91,3.26,6.43,9.8,3.46,14.9c-1.54,2.63-4.02,4.48-6.97,5.2
		C146.7,126.09,145.81,126.2,144.92,126.2z"/>
	<path class="st125" d="M30.06,117.87c-0.39,0-0.78-0.07-1.16-0.22l-24.03-9.24c-0.8-0.31-1.45-0.92-1.8-1.71
		c-0.35-0.78-0.37-1.68-0.06-2.48l20.83-54.11c0.63-1.64,2.46-2.48,4.11-1.89l25.37,9.05c0.84,0.3,1.51,0.93,1.87,1.74
		c0.36,0.81,0.37,1.74,0.02,2.56l-2.99,7.13l-16.45,40.84l-2.74,6.36C32.51,117.14,31.31,117.87,30.06,117.87z M10.21,103.53
		l18.11,6.97l1.48-3.43l16.42-40.79c0.02-0.04,1.7-4.05,1.7-4.05l-19.18-6.84L10.21,103.53z"/>
</g>
</svg>
