<?xml version="1.0" encoding="utf-8"?>
<!-- Generator: Adobe Illustrator 26.2.1, SVG Export Plug-In . SVG Version: 6.00 Build 0)  -->
<svg version="1.1" id="Capa_1" xmlns="http://www.w3.org/2000/svg" xmlns:xlink="http://www.w3.org/1999/xlink" x="0px" y="0px"
	 viewBox="0 0 300 158" style="enable-background:new 0 0 300 158;" xml:space="preserve">
<style type="text/css">
	.st0{fill:url(#SVGID_1_);}
	.st1{fill:#F8F9F9;}
	.st2{filter:url(#Adobe_OpacityMaskFilter);}
	.st3{fill:url(#SVGID_00000052106297601120261550000013892268095733801651_);}
	.st4{opacity:0.14;mask:url(#SVGID_00000142175208580650446910000017072636217613235391_);}
	.st5{fill:url(#SVGID_00000029042856666462924650000000544359072855772054_);}
	.st6{fill:url(#SVGID_00000160153111954692562690000008334575619122992777_);}
	.st7{fill:url(#SVGID_00000167361826940071274800000017169423245156208028_);}
	.st8{fill:url(#SVGID_00000057146016081765000110000003647482149028694158_);}
	.st9{fill:url(#SVGID_00000155837501764288251050000017722651679788381616_);}
	.st10{fill:url(#SVGID_00000152942577837382148960000014005223456259928488_);}
	.st11{fill:url(#SVGID_00000009549261962776759420000006020633717403963311_);}
	.st12{fill:url(#SVGID_00000034056426430182589220000017890158861871041454_);}
	.st13{fill:url(#SVGID_00000008134361970327942890000011015803578351167151_);}
	.st14{fill:url(#SVGID_00000178891155354966878350000009304984393407915705_);}
	.st15{fill:url(#SVGID_00000039096625727742312570000004266582094209840308_);}
	.st16{fill:url(#SVGID_00000011709611235162939870000011801068522446907804_);}
	.st17{fill:url(#SVGID_00000133490994966340992020000009274014962499987852_);}
	.st18{fill:url(#SVGID_00000058561568493379631330000005579982535525432450_);}
	.st19{fill:url(#SVGID_00000026137433463064406530000006202940988815347097_);}
	.st20{fill:url(#SVGID_00000111870160302798245300000010597290675533712572_);}
	.st21{fill:url(#SVGID_00000093143355964275586950000015677554818183058588_);}
	.st22{fill:url(#SVGID_00000125593043014372238380000007324033586712188294_);}
	.st23{fill:url(#SVGID_00000063592817959373934020000001081666337419032727_);}
	.st24{fill:url(#SVGID_00000029048049508861868280000007499217364010390175_);}
	.st25{fill:#ECB340;}
	.st26{clip-path:url(#SVGID_00000131339047202988626630000015219055956339832472_);}
	
		.st27{opacity:0.62;clip-path:url(#SVGID_00000131339047202988626630000015219055956339832472_);fill:url(#SVGID_00000051348782199320947730000006939000278511274905_);}
	.st28{fill:url(#SVGID_00000160912427509560014770000018097341397167113089_);}
	.st29{clip-path:url(#SVGID_00000009552892806578630380000004184285685761098431_);}
	
		.st30{opacity:0.62;clip-path:url(#SVGID_00000009552892806578630380000004184285685761098431_);fill:url(#SVGID_00000107568992330863175580000009263165974707947939_);}
	.st31{fill:url(#SVGID_00000083072154233997703450000015249227337243251134_);}
	.st32{opacity:0.43;}
	.st33{clip-path:url(#SVGID_00000055681942859797937720000002427355156388532612_);}
	.st34{fill:url(#SVGID_00000181063019373415078650000003284986565640999048_);}
	.st35{fill:url(#SVGID_00000145768827634329797350000000727820089471645851_);}
	.st36{fill:url(#SVGID_00000094586697849035967460000006738872499366530975_);}
	.st37{fill:url(#SVGID_00000155828030450659448820000003045434697440976293_);}
	.st38{fill:url(#SVGID_00000138554333451797570370000011506056393710101912_);}
	.st39{fill:url(#SVGID_00000122703846549990597560000014994028502725494934_);}
	.st40{fill:url(#SVGID_00000014598700351252460510000005197955163820374915_);}
	.st41{fill:url(#SVGID_00000140717695377652081190000003942022048331642012_);}
	.st42{fill:url(#SVGID_00000086682500547229388860000016118877937522051226_);}
	.st43{fill:url(#SVGID_00000134960157346611382200000006942351038002747286_);}
	.st44{fill:url(#SVGID_00000034053444863849268860000011713463764004548751_);}
	.st45{fill:url(#SVGID_00000183244514546917042860000005936597890817754298_);}
	.st46{fill:url(#SVGID_00000122681522233594058910000005793015931369215112_);}
	.st47{fill:url(#SVGID_00000168818772684745806910000014975242952409318064_);}
	.st48{fill:url(#SVGID_00000093884886935478149060000012464721100530374575_);}
	.st49{fill:url(#SVGID_00000000925121144568538860000017163112193724079545_);}
	.st50{fill:url(#SVGID_00000158724772018554716850000001489151500701890952_);}
	.st51{fill:url(#SVGID_00000153707251983747147720000000746221807534155909_);}
	.st52{fill:url(#SVGID_00000096044144652177864830000018298206682923988144_);}
	.st53{fill:url(#SVGID_00000142868777022542436000000002953598781294601654_);}
	.st54{fill:url(#SVGID_00000159432807866645312430000013304365604792816301_);}
	.st55{fill:url(#SVGID_00000013893369212211519920000011345281865880260754_);}
	.st56{fill:url(#SVGID_00000171690480020512647870000011587409289541566894_);}
	.st57{fill:url(#SVGID_00000005265642201894249600000014648975073287047839_);}
	.st58{fill:url(#SVGID_00000091016028935630222260000003506995877409562027_);}
	.st59{fill:#606060;}
	.st60{clip-path:url(#SVGID_00000183208049557902368380000011991822895672939410_);}
	.st61{fill:url(#SVGID_00000149352746221192843700000008948845358190074765_);}
	.st62{fill:url(#SVGID_00000118387018006169767660000005540509699798357417_);}
	.st63{fill:url(#SVGID_00000000913565255493764440000001389236653974992264_);}
	.st64{fill:url(#SVGID_00000003790871966904897490000005963071167755595928_);}
	.st65{fill:url(#SVGID_00000072276109633224330800000011559368398679250855_);}
	.st66{fill:url(#SVGID_00000116929608982996253980000015656240851314811009_);}
	.st67{fill:url(#SVGID_00000132049062327183327910000013701676623421993913_);}
	.st68{fill:url(#SVGID_00000095336172015903876300000000034548654571377552_);}
	.st69{fill:url(#SVGID_00000029750470595182701540000000079378156927047085_);}
	.st70{fill:url(#SVGID_00000060025988947664964870000014311638565291602055_);}
	.st71{fill:url(#SVGID_00000114788389597614304930000008276753759273023908_);}
	.st72{fill:url(#SVGID_00000054956850013735195090000000679152453218450565_);}
	.st73{fill:url(#SVGID_00000011010311215930885980000001686630114461430429_);}
	.st74{fill:url(#SVGID_00000159461062103233783500000002925504525587294645_);}
	.st75{fill:url(#SVGID_00000053545760643448041330000016278723764036992392_);}
	.st76{fill:url(#SVGID_00000103243294241607262040000002721693757228767105_);}
	.st77{fill:url(#SVGID_00000123407606689974719910000007137142336390433968_);}
	.st78{fill:url(#SVGID_00000120533549441016161670000017580322618028012977_);}
	.st79{fill:url(#SVGID_00000094584085768148862200000012828630154292098981_);}
	.st80{fill:url(#SVGID_00000133487858822054422000000011282259719956977556_);}
	.st81{fill:url(#SVGID_00000017487829761511964900000001669000840728192702_);}
	.st82{fill:url(#SVGID_00000050635612377097664160000014796746973808281734_);}
	.st83{fill:url(#SVGID_00000168816474734206468650000015458988105802417289_);}
	.st84{fill:url(#SVGID_00000152979379975809836360000007856211598539279273_);}
	.st85{fill:url(#SVGID_00000036216913068565604800000018002393075599641232_);}
	.st86{fill:#FFFFFF;}
	.st87{clip-path:url(#SVGID_00000068669078244016888740000011572480818840762534_);}
	.st88{fill:url(#SVGID_00000108267301039260994960000004253570778959703484_);}
	.st89{fill:url(#SVGID_00000039093307103358829510000013397407083889901200_);}
	.st90{fill:url(#SVGID_00000048492856980048182500000010858210975826025641_);}
	.st91{fill:url(#SVGID_00000051376907162666973450000007659340291967822726_);}
	.st92{fill:url(#SVGID_00000168110150344055379100000013941591974169869229_);}
	.st93{fill:url(#SVGID_00000163781890340241102930000011521434257178504618_);}
	.st94{fill:url(#SVGID_00000017494567300090928710000003987223173691618193_);}
	.st95{fill:url(#SVGID_00000114040765190120302850000003485564210163755922_);}
	.st96{fill:url(#SVGID_00000107573789408034361240000013885481275511299249_);}
	.st97{fill:url(#SVGID_00000173121302669569889790000009547041083636043917_);}
	.st98{fill:url(#SVGID_00000145041255628912643700000002257994048615417273_);}
	.st99{fill:url(#SVGID_00000169557411770754183530000004380215438088080570_);}
	.st100{fill:url(#SVGID_00000034061636398297868970000017877420139180307629_);}
	.st101{fill:url(#SVGID_00000115484346380786651220000005491371230055991205_);}
	.st102{fill:url(#SVGID_00000176758602584605195560000003735492323754874777_);}
	.st103{fill:url(#SVGID_00000083790525734337180600000013696962833547311249_);}
	.st104{fill:url(#SVGID_00000163047815564988831430000009722562685942159489_);}
	.st105{fill:url(#SVGID_00000119819209039798573840000016404301757649885074_);}
	.st106{fill:url(#SVGID_00000002369667180831462360000005414040120829923745_);}
	.st107{fill:url(#SVGID_00000085228104000538260890000003538178434198852776_);}
	.st108{fill:url(#SVGID_00000054224967167437861400000001833545273252842175_);}
	.st109{fill:url(#SVGID_00000026155690054228696080000001687318933504396184_);}
	.st110{fill:url(#SVGID_00000116217070613093715010000006936467679035936687_);}
	.st111{fill:url(#SVGID_00000032621153857976852840000009328151124289859990_);}
	.st112{fill:url(#SVGID_00000155832831424952277200000015811718711887237764_);}
	.st113{fill:url(#SVGID_00000165231815371475286980000006473636868072016278_);}
	.st114{fill:url(#SVGID_00000020399289212572639130000000915332549664222123_);}
	.st115{fill:#EAC843;}
	.st116{clip-path:url(#SVGID_00000120560565094947476220000007374036992655230338_);}
	.st117{clip-path:url(#SVGID_00000029734274553299462460000014027858958640804000_);}
	.st118{clip-path:url(#SVGID_00000106117646869824565790000015955597805536961193_);}
	.st119{clip-path:url(#SVGID_00000058555680091919470050000007426951154270975397_);}
	.st120{clip-path:url(#SVGID_00000065780851103503420380000017053447654385610932_);}
	.st121{clip-path:url(#SVGID_00000023281417309013269650000010064465498848362402_);}
	.st122{clip-path:url(#SVGID_00000126325476009331453200000003672287531175836065_);}
	.st123{clip-path:url(#SVGID_00000010306967560429630600000005247297010385986751_);}
	.st124{fill:#E7E148;}
	.st125{fill:#ECB154;}
	.st126{fill:#D76031;}
	.st127{fill:url(#SVGID_00000182521796508881132410000016726855952602516387_);}
	.st128{fill:#6F6F6F;}
	.st129{fill:#F3F3F3;}
	.st130{fill:#393B52;}
	.st131{fill:#B3BA94;}
	.st132{fill:#D17C61;}
	.st133{fill:#1E0C05;}
	.st134{fill:#EE9D3B;}
	.st135{fill:#D0DEDF;}
	.st136{fill:#EDE7B0;}
	.st137{fill:none;stroke:#ECB154;stroke-width:2;stroke-miterlimit:10;}
	.st138{fill:none;stroke:url(#SVGID_00000072276664271412524200000000573079465235403914_);stroke-miterlimit:10;}
	.st139{fill:none;stroke:url(#SVGID_00000031191030041794450400000010845378538321124013_);stroke-miterlimit:10;}
	.st140{fill:none;stroke:url(#SVGID_00000160149450330694925080000010921604348669681795_);stroke-miterlimit:10;}
	.st141{fill:none;stroke:url(#SVGID_00000072960538814118707230000015569652794174494878_);stroke-miterlimit:10;}
	.st142{fill:none;stroke:url(#SVGID_00000008844883540624206000000013081566859532610463_);stroke-miterlimit:10;}
</style>
<g>
	<g>
		<g>
			<g>
				<defs>
					<path id="SVGID_00000183963162186902859440000017316981914787733424_" d="M27.95,89.77c0-14.02,8.26-23.24,18.99-30.64
						L44.8,43.37l-21.39-5.61l4.54,52.63C27.95,90.19,27.95,89.98,27.95,89.77z"/>
				</defs>
				<clipPath id="SVGID_00000114764724840012192650000009478738700647393418_">
					<use xlink:href="#SVGID_00000183963162186902859440000017316981914787733424_"  style="overflow:visible;"/>
				</clipPath>
				<g style="clip-path:url(#SVGID_00000114764724840012192650000009478738700647393418_);">
					
						<linearGradient id="SVGID_1_" gradientUnits="userSpaceOnUse" x1="333.1513" y1="-971.2108" x2="344.5784" y2="-981.0194" gradientTransform="matrix(0.8318 0.546 -0.0518 1.1682 -306.7338 995.6277)">
						<stop  offset="0" style="stop-color:#D76031"/>
						<stop  offset="0.9963" style="stop-color:#ECB340"/>
					</linearGradient>
					<path class="st0" d="M28.09,44.9l-4.24-1.26c-0.74-0.22-1.34-1.12-1.32-2.01l0.12-5.02c0.02-0.88,0.65-1.42,1.39-1.2l4.24,1.26
						c0.74,0.22,1.34,1.12,1.32,2.01l-0.12,5.02C29.46,44.58,28.84,45.12,28.09,44.9z"/>
					
						<linearGradient id="SVGID_00000141454855853551285670000018278039480996674695_" gradientUnits="userSpaceOnUse" x1="342.466" y1="-973.5563" x2="353.8931" y2="-983.3649" gradientTransform="matrix(0.8318 0.546 -0.0518 1.1682 -306.7338 995.6277)">
						<stop  offset="0" style="stop-color:#D76031"/>
						<stop  offset="0.9963" style="stop-color:#ECB340"/>
					</linearGradient>
					<path style="fill:url(#SVGID_00000141454855853551285670000018278039480996674695_);" d="M35.96,47.24l-4.24-1.26
						c-0.74-0.22-1.34-1.12-1.32-2.01l0.12-5.02c0.02-0.88,0.65-1.42,1.39-1.2l4.24,1.26c0.74,0.22,1.34,1.12,1.32,2.01l-0.12,5.02
						C37.33,46.93,36.7,47.47,35.96,47.24z"/>
					
						<linearGradient id="SVGID_00000136374388585745885740000012951766118682370451_" gradientUnits="userSpaceOnUse" x1="351.7807" y1="-975.9017" x2="363.2077" y2="-985.7103" gradientTransform="matrix(0.8318 0.546 -0.0518 1.1682 -306.7338 995.6277)">
						<stop  offset="0" style="stop-color:#D76031"/>
						<stop  offset="0.9963" style="stop-color:#ECB340"/>
					</linearGradient>
					<path style="fill:url(#SVGID_00000136374388585745885740000012951766118682370451_);" d="M43.83,49.59l-4.24-1.26
						c-0.74-0.22-1.34-1.12-1.32-2.01l0.12-5.02c0.02-0.88,0.65-1.42,1.39-1.2l4.24,1.26c0.74,0.22,1.34,1.12,1.32,2.01l-0.12,5.02
						C45.2,49.27,44.57,49.81,43.83,49.59z"/>
					
						<linearGradient id="SVGID_00000044137117622274419860000013039909370636114092_" gradientUnits="userSpaceOnUse" x1="361.0954" y1="-978.2471" x2="372.5224" y2="-988.0558" gradientTransform="matrix(0.8318 0.546 -0.0518 1.1682 -306.7338 995.6277)">
						<stop  offset="0" style="stop-color:#D76031"/>
						<stop  offset="0.9963" style="stop-color:#ECB340"/>
					</linearGradient>
					<path style="fill:url(#SVGID_00000044137117622274419860000013039909370636114092_);" d="M51.7,51.93l-4.24-1.26
						c-0.74-0.22-1.34-1.12-1.32-2.01l0.12-5.02c0.02-0.88,0.65-1.42,1.39-1.2l4.24,1.26c0.74,0.22,1.34,1.12,1.32,2.01l-0.12,5.02
						C53.07,51.62,52.44,52.16,51.7,51.93z"/>
					
						<linearGradient id="SVGID_00000169522363006929303620000010463652289576061346_" gradientUnits="userSpaceOnUse" x1="333.3808" y1="-963.0979" x2="344.8079" y2="-972.9066" gradientTransform="matrix(0.8318 0.546 -0.0518 1.1682 -306.7338 995.6277)">
						<stop  offset="0" style="stop-color:#D76031"/>
						<stop  offset="0.9963" style="stop-color:#ECB340"/>
					</linearGradient>
					<path style="fill:url(#SVGID_00000169522363006929303620000010463652289576061346_);" d="M27.86,54.5l-4.24-1.26
						c-0.74-0.22-1.34-1.12-1.32-2.01l0.12-5.02c0.02-0.88,0.65-1.42,1.39-1.2l4.24,1.26c0.74,0.22,1.34,1.12,1.32,2.01l-0.12,5.02
						C29.23,54.18,28.61,54.72,27.86,54.5z"/>
					
						<linearGradient id="SVGID_00000023976789850225022160000007121335744507760264_" gradientUnits="userSpaceOnUse" x1="342.6955" y1="-965.4434" x2="354.1226" y2="-975.252" gradientTransform="matrix(0.8318 0.546 -0.0518 1.1682 -306.7338 995.6277)">
						<stop  offset="0" style="stop-color:#D76031"/>
						<stop  offset="0.9963" style="stop-color:#ECB340"/>
					</linearGradient>
					<path style="fill:url(#SVGID_00000023976789850225022160000007121335744507760264_);" d="M35.73,56.85l-4.24-1.26
						c-0.74-0.22-1.34-1.12-1.32-2.01l0.12-5.02c0.02-0.88,0.65-1.42,1.39-1.2l4.24,1.26c0.74,0.22,1.34,1.12,1.32,2.01l-0.12,5.02
						C37.1,56.53,36.48,57.07,35.73,56.85z"/>
					
						<linearGradient id="SVGID_00000062882987402934878280000004863397385690677938_" gradientUnits="userSpaceOnUse" x1="352.0102" y1="-967.7888" x2="363.4372" y2="-977.5974" gradientTransform="matrix(0.8318 0.546 -0.0518 1.1682 -306.7338 995.6277)">
						<stop  offset="0" style="stop-color:#D76031"/>
						<stop  offset="0.9963" style="stop-color:#ECB340"/>
					</linearGradient>
					<path style="fill:url(#SVGID_00000062882987402934878280000004863397385690677938_);" d="M43.6,59.19l-4.24-1.26
						c-0.74-0.22-1.34-1.12-1.32-2.01l0.12-5.02c0.02-0.88,0.65-1.42,1.39-1.2l4.24,1.26c0.74,0.22,1.34,1.12,1.32,2.01l-0.12,5.02
						C44.97,58.87,44.34,59.41,43.6,59.19z"/>
					
						<linearGradient id="SVGID_00000047037281767946225680000010064446366118738323_" gradientUnits="userSpaceOnUse" x1="361.3249" y1="-970.1343" x2="372.7519" y2="-979.9429" gradientTransform="matrix(0.8318 0.546 -0.0518 1.1682 -306.7338 995.6277)">
						<stop  offset="0" style="stop-color:#D76031"/>
						<stop  offset="0.9963" style="stop-color:#ECB340"/>
					</linearGradient>
					<path style="fill:url(#SVGID_00000047037281767946225680000010064446366118738323_);" d="M51.47,61.54l-4.24-1.26
						c-0.74-0.22-1.34-1.12-1.32-2.01l0.12-5.02c0.02-0.88,0.65-1.42,1.39-1.2l4.24,1.26c0.74,0.22,1.34,1.12,1.32,2.01l-0.12,5.02
						C52.84,61.22,52.21,61.76,51.47,61.54z"/>
					
						<linearGradient id="SVGID_00000099653147850560469100000008983388600543845791_" gradientUnits="userSpaceOnUse" x1="333.6103" y1="-954.985" x2="345.0374" y2="-964.7936" gradientTransform="matrix(0.8318 0.546 -0.0518 1.1682 -306.7338 995.6277)">
						<stop  offset="0" style="stop-color:#D76031"/>
						<stop  offset="0.9963" style="stop-color:#ECB340"/>
					</linearGradient>
					<path style="fill:url(#SVGID_00000099653147850560469100000008983388600543845791_);" d="M27.63,64.1l-4.24-1.26
						c-0.74-0.22-1.34-1.12-1.32-2.01l0.12-5.02c0.02-0.88,0.65-1.42,1.39-1.2l4.24,1.26c0.74,0.22,1.34,1.12,1.32,2.01l-0.12,5.02
						C29,63.79,28.38,64.33,27.63,64.1z"/>
					
						<linearGradient id="SVGID_00000003809901179030583840000007809179831761847959_" gradientUnits="userSpaceOnUse" x1="342.925" y1="-957.3304" x2="354.3521" y2="-967.1391" gradientTransform="matrix(0.8318 0.546 -0.0518 1.1682 -306.7338 995.6277)">
						<stop  offset="0" style="stop-color:#D76031"/>
						<stop  offset="0.9963" style="stop-color:#ECB340"/>
					</linearGradient>
					<path style="fill:url(#SVGID_00000003809901179030583840000007809179831761847959_);" d="M35.5,66.45l-4.24-1.26
						c-0.74-0.22-1.34-1.12-1.32-2.01l0.12-5.02c0.02-0.88,0.65-1.42,1.39-1.2l4.24,1.26c0.74,0.22,1.34,1.12,1.32,2.01l-0.12,5.02
						C36.87,66.13,36.25,66.67,35.5,66.45z"/>
					
						<linearGradient id="SVGID_00000090254191523079062900000008575542484375545743_" gradientUnits="userSpaceOnUse" x1="352.2397" y1="-959.6759" x2="363.6667" y2="-969.4846" gradientTransform="matrix(0.8318 0.546 -0.0518 1.1682 -306.7338 995.6277)">
						<stop  offset="0" style="stop-color:#D76031"/>
						<stop  offset="0.9963" style="stop-color:#ECB340"/>
					</linearGradient>
					<path style="fill:url(#SVGID_00000090254191523079062900000008575542484375545743_);" d="M43.37,68.79l-4.24-1.26
						c-0.74-0.22-1.34-1.12-1.32-2.01l0.12-5.02c0.02-0.88,0.65-1.42,1.39-1.2l4.24,1.26c0.74,0.22,1.34,1.12,1.32,2.01l-0.12,5.02
						C44.74,68.48,44.12,69.02,43.37,68.79z"/>
					
						<linearGradient id="SVGID_00000083807675214803743440000008592741889976359323_" gradientUnits="userSpaceOnUse" x1="361.5544" y1="-962.0214" x2="372.9814" y2="-971.83" gradientTransform="matrix(0.8318 0.546 -0.0518 1.1682 -306.7338 995.6277)">
						<stop  offset="0" style="stop-color:#D76031"/>
						<stop  offset="0.9963" style="stop-color:#ECB340"/>
					</linearGradient>
					<path style="fill:url(#SVGID_00000083807675214803743440000008592741889976359323_);" d="M51.24,71.14L47,69.88
						c-0.74-0.22-1.34-1.12-1.32-2.01l0.12-5.02c0.02-0.88,0.65-1.42,1.39-1.2l4.24,1.26c0.74,0.22,1.34,1.12,1.32,2.01l-0.12,5.02
						C52.61,70.82,51.98,71.36,51.24,71.14z"/>
					
						<linearGradient id="SVGID_00000007417132470171264610000015965531758080106674_" gradientUnits="userSpaceOnUse" x1="333.8398" y1="-946.8721" x2="345.2669" y2="-956.6807" gradientTransform="matrix(0.8318 0.546 -0.0518 1.1682 -306.7338 995.6277)">
						<stop  offset="0" style="stop-color:#D76031"/>
						<stop  offset="0.9963" style="stop-color:#ECB340"/>
					</linearGradient>
					<path style="fill:url(#SVGID_00000007417132470171264610000015965531758080106674_);" d="M27.4,73.71l-4.24-1.26
						c-0.74-0.22-1.34-1.12-1.32-2.01l0.12-5.02c0.02-0.88,0.65-1.42,1.39-1.2l4.24,1.26c0.74,0.22,1.34,1.12,1.32,2.01l-0.12,5.02
						C28.77,73.39,28.15,73.93,27.4,73.71z"/>
					
						<linearGradient id="SVGID_00000183250492710893852920000004238959199484835217_" gradientUnits="userSpaceOnUse" x1="343.1545" y1="-949.2176" x2="354.5815" y2="-959.0262" gradientTransform="matrix(0.8318 0.546 -0.0518 1.1682 -306.7338 995.6277)">
						<stop  offset="0" style="stop-color:#D76031"/>
						<stop  offset="0.9963" style="stop-color:#ECB340"/>
					</linearGradient>
					<path style="fill:url(#SVGID_00000183250492710893852920000004238959199484835217_);" d="M35.27,76.05l-4.24-1.26
						c-0.74-0.22-1.34-1.12-1.32-2.01l0.12-5.02c0.02-0.88,0.65-1.42,1.39-1.2l4.24,1.26c0.74,0.22,1.34,1.12,1.32,2.01l-0.12,5.02
						C36.64,75.73,36.02,76.27,35.27,76.05z"/>
					
						<linearGradient id="SVGID_00000073002744811220358330000016340218171633163426_" gradientUnits="userSpaceOnUse" x1="352.4692" y1="-951.563" x2="363.8962" y2="-961.3716" gradientTransform="matrix(0.8318 0.546 -0.0518 1.1682 -306.7338 995.6277)">
						<stop  offset="0" style="stop-color:#D76031"/>
						<stop  offset="0.9963" style="stop-color:#ECB340"/>
					</linearGradient>
					<path style="fill:url(#SVGID_00000073002744811220358330000016340218171633163426_);" d="M43.14,78.4l-4.24-1.26
						c-0.74-0.22-1.34-1.12-1.32-2.01l0.12-5.02c0.02-0.88,0.65-1.42,1.39-1.2l4.24,1.26c0.74,0.22,1.34,1.12,1.32,2.01l-0.12,5.02
						C44.51,78.08,43.89,78.62,43.14,78.4z"/>
					
						<linearGradient id="SVGID_00000015335620428796611720000009384142423139987337_" gradientUnits="userSpaceOnUse" x1="361.7839" y1="-953.9084" x2="373.2109" y2="-963.7171" gradientTransform="matrix(0.8318 0.546 -0.0518 1.1682 -306.7338 995.6277)">
						<stop  offset="0" style="stop-color:#D76031"/>
						<stop  offset="0.9963" style="stop-color:#ECB340"/>
					</linearGradient>
					<path style="fill:url(#SVGID_00000015335620428796611720000009384142423139987337_);" d="M51.01,80.74l-4.24-1.26
						c-0.74-0.22-1.34-1.12-1.32-2.01l0.12-5.02c0.02-0.88,0.65-1.42,1.39-1.2l4.24,1.26c0.74,0.22,1.34,1.12,1.32,2.01l-0.12,5.02
						C52.38,80.43,51.76,80.97,51.01,80.74z"/>
					
						<linearGradient id="SVGID_00000142167834935021218470000016146666128204075707_" gradientUnits="userSpaceOnUse" x1="334.0693" y1="-938.7592" x2="345.4964" y2="-948.5679" gradientTransform="matrix(0.8318 0.546 -0.0518 1.1682 -306.7338 995.6277)">
						<stop  offset="0" style="stop-color:#D76031"/>
						<stop  offset="0.9963" style="stop-color:#ECB340"/>
					</linearGradient>
					<path style="fill:url(#SVGID_00000142167834935021218470000016146666128204075707_);" d="M27.17,83.31l-4.24-1.26
						c-0.74-0.22-1.34-1.12-1.32-2.01l0.12-5.02c0.02-0.88,0.65-1.42,1.39-1.2l4.24,1.26c0.74,0.22,1.34,1.12,1.32,2.01l-0.12,5.02
						C28.54,82.99,27.92,83.53,27.17,83.31z"/>
					
						<linearGradient id="SVGID_00000091697458655382623640000012335202061718794153_" gradientUnits="userSpaceOnUse" x1="343.384" y1="-941.1047" x2="354.8111" y2="-950.9133" gradientTransform="matrix(0.8318 0.546 -0.0518 1.1682 -306.7338 995.6277)">
						<stop  offset="0" style="stop-color:#D76031"/>
						<stop  offset="0.9963" style="stop-color:#ECB340"/>
					</linearGradient>
					<path style="fill:url(#SVGID_00000091697458655382623640000012335202061718794153_);" d="M35.04,85.65l-4.24-1.26
						c-0.74-0.22-1.34-1.12-1.32-2.01l0.12-5.02c0.02-0.88,0.65-1.42,1.39-1.2l4.24,1.26c0.74,0.22,1.34,1.12,1.32,2.01l-0.12,5.02
						C36.41,85.34,35.79,85.88,35.04,85.65z"/>
					
						<linearGradient id="SVGID_00000102538322681257767610000011620931537148983984_" gradientUnits="userSpaceOnUse" x1="352.6987" y1="-943.4501" x2="364.1257" y2="-953.2587" gradientTransform="matrix(0.8318 0.546 -0.0518 1.1682 -306.7338 995.6277)">
						<stop  offset="0" style="stop-color:#D76031"/>
						<stop  offset="0.9963" style="stop-color:#ECB340"/>
					</linearGradient>
					<path style="fill:url(#SVGID_00000102538322681257767610000011620931537148983984_);" d="M42.91,88l-4.24-1.26
						c-0.74-0.22-1.34-1.12-1.32-2.01l0.12-5.02c0.02-0.88,0.65-1.42,1.39-1.2l4.24,1.26c0.74,0.22,1.34,1.12,1.32,2.01L44.3,86.8
						C44.28,87.68,43.66,88.22,42.91,88z"/>
					
						<linearGradient id="SVGID_00000165202800737240874330000008106873974327143296_" gradientUnits="userSpaceOnUse" x1="362.0134" y1="-945.7956" x2="373.4404" y2="-955.6042" gradientTransform="matrix(0.8318 0.546 -0.0518 1.1682 -306.7338 995.6277)">
						<stop  offset="0" style="stop-color:#D76031"/>
						<stop  offset="0.9963" style="stop-color:#ECB340"/>
					</linearGradient>
					<path style="fill:url(#SVGID_00000165202800737240874330000008106873974327143296_);" d="M50.78,90.35l-4.24-1.26
						c-0.74-0.22-1.34-1.12-1.32-2.01l0.12-5.02c0.02-0.88,0.65-1.42,1.39-1.2l4.24,1.26c0.74,0.22,1.34,1.12,1.32,2.01l-0.12,5.02
						C52.15,90.03,51.53,90.57,50.78,90.35z"/>
					
						<linearGradient id="SVGID_00000096053197381629608790000012966141373468051599_" gradientUnits="userSpaceOnUse" x1="334.5663" y1="-930.7819" x2="345.9933" y2="-940.5906" gradientTransform="matrix(0.8318 0.546 -0.0518 1.1682 -306.7338 995.6277)">
						<stop  offset="0" style="stop-color:#D76031"/>
						<stop  offset="0.9963" style="stop-color:#ECB340"/>
					</linearGradient>
					<path style="fill:url(#SVGID_00000096053197381629608790000012966141373468051599_);" d="M27.17,92.9l-4.24-1.26
						c-0.74-0.22-1.34-1.12-1.32-2.01l0.12-5.02c0.02-0.88,0.65-1.42,1.39-1.2l4.24,1.26c0.74,0.22,1.34,1.12,1.32,2.01l-0.12,5.02
						C28.54,92.58,27.92,93.12,27.17,92.9z"/>
					
						<linearGradient id="SVGID_00000158748711930991050900000003687362339428565685_" gradientUnits="userSpaceOnUse" x1="343.881" y1="-933.1274" x2="355.308" y2="-942.936" gradientTransform="matrix(0.8318 0.546 -0.0518 1.1682 -306.7338 995.6277)">
						<stop  offset="0" style="stop-color:#D76031"/>
						<stop  offset="0.9963" style="stop-color:#ECB340"/>
					</linearGradient>
					<path style="fill:url(#SVGID_00000158748711930991050900000003687362339428565685_);" d="M35.04,95.25l-4.24-1.26
						c-0.74-0.22-1.34-1.12-1.32-2.01l0.12-5.02c0.02-0.88,0.65-1.42,1.39-1.2l4.24,1.26c0.74,0.22,1.34,1.12,1.32,2.01l-0.12,5.02
						C36.41,94.93,35.79,95.47,35.04,95.25z"/>
					
						<linearGradient id="SVGID_00000058583648808348271320000018111551134545499558_" gradientUnits="userSpaceOnUse" x1="353.1957" y1="-935.4728" x2="364.6227" y2="-945.2815" gradientTransform="matrix(0.8318 0.546 -0.0518 1.1682 -306.7338 995.6277)">
						<stop  offset="0" style="stop-color:#D76031"/>
						<stop  offset="0.9963" style="stop-color:#ECB340"/>
					</linearGradient>
					<path style="fill:url(#SVGID_00000058583648808348271320000018111551134545499558_);" d="M42.91,97.59l-4.24-1.26
						c-0.74-0.22-1.34-1.12-1.32-2.01l0.12-5.02c0.02-0.88,0.65-1.42,1.39-1.2l4.24,1.26c0.74,0.22,1.34,1.12,1.32,2.01l-0.12,5.02
						C44.28,97.27,43.66,97.81,42.91,97.59z"/>
					
						<linearGradient id="SVGID_00000111910119879643267850000010778898295807966383_" gradientUnits="userSpaceOnUse" x1="362.5103" y1="-937.8183" x2="373.9374" y2="-947.627" gradientTransform="matrix(0.8318 0.546 -0.0518 1.1682 -306.7338 995.6277)">
						<stop  offset="0" style="stop-color:#D76031"/>
						<stop  offset="0.9963" style="stop-color:#ECB340"/>
					</linearGradient>
					<path style="fill:url(#SVGID_00000111910119879643267850000010778898295807966383_);" d="M50.78,99.94l-4.24-1.26
						c-0.74-0.22-1.34-1.12-1.32-2.01l0.12-5.02c0.02-0.88,0.65-1.42,1.39-1.2l4.24,1.26c0.74,0.22,1.34,1.12,1.32,2.01l-0.12,5.02
						C52.15,99.62,51.53,100.16,50.78,99.94z"/>
				</g>
			</g>
		</g>
		
			<linearGradient id="SVGID_00000078742248689670384700000014996171602282517669_" gradientUnits="userSpaceOnUse" x1="27.8091" y1="88.6855" x2="92.3316" y2="88.6855">
			<stop  offset="0" style="stop-color:#ECB154"/>
			<stop  offset="1" style="stop-color:#E7E148"/>
		</linearGradient>
		<path style="fill:url(#SVGID_00000078742248689670384700000014996171602282517669_);" d="M60.07,56.42
			c-11.15,0-16,4.18-21.83,9.94c-5.92,5.85-10.44,13.34-10.44,22.32c0,17.82,14.44,32.26,32.26,32.26
			c17.82,0,32.26-14.44,32.26-32.26C92.33,70.87,77.89,56.42,60.07,56.42z M60.07,104.66c-8.82,0-15.97-7.15-15.97-15.97
			c0-8.82,7.15-15.97,15.97-15.97c8.82,0,15.97,7.15,15.97,15.97C76.04,97.51,68.89,104.66,60.07,104.66z"/>
	</g>
	<g>
		<g>
			<path class="st59" d="M120.78,78.84c-4.5,0-7.7-1.05-10.6-3.95l2.99-2.99c2.19,2.19,4.67,2.9,7.7,2.9c3.95,0,6.18-1.68,6.18-4.63
				c0-1.35-0.34-2.4-1.18-3.11c-0.76-0.67-1.77-1.05-3.28-1.26l-3.53-0.51c-2.44-0.38-4.33-1.14-5.64-2.4
				c-1.47-1.35-2.23-3.28-2.23-5.76c0-5.21,3.78-8.75,10.01-8.75c4,0,6.73,1.01,9.29,3.41l-1.45,1.45c-0.76,0.76-1.93,0.85-2.86,0.3
				c-1.52-0.9-3.23-1.21-5.15-1.21c-3.53,0-5.43,1.93-5.43,4.67c0,1.09,0.29,2.1,1.09,2.78c0.76,0.67,1.64,1.09,3.28,1.35l3.57,0.55
				c2.73,0.42,4.25,1.05,5.55,2.23c1.6,1.47,2.44,3.53,2.44,6.14C131.55,75.56,127.09,78.84,120.78,78.84z"/>
			<path class="st59" d="M157.16,75.82c-1.93,1.93-4.46,3.03-7.74,3.03c-3.28,0-5.8-1.09-7.74-3.03c-2.94-2.94-3.03-5.93-3.03-12.2
				s0.08-9.25,3.03-12.2c1.93-1.93,4.46-3.03,7.74-3.03c3.28,0,5.8,1.09,7.74,3.03c2.94,2.94,3.03,5.93,3.03,12.2
				S160.11,72.87,157.16,75.82z M153.88,54.28c-1.14-1.18-2.65-1.85-4.46-1.85s-3.32,0.67-4.46,1.85c-1.47,1.6-1.77,3.41-1.77,9.34
				c0,5.93,0.29,7.7,1.77,9.29c1.14,1.18,2.65,1.89,4.46,1.89s3.32-0.72,4.46-1.89c1.51-1.56,1.77-3.36,1.77-9.29
				C155.65,57.69,155.4,55.84,153.88,54.28z"/>
			<path class="st59" d="M169.02,78.59V48.65h4.54v24.69c0,0.65,0.53,1.18,1.18,1.18h13.25v4.08H169.02z"/>
			<path class="st59" d="M209.14,68.71l-4.22-12.35c-0.11-0.31-0.54-0.31-0.65,0l-4.34,12.35l-1.35,3.87l-2.06,6.01h-4.84
				l10.98-29.94h3.66l10.98,29.94h-4.84l-2.06-6.01L209.14,68.71z"/>
			<path class="st59" d="M240.18,78.59l-6.31-12.62h-5.68v12.62h-4.54V48.65h11.61c5.68,0,9.29,3.66,9.29,8.75
				c0,4.29-2.61,7.02-5.97,7.95l6.27,12.05c0.28,0.55-0.11,1.2-0.73,1.2H240.18z M234.92,52.73h-6.73v8.09
				c0,0.71,0.58,1.29,1.29,1.29h5.44c3.03,0,5.09-1.72,5.09-4.67C240.01,54.49,237.95,52.73,234.92,52.73z"/>
			<path class="st59" d="M216,118.31l-6.31-12.62h-5.68v12.62h-4.54V88.37h11.61c5.68,0,9.29,3.66,9.29,8.75
				c0,4.29-2.61,7.02-5.97,7.95l6.27,12.05c0.28,0.55-0.11,1.2-0.73,1.2H216z M210.74,92.45h-6.73v8.09c0,0.71,0.58,1.29,1.29,1.29
				h5.44c3.03,0,5.09-1.72,5.09-4.67C215.83,94.21,213.77,92.45,210.74,92.45z"/>
			<path class="st59" d="M111.81,118.31V88.37h19.14v4.08h-12.23c-1.3,0-2.36,1.06-2.36,2.36v6.39h12.45v4.04h-12.45v9h14.59v4.08
				H111.81z"/>
			<path class="st59" d="M171.74,118.31V88.37h19.14v4.08h-12.23c-1.3,0-2.36,1.06-2.36,2.36v6.39h12.45v4.04h-12.45v9h14.59v4.08
				H171.74z"/>
			<path class="st59" d="M156.96,117.25l-13.14-20.01v21.07h-4.54V89.87c0-0.83,0.67-1.5,1.5-1.5h2.66l13.84,21.03V88.37h4.54v29.94
				h-2.9C158.13,118.31,157.39,117.91,156.96,117.25z"/>
			<path class="st59" d="M246.77,115.16c-2.23,2.36-5.09,3.41-8.24,3.41c-3.28,0-5.8-1.09-7.74-3.03c-2.9-2.94-3.03-5.93-3.03-12.2
				c0-6.27,0.13-9.25,3.03-12.2c1.93-1.93,4.46-3.03,7.74-3.03c6.31,0,10.05,4.16,10.85,9.25h-4.54c-0.76-3.28-2.94-5.21-6.31-5.21
				c-1.81,0-3.32,0.67-4.46,1.85c-1.47,1.6-1.77,3.41-1.77,9.34c0,5.93,0.29,7.74,1.77,9.34c1.14,1.18,2.65,1.85,4.46,1.85
				c1.98,0,3.74-0.76,4.92-2.14c1.09-1.26,1.47-2.78,1.47-4.71v-1.68h-6.39v-2.72c0-0.64,0.52-1.15,1.15-1.15h9.78v4.58
				C249.46,110.61,248.74,113.01,246.77,115.16z"/>
			<path class="st59" d="M267.63,105.99v12.32h-4.54v-12.32l-8.96-17.62h4.96l6.27,13.16l6.27-13.16h4.96L267.63,105.99z"/>
		</g>
	</g>
</g>
</svg>
