<?xml version="1.0" encoding="utf-8"?>
<!-- Generator: Adobe Illustrator 26.2.1, SVG Export Plug-In . SVG Version: 6.00 Build 0)  -->
<svg version="1.1" id="Capa_1" xmlns="http://www.w3.org/2000/svg" xmlns:xlink="http://www.w3.org/1999/xlink" x="0px" y="0px"
	 viewBox="0 0 300 158" style="enable-background:new 0 0 300 158;" xml:space="preserve">
<style type="text/css">
	.st0{fill:url(#SVGID_1_);}
	.st1{fill:#F8F9F9;}
	.st2{filter:url(#Adobe_OpacityMaskFilter);}
	.st3{fill:url(#SVGID_00000050656770498010252840000009133679495789653140_);}
	.st4{opacity:0.14;mask:url(#SVGID_00000183238605148766853040000010928072297482802612_);}
	.st5{fill:url(#SVGID_00000039854766421854762740000011882373331916698303_);}
	.st6{fill:url(#SVGID_00000020362581925277313570000001865191739237655197_);}
	.st7{fill:url(#SVGID_00000055681570883745650280000007928834567600966050_);}
	.st8{fill:url(#SVGID_00000129910602008534773190000016523060115763498391_);}
	.st9{fill:url(#SVGID_00000068665254635156281190000010887851395187159683_);}
	.st10{fill:url(#SVGID_00000064316801230809282510000003763893651689339523_);}
	.st11{fill:url(#SVGID_00000124139169582796721240000007947445033576558513_);}
	.st12{fill:url(#SVGID_00000118365947655030303980000005839309480912411820_);}
	.st13{fill:url(#SVGID_00000048465234263301911300000014121367144457175974_);}
	.st14{fill:url(#SVGID_00000126307257286438636900000014186183880371082624_);}
	.st15{fill:url(#SVGID_00000054951355000821001030000010956598303143103114_);}
	.st16{fill:url(#SVGID_00000011739130556280920780000003645479470193934769_);}
	.st17{fill:url(#SVGID_00000179629621392396847130000016166838836852085939_);}
	.st18{fill:url(#SVGID_00000070081084577457552530000003145525959693868931_);}
	.st19{fill:url(#SVGID_00000169527561744822696920000011185754600141734272_);}
	.st20{fill:url(#SVGID_00000173871776331710727080000004669636308978444162_);}
	.st21{fill:url(#SVGID_00000183248485441572721950000006220226838255959467_);}
	.st22{fill:url(#SVGID_00000108304610611412585940000014763111335797497750_);}
	.st23{fill:url(#SVGID_00000171711850125392988910000001390608919093558657_);}
	.st24{fill:url(#SVGID_00000183957502804506409290000014775683872532803243_);}
	.st25{fill:#ECB340;}
	.st26{clip-path:url(#SVGID_00000062156427848827978670000016926419687449032610_);}
	
		.st27{opacity:0.62;clip-path:url(#SVGID_00000062156427848827978670000016926419687449032610_);fill:url(#SVGID_00000102529997861228439820000003830620427340621712_);}
	.st28{fill:url(#SVGID_00000109750807655361287660000000311666880060880005_);}
	.st29{clip-path:url(#SVGID_00000126285184290139608850000014959713630123370397_);}
	
		.st30{opacity:0.62;clip-path:url(#SVGID_00000126285184290139608850000014959713630123370397_);fill:url(#SVGID_00000071550241040085806640000004285225205865758372_);}
	.st31{fill:url(#SVGID_00000072960213556686567820000005276134408823247290_);}
	.st32{opacity:0.43;}
	.st33{clip-path:url(#SVGID_00000179644978833465479840000000083164160170215606_);}
	.st34{fill:url(#SVGID_00000040570847977556216190000003124049034338692793_);}
	.st35{fill:url(#SVGID_00000002371347309275511380000006365345016057990843_);}
	.st36{fill:url(#SVGID_00000111171284068828811460000011084887514982825657_);}
	.st37{fill:url(#SVGID_00000162344822311995520580000018279258175613325960_);}
	.st38{fill:url(#SVGID_00000119840748114056843230000005262681974516556933_);}
	.st39{fill:url(#SVGID_00000145036427951290685060000018377241912228865443_);}
	.st40{fill:url(#SVGID_00000047778121932689739700000011401815281123478452_);}
	.st41{fill:url(#SVGID_00000083805651279560000090000009115358880593479871_);}
	.st42{fill:url(#SVGID_00000105407713586188614030000012998697254164881296_);}
	.st43{fill:url(#SVGID_00000003098956027476990670000003688755518326646194_);}
	.st44{fill:url(#SVGID_00000061458199642624293460000010005397352435488172_);}
	.st45{fill:url(#SVGID_00000055702425090708018270000002687558502318255243_);}
	.st46{fill:url(#SVGID_00000005963952423464053470000013145537403619322276_);}
	.st47{fill:url(#SVGID_00000035521571262335699090000017208588265311212163_);}
	.st48{fill:url(#SVGID_00000177472192238099443680000008362638396361964438_);}
	.st49{fill:url(#SVGID_00000119797138185110496310000002054100230316243840_);}
	.st50{fill:url(#SVGID_00000168808931452787820850000002960595123033938109_);}
	.st51{fill:url(#SVGID_00000028303275805140209810000003169264362807007873_);}
	.st52{fill:url(#SVGID_00000060722757380925517590000003848263125743739541_);}
	.st53{fill:url(#SVGID_00000085944082879400247580000009991154796373941165_);}
	.st54{fill:url(#SVGID_00000152977411822508988220000015921255995154203536_);}
	.st55{fill:url(#SVGID_00000099636385684276909120000005598739342132239263_);}
	.st56{fill:url(#SVGID_00000065789462214027982890000010234083986916518049_);}
	.st57{fill:url(#SVGID_00000163755133136026008820000014399279991738494907_);}
	.st58{fill:url(#SVGID_00000131364914921259842390000002669044265332885398_);}
	.st59{fill:#606060;}
	.st60{clip-path:url(#SVGID_00000155130484469637115330000010882689128859717809_);}
	.st61{fill:url(#SVGID_00000051352647708875768790000013880662311795322792_);}
	.st62{fill:url(#SVGID_00000086657252569295387990000006829052283145912977_);}
	.st63{fill:url(#SVGID_00000051373645903929919580000005338885174549540517_);}
	.st64{fill:url(#SVGID_00000116956567117733021910000013409150287526200205_);}
	.st65{fill:url(#SVGID_00000031166868826110604470000014578920318356950921_);}
	.st66{fill:url(#SVGID_00000152977307563804747010000000829473661701579148_);}
	.st67{fill:url(#SVGID_00000000921715869257158410000015237918346467323277_);}
	.st68{fill:url(#SVGID_00000142859444074381910770000006918272079493190829_);}
	.st69{fill:url(#SVGID_00000181792744994624037210000012632178365318744971_);}
	.st70{fill:url(#SVGID_00000063601812080695728070000016422316335665439408_);}
	.st71{fill:url(#SVGID_00000173146339451528428020000001402926654511772335_);}
	.st72{fill:url(#SVGID_00000088134886735460252640000012584990162822976923_);}
	.st73{fill:url(#SVGID_00000000204923556784269320000008492245512699822999_);}
	.st74{fill:url(#SVGID_00000116933382019721019580000005153378851462600621_);}
	.st75{fill:url(#SVGID_00000152952338200752039210000003951562940292618144_);}
	.st76{fill:url(#SVGID_00000171686986015162131130000011597777197004606893_);}
	.st77{fill:url(#SVGID_00000028287909588411363780000009739379695783957667_);}
	.st78{fill:url(#SVGID_00000031901591073253624520000010487451871453547436_);}
	.st79{fill:url(#SVGID_00000115512518777328964460000009571256927766839185_);}
	.st80{fill:url(#SVGID_00000170270884040377399420000013190767887822291852_);}
	.st81{fill:url(#SVGID_00000021114066507986616030000009752092895252438437_);}
	.st82{fill:url(#SVGID_00000076604384626541308930000017735615912284357527_);}
	.st83{fill:url(#SVGID_00000172438774536896209600000006072429859791111320_);}
	.st84{fill:url(#SVGID_00000052796881591302686900000006261727858756350103_);}
	.st85{fill:url(#SVGID_00000176013492981629276550000006589528634465327265_);}
	.st86{fill:#FFFFFF;}
	.st87{clip-path:url(#SVGID_00000031171981717614198760000001112637912992750230_);}
	.st88{fill:url(#SVGID_00000085946577759521532360000008247603283743400078_);}
	.st89{fill:url(#SVGID_00000117639215391108473700000003309336656358006432_);}
	.st90{fill:url(#SVGID_00000076564718482032783430000012754629055578438289_);}
	.st91{fill:url(#SVGID_00000078746607173478943380000008912956074254772639_);}
	.st92{fill:url(#SVGID_00000025429555115758087790000003591303089940304256_);}
	.st93{fill:url(#SVGID_00000146464744334773726780000010940587442957120412_);}
	.st94{fill:url(#SVGID_00000047773456570517145520000000137142836947341217_);}
	.st95{fill:url(#SVGID_00000131326316612321911400000007450856504945053324_);}
	.st96{fill:url(#SVGID_00000088102594358909331800000010670585842937520307_);}
	.st97{fill:url(#SVGID_00000073702115277114515930000011334021898450420644_);}
	.st98{fill:url(#SVGID_00000009574491446630418780000011100282249056172452_);}
	.st99{fill:url(#SVGID_00000132069688257179595640000014713057909416291477_);}
	.st100{fill:url(#SVGID_00000060745169199711321690000015938011511503736752_);}
	.st101{fill:url(#SVGID_00000091005664968507404600000013657346562170201750_);}
	.st102{fill:url(#SVGID_00000091696945944235619150000005661692475903932346_);}
	.st103{fill:url(#SVGID_00000067929756240005997850000011800651841356910505_);}
	.st104{fill:url(#SVGID_00000067215691982004771040000001379895919900881807_);}
	.st105{fill:url(#SVGID_00000173855551502256777700000008643854814891884207_);}
	.st106{fill:url(#SVGID_00000061434772586732495540000018350115782541008773_);}
	.st107{fill:url(#SVGID_00000059285257201044663570000007393257316849936272_);}
	.st108{fill:url(#SVGID_00000170267504249485729940000009573685042554734768_);}
	.st109{fill:url(#SVGID_00000101101054148594726490000011758199153145317277_);}
	.st110{fill:url(#SVGID_00000118393025006425223990000003196664782565141694_);}
	.st111{fill:url(#SVGID_00000166667185341876485350000001014483077430570662_);}
	.st112{fill:url(#SVGID_00000031176944695128646140000017937734443942411154_);}
	.st113{fill:url(#SVGID_00000003094957709391007530000004544987422536992386_);}
	.st114{fill:url(#SVGID_00000149376989773977442810000000151303316415136444_);}
	.st115{fill:#EAC843;}
	.st116{clip-path:url(#SVGID_00000111162836857648623230000013034746943425102008_);}
	.st117{clip-path:url(#SVGID_00000055680498611573002680000005489794889076129211_);}
	.st118{clip-path:url(#SVGID_00000057835850329920451910000003071345779191394973_);}
	.st119{clip-path:url(#SVGID_00000029726650161586965570000003864085243172646542_);}
	.st120{clip-path:url(#SVGID_00000075883588351080507360000013790598183113293244_);}
	.st121{clip-path:url(#SVGID_00000095314769549214339710000011713798104241147798_);}
	.st122{clip-path:url(#SVGID_00000029041926819282421840000008197822088437231539_);}
	.st123{clip-path:url(#SVGID_00000070088075943840240600000005726660152083489211_);}
	.st124{fill:#E7E148;}
	.st125{fill:#ECB154;}
	.st126{fill:#D76031;}
	.st127{fill:url(#SVGID_00000061430603454123414930000005160327633643461270_);}
	.st128{fill:#6F6F6F;}
	.st129{fill:#F3F3F3;}
	.st130{fill:#393B52;}
	.st131{fill:#B3BA94;}
	.st132{fill:#D17C61;}
	.st133{fill:#1E0C05;}
	.st134{fill:#EE9D3B;}
	.st135{fill:#D0DEDF;}
	.st136{fill:#EDE7B0;}
	.st137{fill:none;stroke:#ECB154;stroke-width:2;stroke-miterlimit:10;}
	.st138{fill:none;stroke:url(#SVGID_00000079444007919226737670000013006125931382200979_);stroke-miterlimit:10;}
	.st139{fill:none;stroke:url(#SVGID_00000114765255656129311320000014513650070148566934_);stroke-miterlimit:10;}
	.st140{fill:none;stroke:url(#SVGID_00000104708678523434748460000002969077485595596947_);stroke-miterlimit:10;}
	.st141{fill:none;stroke:url(#SVGID_00000047062204198133227420000004535367995230294419_);stroke-miterlimit:10;}
	.st142{fill:none;stroke:url(#SVGID_00000134928972267998574700000000813073690831532731_);stroke-miterlimit:10;}
</style>
<g>
	<g>
		<g>
			<g>
				<defs>
					<path id="SVGID_00000057112041507103824260000003749006995125154208_" d="M27.95,89.77c0-14.02,8.26-23.24,18.99-30.64
						L44.8,43.37l-21.39-5.61l4.54,52.63C27.95,90.19,27.95,89.98,27.95,89.77z"/>
				</defs>
				<clipPath id="SVGID_00000150092828626507588350000010525977019640585863_">
					<use xlink:href="#SVGID_00000057112041507103824260000003749006995125154208_"  style="overflow:visible;"/>
				</clipPath>
				<g style="clip-path:url(#SVGID_00000150092828626507588350000010525977019640585863_);">
					
						<linearGradient id="SVGID_1_" gradientUnits="userSpaceOnUse" x1="275.6274" y1="-784.4939" x2="287.0545" y2="-794.3025" gradientTransform="matrix(0.8318 0.546 -0.0518 1.1682 -249.2099 808.9108)">
						<stop  offset="0" style="stop-color:#D76031"/>
						<stop  offset="0.9963" style="stop-color:#ECB340"/>
					</linearGradient>
					<path class="st0" d="M28.09,44.9l-4.24-1.26c-0.74-0.22-1.34-1.12-1.32-2.01l0.12-5.02c0.02-0.88,0.65-1.42,1.39-1.2l4.24,1.26
						c0.74,0.22,1.34,1.12,1.32,2.01l-0.12,5.02C29.46,44.58,28.84,45.12,28.09,44.9z"/>
					
						<linearGradient id="SVGID_00000030486256319548431010000007450292376606798725_" gradientUnits="userSpaceOnUse" x1="284.9421" y1="-786.8394" x2="296.3691" y2="-796.6479" gradientTransform="matrix(0.8318 0.546 -0.0518 1.1682 -249.2099 808.9108)">
						<stop  offset="0" style="stop-color:#D76031"/>
						<stop  offset="0.9963" style="stop-color:#ECB340"/>
					</linearGradient>
					<path style="fill:url(#SVGID_00000030486256319548431010000007450292376606798725_);" d="M35.96,47.24l-4.24-1.26
						c-0.74-0.22-1.34-1.12-1.32-2.01l0.12-5.02c0.02-0.88,0.65-1.42,1.39-1.2l4.24,1.26c0.74,0.22,1.34,1.12,1.32,2.01l-0.12,5.02
						C37.33,46.93,36.7,47.47,35.96,47.24z"/>
					
						<linearGradient id="SVGID_00000117662157289787888440000011807356477512133276_" gradientUnits="userSpaceOnUse" x1="294.2568" y1="-789.1848" x2="305.6838" y2="-798.9934" gradientTransform="matrix(0.8318 0.546 -0.0518 1.1682 -249.2099 808.9108)">
						<stop  offset="0" style="stop-color:#D76031"/>
						<stop  offset="0.9963" style="stop-color:#ECB340"/>
					</linearGradient>
					<path style="fill:url(#SVGID_00000117662157289787888440000011807356477512133276_);" d="M43.83,49.59l-4.24-1.26
						c-0.74-0.22-1.34-1.12-1.32-2.01l0.12-5.02c0.02-0.88,0.65-1.42,1.39-1.2l4.24,1.26c0.74,0.22,1.34,1.12,1.32,2.01l-0.12,5.02
						C45.2,49.27,44.57,49.81,43.83,49.59z"/>
					
						<linearGradient id="SVGID_00000034091623769254181720000010361870113511441819_" gradientUnits="userSpaceOnUse" x1="303.5715" y1="-791.5303" x2="314.9985" y2="-801.3389" gradientTransform="matrix(0.8318 0.546 -0.0518 1.1682 -249.2099 808.9108)">
						<stop  offset="0" style="stop-color:#D76031"/>
						<stop  offset="0.9963" style="stop-color:#ECB340"/>
					</linearGradient>
					<path style="fill:url(#SVGID_00000034091623769254181720000010361870113511441819_);" d="M51.7,51.93l-4.24-1.26
						c-0.74-0.22-1.34-1.12-1.32-2.01l0.12-5.02c0.02-0.88,0.65-1.42,1.39-1.2l4.24,1.26c0.74,0.22,1.34,1.12,1.32,2.01l-0.12,5.02
						C53.07,51.62,52.44,52.16,51.7,51.93z"/>
					
						<linearGradient id="SVGID_00000087408753646875155010000009457315309633109920_" gradientUnits="userSpaceOnUse" x1="275.8569" y1="-776.381" x2="287.284" y2="-786.1896" gradientTransform="matrix(0.8318 0.546 -0.0518 1.1682 -249.2099 808.9108)">
						<stop  offset="0" style="stop-color:#D76031"/>
						<stop  offset="0.9963" style="stop-color:#ECB340"/>
					</linearGradient>
					<path style="fill:url(#SVGID_00000087408753646875155010000009457315309633109920_);" d="M27.86,54.5l-4.24-1.26
						c-0.74-0.22-1.34-1.12-1.32-2.01l0.12-5.02c0.02-0.88,0.65-1.42,1.39-1.2l4.24,1.26c0.74,0.22,1.34,1.12,1.32,2.01l-0.12,5.02
						C29.23,54.18,28.61,54.72,27.86,54.5z"/>
					
						<linearGradient id="SVGID_00000155863874899031241540000002149822634194377094_" gradientUnits="userSpaceOnUse" x1="285.1716" y1="-778.7264" x2="296.5987" y2="-788.5351" gradientTransform="matrix(0.8318 0.546 -0.0518 1.1682 -249.2099 808.9108)">
						<stop  offset="0" style="stop-color:#D76031"/>
						<stop  offset="0.9963" style="stop-color:#ECB340"/>
					</linearGradient>
					<path style="fill:url(#SVGID_00000155863874899031241540000002149822634194377094_);" d="M35.73,56.85l-4.24-1.26
						c-0.74-0.22-1.34-1.12-1.32-2.01l0.12-5.02c0.02-0.88,0.65-1.42,1.39-1.2l4.24,1.26c0.74,0.22,1.34,1.12,1.32,2.01l-0.12,5.02
						C37.1,56.53,36.48,57.07,35.73,56.85z"/>
					
						<linearGradient id="SVGID_00000061446789904608661910000002669743175321799086_" gradientUnits="userSpaceOnUse" x1="294.4863" y1="-781.0719" x2="305.9133" y2="-790.8806" gradientTransform="matrix(0.8318 0.546 -0.0518 1.1682 -249.2099 808.9108)">
						<stop  offset="0" style="stop-color:#D76031"/>
						<stop  offset="0.9963" style="stop-color:#ECB340"/>
					</linearGradient>
					<path style="fill:url(#SVGID_00000061446789904608661910000002669743175321799086_);" d="M43.6,59.19l-4.24-1.26
						c-0.74-0.22-1.34-1.12-1.32-2.01l0.12-5.02c0.02-0.88,0.65-1.42,1.39-1.2l4.24,1.26c0.74,0.22,1.34,1.12,1.32,2.01l-0.12,5.02
						C44.97,58.87,44.34,59.41,43.6,59.19z"/>
					
						<linearGradient id="SVGID_00000101100526018105575520000010068429862604236705_" gradientUnits="userSpaceOnUse" x1="303.801" y1="-783.4174" x2="315.228" y2="-793.226" gradientTransform="matrix(0.8318 0.546 -0.0518 1.1682 -249.2099 808.9108)">
						<stop  offset="0" style="stop-color:#D76031"/>
						<stop  offset="0.9963" style="stop-color:#ECB340"/>
					</linearGradient>
					<path style="fill:url(#SVGID_00000101100526018105575520000010068429862604236705_);" d="M51.47,61.54l-4.24-1.26
						c-0.74-0.22-1.34-1.12-1.32-2.01l0.12-5.02c0.02-0.88,0.65-1.42,1.39-1.2l4.24,1.26c0.74,0.22,1.34,1.12,1.32,2.01l-0.12,5.02
						C52.84,61.22,52.21,61.76,51.47,61.54z"/>
					
						<linearGradient id="SVGID_00000116197374309075159250000017091139654897475248_" gradientUnits="userSpaceOnUse" x1="276.0864" y1="-768.2681" x2="287.5135" y2="-778.0767" gradientTransform="matrix(0.8318 0.546 -0.0518 1.1682 -249.2099 808.9108)">
						<stop  offset="0" style="stop-color:#D76031"/>
						<stop  offset="0.9963" style="stop-color:#ECB340"/>
					</linearGradient>
					<path style="fill:url(#SVGID_00000116197374309075159250000017091139654897475248_);" d="M27.63,64.1l-4.24-1.26
						c-0.74-0.22-1.34-1.12-1.32-2.01l0.12-5.02c0.02-0.88,0.65-1.42,1.39-1.2l4.24,1.26c0.74,0.22,1.34,1.12,1.32,2.01l-0.12,5.02
						C29,63.79,28.38,64.33,27.63,64.1z"/>
					
						<linearGradient id="SVGID_00000162313784276403593630000002157943292183687593_" gradientUnits="userSpaceOnUse" x1="285.4011" y1="-770.6135" x2="296.8282" y2="-780.4222" gradientTransform="matrix(0.8318 0.546 -0.0518 1.1682 -249.2099 808.9108)">
						<stop  offset="0" style="stop-color:#D76031"/>
						<stop  offset="0.9963" style="stop-color:#ECB340"/>
					</linearGradient>
					<path style="fill:url(#SVGID_00000162313784276403593630000002157943292183687593_);" d="M35.5,66.45l-4.24-1.26
						c-0.74-0.22-1.34-1.12-1.32-2.01l0.12-5.02c0.02-0.88,0.65-1.42,1.39-1.2l4.24,1.26c0.74,0.22,1.34,1.12,1.32,2.01l-0.12,5.02
						C36.87,66.13,36.25,66.67,35.5,66.45z"/>
					
						<linearGradient id="SVGID_00000116914263849737151930000010312220781413227199_" gradientUnits="userSpaceOnUse" x1="294.7158" y1="-772.959" x2="306.1429" y2="-782.7676" gradientTransform="matrix(0.8318 0.546 -0.0518 1.1682 -249.2099 808.9108)">
						<stop  offset="0" style="stop-color:#D76031"/>
						<stop  offset="0.9963" style="stop-color:#ECB340"/>
					</linearGradient>
					<path style="fill:url(#SVGID_00000116914263849737151930000010312220781413227199_);" d="M43.37,68.79l-4.24-1.26
						c-0.74-0.22-1.34-1.12-1.32-2.01l0.12-5.02c0.02-0.88,0.65-1.42,1.39-1.2l4.24,1.26c0.74,0.22,1.34,1.12,1.32,2.01l-0.12,5.02
						C44.74,68.48,44.12,69.02,43.37,68.79z"/>
					
						<linearGradient id="SVGID_00000139983661213277215160000013392234304048372904_" gradientUnits="userSpaceOnUse" x1="304.0305" y1="-775.3044" x2="315.4575" y2="-785.1131" gradientTransform="matrix(0.8318 0.546 -0.0518 1.1682 -249.2099 808.9108)">
						<stop  offset="0" style="stop-color:#D76031"/>
						<stop  offset="0.9963" style="stop-color:#ECB340"/>
					</linearGradient>
					<path style="fill:url(#SVGID_00000139983661213277215160000013392234304048372904_);" d="M51.24,71.14L47,69.88
						c-0.74-0.22-1.34-1.12-1.32-2.01l0.12-5.02c0.02-0.88,0.65-1.42,1.39-1.2l4.24,1.26c0.74,0.22,1.34,1.12,1.32,2.01l-0.12,5.02
						C52.61,70.82,51.98,71.36,51.24,71.14z"/>
					
						<linearGradient id="SVGID_00000116936649568510829770000004168560549773301918_" gradientUnits="userSpaceOnUse" x1="276.3159" y1="-760.1552" x2="287.743" y2="-769.9638" gradientTransform="matrix(0.8318 0.546 -0.0518 1.1682 -249.2099 808.9108)">
						<stop  offset="0" style="stop-color:#D76031"/>
						<stop  offset="0.9963" style="stop-color:#ECB340"/>
					</linearGradient>
					<path style="fill:url(#SVGID_00000116936649568510829770000004168560549773301918_);" d="M27.4,73.71l-4.24-1.26
						c-0.74-0.22-1.34-1.12-1.32-2.01l0.12-5.02c0.02-0.88,0.65-1.42,1.39-1.2l4.24,1.26c0.74,0.22,1.34,1.12,1.32,2.01l-0.12,5.02
						C28.77,73.39,28.15,73.93,27.4,73.71z"/>
					
						<linearGradient id="SVGID_00000165236410556585717990000011651893097302635954_" gradientUnits="userSpaceOnUse" x1="285.6306" y1="-762.5007" x2="297.0576" y2="-772.3093" gradientTransform="matrix(0.8318 0.546 -0.0518 1.1682 -249.2099 808.9108)">
						<stop  offset="0" style="stop-color:#D76031"/>
						<stop  offset="0.9963" style="stop-color:#ECB340"/>
					</linearGradient>
					<path style="fill:url(#SVGID_00000165236410556585717990000011651893097302635954_);" d="M35.27,76.05l-4.24-1.26
						c-0.74-0.22-1.34-1.12-1.32-2.01l0.12-5.02c0.02-0.88,0.65-1.42,1.39-1.2l4.24,1.26c0.74,0.22,1.34,1.12,1.32,2.01l-0.12,5.02
						C36.64,75.73,36.02,76.27,35.27,76.05z"/>
					
						<linearGradient id="SVGID_00000093157792924810922030000006091942542669866932_" gradientUnits="userSpaceOnUse" x1="294.9453" y1="-764.8461" x2="306.3723" y2="-774.6547" gradientTransform="matrix(0.8318 0.546 -0.0518 1.1682 -249.2099 808.9108)">
						<stop  offset="0" style="stop-color:#D76031"/>
						<stop  offset="0.9963" style="stop-color:#ECB340"/>
					</linearGradient>
					<path style="fill:url(#SVGID_00000093157792924810922030000006091942542669866932_);" d="M43.14,78.4l-4.24-1.26
						c-0.74-0.22-1.34-1.12-1.32-2.01l0.12-5.02c0.02-0.88,0.65-1.42,1.39-1.2l4.24,1.26c0.74,0.22,1.34,1.12,1.32,2.01l-0.12,5.02
						C44.51,78.08,43.89,78.62,43.14,78.4z"/>
					
						<linearGradient id="SVGID_00000036941492224738604210000002210852258912293515_" gradientUnits="userSpaceOnUse" x1="304.26" y1="-767.1916" x2="315.687" y2="-777.0002" gradientTransform="matrix(0.8318 0.546 -0.0518 1.1682 -249.2099 808.9108)">
						<stop  offset="0" style="stop-color:#D76031"/>
						<stop  offset="0.9963" style="stop-color:#ECB340"/>
					</linearGradient>
					<path style="fill:url(#SVGID_00000036941492224738604210000002210852258912293515_);" d="M51.01,80.74l-4.24-1.26
						c-0.74-0.22-1.34-1.12-1.32-2.01l0.12-5.02c0.02-0.88,0.65-1.42,1.39-1.2l4.24,1.26c0.74,0.22,1.34,1.12,1.32,2.01l-0.12,5.02
						C52.38,80.43,51.76,80.97,51.01,80.74z"/>
					
						<linearGradient id="SVGID_00000060731275593209999930000009281007106300344746_" gradientUnits="userSpaceOnUse" x1="276.5454" y1="-752.0423" x2="287.9725" y2="-761.851" gradientTransform="matrix(0.8318 0.546 -0.0518 1.1682 -249.2099 808.9108)">
						<stop  offset="0" style="stop-color:#D76031"/>
						<stop  offset="0.9963" style="stop-color:#ECB340"/>
					</linearGradient>
					<path style="fill:url(#SVGID_00000060731275593209999930000009281007106300344746_);" d="M27.17,83.31l-4.24-1.26
						c-0.74-0.22-1.34-1.12-1.32-2.01l0.12-5.02c0.02-0.88,0.65-1.42,1.39-1.2l4.24,1.26c0.74,0.22,1.34,1.12,1.32,2.01l-0.12,5.02
						C28.54,82.99,27.92,83.53,27.17,83.31z"/>
					
						<linearGradient id="SVGID_00000116237497979378111160000014424728863971837589_" gradientUnits="userSpaceOnUse" x1="285.8601" y1="-754.3878" x2="297.2872" y2="-764.1964" gradientTransform="matrix(0.8318 0.546 -0.0518 1.1682 -249.2099 808.9108)">
						<stop  offset="0" style="stop-color:#D76031"/>
						<stop  offset="0.9963" style="stop-color:#ECB340"/>
					</linearGradient>
					<path style="fill:url(#SVGID_00000116237497979378111160000014424728863971837589_);" d="M35.04,85.65l-4.24-1.26
						c-0.74-0.22-1.34-1.12-1.32-2.01l0.12-5.02c0.02-0.88,0.65-1.42,1.39-1.2l4.24,1.26c0.74,0.22,1.34,1.12,1.32,2.01l-0.12,5.02
						C36.41,85.34,35.79,85.88,35.04,85.65z"/>
					
						<linearGradient id="SVGID_00000022559551056212643860000010355801502227756420_" gradientUnits="userSpaceOnUse" x1="295.1748" y1="-756.7332" x2="306.6018" y2="-766.5419" gradientTransform="matrix(0.8318 0.546 -0.0518 1.1682 -249.2099 808.9108)">
						<stop  offset="0" style="stop-color:#D76031"/>
						<stop  offset="0.9963" style="stop-color:#ECB340"/>
					</linearGradient>
					<path style="fill:url(#SVGID_00000022559551056212643860000010355801502227756420_);" d="M42.91,88l-4.24-1.26
						c-0.74-0.22-1.34-1.12-1.32-2.01l0.12-5.02c0.02-0.88,0.65-1.42,1.39-1.2l4.24,1.26c0.74,0.22,1.34,1.12,1.32,2.01L44.3,86.8
						C44.28,87.68,43.66,88.22,42.91,88z"/>
					
						<linearGradient id="SVGID_00000084487943890454555620000010688621997553902778_" gradientUnits="userSpaceOnUse" x1="304.4895" y1="-759.0787" x2="315.9165" y2="-768.8873" gradientTransform="matrix(0.8318 0.546 -0.0518 1.1682 -249.2099 808.9108)">
						<stop  offset="0" style="stop-color:#D76031"/>
						<stop  offset="0.9963" style="stop-color:#ECB340"/>
					</linearGradient>
					<path style="fill:url(#SVGID_00000084487943890454555620000010688621997553902778_);" d="M50.78,90.35l-4.24-1.26
						c-0.74-0.22-1.34-1.12-1.32-2.01l0.12-5.02c0.02-0.88,0.65-1.42,1.39-1.2l4.24,1.26c0.74,0.22,1.34,1.12,1.32,2.01l-0.12,5.02
						C52.15,90.03,51.53,90.57,50.78,90.35z"/>
					
						<linearGradient id="SVGID_00000172421227887632066600000003821909478837390727_" gradientUnits="userSpaceOnUse" x1="277.0424" y1="-744.0651" x2="288.4694" y2="-753.8737" gradientTransform="matrix(0.8318 0.546 -0.0518 1.1682 -249.2099 808.9108)">
						<stop  offset="0" style="stop-color:#D76031"/>
						<stop  offset="0.9963" style="stop-color:#ECB340"/>
					</linearGradient>
					<path style="fill:url(#SVGID_00000172421227887632066600000003821909478837390727_);" d="M27.17,92.9l-4.24-1.26
						c-0.74-0.22-1.34-1.12-1.32-2.01l0.12-5.02c0.02-0.88,0.65-1.42,1.39-1.2l4.24,1.26c0.74,0.22,1.34,1.12,1.32,2.01l-0.12,5.02
						C28.54,92.58,27.92,93.12,27.17,92.9z"/>
					
						<linearGradient id="SVGID_00000132059510183533434600000015274593351066511526_" gradientUnits="userSpaceOnUse" x1="286.3571" y1="-746.4105" x2="297.7841" y2="-756.2191" gradientTransform="matrix(0.8318 0.546 -0.0518 1.1682 -249.2099 808.9108)">
						<stop  offset="0" style="stop-color:#D76031"/>
						<stop  offset="0.9963" style="stop-color:#ECB340"/>
					</linearGradient>
					<path style="fill:url(#SVGID_00000132059510183533434600000015274593351066511526_);" d="M35.04,95.25l-4.24-1.26
						c-0.74-0.22-1.34-1.12-1.32-2.01l0.12-5.02c0.02-0.88,0.65-1.42,1.39-1.2l4.24,1.26c0.74,0.22,1.34,1.12,1.32,2.01l-0.12,5.02
						C36.41,94.93,35.79,95.47,35.04,95.25z"/>
					
						<linearGradient id="SVGID_00000059988294822704422330000004413712972924947372_" gradientUnits="userSpaceOnUse" x1="295.6718" y1="-748.7559" x2="307.0988" y2="-758.5646" gradientTransform="matrix(0.8318 0.546 -0.0518 1.1682 -249.2099 808.9108)">
						<stop  offset="0" style="stop-color:#D76031"/>
						<stop  offset="0.9963" style="stop-color:#ECB340"/>
					</linearGradient>
					<path style="fill:url(#SVGID_00000059988294822704422330000004413712972924947372_);" d="M42.91,97.59l-4.24-1.26
						c-0.74-0.22-1.34-1.12-1.32-2.01l0.12-5.02c0.02-0.88,0.65-1.42,1.39-1.2l4.24,1.26c0.74,0.22,1.34,1.12,1.32,2.01l-0.12,5.02
						C44.28,97.27,43.66,97.81,42.91,97.59z"/>
					
						<linearGradient id="SVGID_00000160897982653207968620000006871907407957427879_" gradientUnits="userSpaceOnUse" x1="304.9865" y1="-751.1014" x2="316.4135" y2="-760.91" gradientTransform="matrix(0.8318 0.546 -0.0518 1.1682 -249.2099 808.9108)">
						<stop  offset="0" style="stop-color:#D76031"/>
						<stop  offset="0.9963" style="stop-color:#ECB340"/>
					</linearGradient>
					<path style="fill:url(#SVGID_00000160897982653207968620000006871907407957427879_);" d="M50.78,99.94l-4.24-1.26
						c-0.74-0.22-1.34-1.12-1.32-2.01l0.12-5.02c0.02-0.88,0.65-1.42,1.39-1.2l4.24,1.26c0.74,0.22,1.34,1.12,1.32,2.01l-0.12,5.02
						C52.15,99.62,51.53,100.16,50.78,99.94z"/>
				</g>
			</g>
		</g>
		
			<linearGradient id="SVGID_00000101822380297674031910000011679036831281335226_" gradientUnits="userSpaceOnUse" x1="27.8091" y1="88.6855" x2="92.3316" y2="88.6855">
			<stop  offset="0" style="stop-color:#ECB154"/>
			<stop  offset="1" style="stop-color:#E7E148"/>
		</linearGradient>
		<path style="fill:url(#SVGID_00000101822380297674031910000011679036831281335226_);" d="M60.07,56.42
			c-11.15,0-16,4.18-21.83,9.94c-5.92,5.85-10.44,13.34-10.44,22.32c0,17.82,14.44,32.26,32.26,32.26
			c17.82,0,32.26-14.44,32.26-32.26C92.33,70.87,77.89,56.42,60.07,56.42z M60.07,104.66c-8.82,0-15.97-7.15-15.97-15.97
			c0-8.82,7.15-15.97,15.97-15.97c8.82,0,15.97,7.15,15.97,15.97C76.04,97.51,68.89,104.66,60.07,104.66z"/>
	</g>
	<g>
		<g>
			<path class="st86" d="M120.78,78.84c-4.5,0-7.7-1.05-10.6-3.95l2.99-2.99c2.19,2.19,4.67,2.9,7.7,2.9c3.95,0,6.18-1.68,6.18-4.63
				c0-1.35-0.34-2.4-1.18-3.11c-0.76-0.67-1.77-1.05-3.28-1.26l-3.53-0.51c-2.44-0.38-4.33-1.14-5.64-2.4
				c-1.47-1.35-2.23-3.28-2.23-5.76c0-5.21,3.78-8.75,10.01-8.75c4,0,6.73,1.01,9.29,3.41l-1.45,1.45c-0.76,0.76-1.93,0.85-2.86,0.3
				c-1.52-0.9-3.23-1.21-5.15-1.21c-3.53,0-5.43,1.93-5.43,4.67c0,1.09,0.29,2.1,1.09,2.78c0.76,0.67,1.64,1.09,3.28,1.35l3.57,0.55
				c2.73,0.42,4.25,1.05,5.55,2.23c1.6,1.47,2.44,3.53,2.44,6.14C131.55,75.56,127.09,78.84,120.78,78.84z"/>
			<path class="st86" d="M157.16,75.82c-1.93,1.93-4.46,3.03-7.74,3.03c-3.28,0-5.8-1.09-7.74-3.03c-2.94-2.94-3.03-5.93-3.03-12.2
				s0.08-9.25,3.03-12.2c1.93-1.93,4.46-3.03,7.74-3.03c3.28,0,5.8,1.09,7.74,3.03c2.94,2.94,3.03,5.93,3.03,12.2
				S160.11,72.87,157.16,75.82z M153.88,54.28c-1.14-1.18-2.65-1.85-4.46-1.85s-3.32,0.67-4.46,1.85c-1.47,1.6-1.77,3.41-1.77,9.34
				c0,5.93,0.29,7.7,1.77,9.29c1.14,1.18,2.65,1.89,4.46,1.89s3.32-0.72,4.46-1.89c1.51-1.56,1.77-3.36,1.77-9.29
				C155.65,57.69,155.4,55.84,153.88,54.28z"/>
			<path class="st86" d="M169.02,78.59V48.65h4.54v24.69c0,0.65,0.53,1.18,1.18,1.18h13.25v4.08H169.02z"/>
			<path class="st86" d="M209.14,68.71l-4.22-12.35c-0.11-0.31-0.54-0.31-0.65,0l-4.34,12.35l-1.35,3.87l-2.06,6.01h-4.84
				l10.98-29.94h3.66l10.98,29.94h-4.84l-2.06-6.01L209.14,68.71z"/>
			<path class="st86" d="M240.18,78.59l-6.31-12.62h-5.68v12.62h-4.54V48.65h11.61c5.68,0,9.29,3.66,9.29,8.75
				c0,4.29-2.61,7.02-5.97,7.95l6.27,12.05c0.28,0.55-0.11,1.2-0.73,1.2H240.18z M234.92,52.73h-6.73v8.09
				c0,0.71,0.58,1.29,1.29,1.29h5.44c3.03,0,5.09-1.72,5.09-4.67C240.01,54.49,237.95,52.73,234.92,52.73z"/>
			<path class="st86" d="M216,118.31l-6.31-12.62h-5.68v12.62h-4.54V88.37h11.61c5.68,0,9.29,3.66,9.29,8.75
				c0,4.29-2.61,7.02-5.97,7.95l6.27,12.05c0.28,0.55-0.11,1.2-0.73,1.2H216z M210.74,92.45h-6.73v8.09c0,0.71,0.58,1.29,1.29,1.29
				h5.44c3.03,0,5.09-1.72,5.09-4.67C215.83,94.21,213.77,92.45,210.74,92.45z"/>
			<path class="st86" d="M111.81,118.31V88.37h19.14v4.08h-12.23c-1.3,0-2.36,1.06-2.36,2.36v6.39h12.45v4.04h-12.45v9h14.59v4.08
				H111.81z"/>
			<path class="st86" d="M171.74,118.31V88.37h19.14v4.08h-12.23c-1.3,0-2.36,1.06-2.36,2.36v6.39h12.45v4.04h-12.45v9h14.59v4.08
				H171.74z"/>
			<path class="st86" d="M156.96,117.25l-13.14-20.01v21.07h-4.54V89.87c0-0.83,0.67-1.5,1.5-1.5h2.66l13.84,21.03V88.37h4.54v29.94
				h-2.9C158.13,118.31,157.39,117.91,156.96,117.25z"/>
			<path class="st86" d="M246.77,115.16c-2.23,2.36-5.09,3.41-8.24,3.41c-3.28,0-5.8-1.09-7.74-3.03c-2.9-2.94-3.03-5.93-3.03-12.2
				c0-6.27,0.13-9.25,3.03-12.2c1.93-1.93,4.46-3.03,7.74-3.03c6.31,0,10.05,4.16,10.85,9.25h-4.54c-0.76-3.28-2.94-5.21-6.31-5.21
				c-1.81,0-3.32,0.67-4.46,1.85c-1.47,1.6-1.77,3.41-1.77,9.34c0,5.93,0.29,7.74,1.77,9.34c1.14,1.18,2.65,1.85,4.46,1.85
				c1.98,0,3.74-0.76,4.92-2.14c1.09-1.26,1.47-2.78,1.47-4.71v-1.68h-6.39v-2.72c0-0.64,0.52-1.15,1.15-1.15h9.78v4.58
				C249.46,110.61,248.74,113.01,246.77,115.16z"/>
			<path class="st86" d="M267.63,105.99v12.32h-4.54v-12.32l-8.96-17.62h4.96l6.27,13.16l6.27-13.16h4.96L267.63,105.99z"/>
		</g>
	</g>
</g>
</svg>
