<?xml version="1.0" encoding="utf-8"?>
<!-- Generator: Adobe Illustrator 26.2.1, SVG Export Plug-In . SVG Version: 6.00 Build 0)  -->
<svg version="1.1" id="Capa_1" xmlns="http://www.w3.org/2000/svg" xmlns:xlink="http://www.w3.org/1999/xlink" x="0px" y="0px"
	 viewBox="0 0 200 200" style="enable-background:new 0 0 200 200;" xml:space="preserve">
<style type="text/css">
	.st0{clip-path:url(#SVGID_00000009564471845003249860000007973059795472013982_);}
	.st1{fill:url(#SVGID_00000121992195608257008330000008497257792891241603_);}
	.st2{fill:url(#SVGID_00000019665464836315981440000004399890027540084614_);}
	.st3{fill:url(#SVGID_00000035526393261031619710000005721830583670127005_);}
	.st4{fill:url(#SVGID_00000101790846007142837750000016971645363487714717_);}
	.st5{fill:url(#SVGID_00000171678202782296651200000017670327986374421378_);}
	.st6{fill:url(#SVGID_00000002379087106828064020000015616608262697101757_);}
	.st7{fill:url(#SVGID_00000053538160640327866810000015426356866782875786_);}
	.st8{fill:url(#SVGID_00000029751231107117865510000000196433124477645982_);}
	.st9{fill:url(#SVGID_00000176034283825360606950000004236751675416085921_);}
	.st10{fill:url(#SVGID_00000055665900138483235310000009508502301646216125_);}
	.st11{fill:url(#SVGID_00000109725239744961123110000015948851675205993146_);}
	.st12{fill:url(#SVGID_00000052802282010706921700000015864786846923903164_);}
	.st13{fill:url(#SVGID_00000054228502773799261740000006006001350325279630_);}
	.st14{fill:url(#SVGID_00000036213710060982617770000001096402048070189502_);}
	.st15{fill:url(#SVGID_00000098201245075805685460000003135391519999204540_);}
	.st16{fill:url(#SVGID_00000072248130849076147080000013334698343663894958_);}
	.st17{fill:url(#SVGID_00000048461258183104537890000012605065389735706757_);}
	.st18{fill:url(#SVGID_00000152968302194753215860000001511559783114994057_);}
	.st19{fill:url(#SVGID_00000035503371609148608040000005996280516572799659_);}
	.st20{fill:url(#SVGID_00000122686392823335649020000012543382098908024745_);}
	.st21{fill:url(#SVGID_00000028322602133490301690000001756392762401960340_);}
	.st22{fill:url(#SVGID_00000053523204841480159860000016179137023700140938_);}
	.st23{fill:url(#SVGID_00000151523717993860154170000007741332603965714622_);}
	.st24{fill:url(#SVGID_00000008146144980682998090000005226725005666453426_);}
	.st25{fill:url(#SVGID_00000083060447477161755520000016762635106612435901_);}
	.st26{fill:#606060;}
	.st27{clip-path:url(#SVGID_00000059267919611751127450000013585234510101280946_);}
	.st28{fill:url(#SVGID_00000010288544837466477310000002056326728316869259_);}
	.st29{fill:url(#SVGID_00000019659661393635624710000006442663265876626599_);}
	.st30{fill:url(#SVGID_00000042720864951261157830000005866810120942473350_);}
	.st31{fill:url(#SVGID_00000160187532518407576140000010831088927282280868_);}
	.st32{fill:url(#SVGID_00000132768437878850224810000007806766775661943484_);}
	.st33{fill:url(#SVGID_00000133523648412464477480000005388283840964678071_);}
	.st34{fill:url(#SVGID_00000140731260262392942480000017745430149444255647_);}
	.st35{fill:url(#SVGID_00000054971569334594783110000002120483938639348402_);}
	.st36{fill:url(#SVGID_00000034047574807969945960000009279783858208035490_);}
	.st37{fill:url(#SVGID_00000044900627172089097270000001906708668785568427_);}
	.st38{fill:url(#SVGID_00000170978493737469061220000011614227944634201731_);}
	.st39{fill:url(#SVGID_00000051382994662660750750000017399219250037483906_);}
	.st40{fill:url(#SVGID_00000110452262572895730050000007614375329720296587_);}
	.st41{fill:url(#SVGID_00000114043513171074791810000013939828773730672010_);}
	.st42{fill:url(#SVGID_00000086678550528128029020000016061692506170494356_);}
	.st43{fill:url(#SVGID_00000025424845118140760450000012375650566571797437_);}
	.st44{fill:url(#SVGID_00000113352380681456001680000013510774804530627718_);}
	.st45{fill:url(#SVGID_00000054252469788275672180000004238458183386657457_);}
	.st46{fill:url(#SVGID_00000151507750011388267470000016912718946006912905_);}
	.st47{fill:url(#SVGID_00000014621252254866170230000002277749279398218415_);}
	.st48{fill:url(#SVGID_00000182523928361774285760000018027502173474292915_);}
	.st49{fill:url(#SVGID_00000096769712840224288850000011007754902469143694_);}
	.st50{fill:url(#SVGID_00000067914678979139494850000013422638590324566973_);}
	.st51{fill:url(#SVGID_00000077295785627483536680000010490835995522154390_);}
	.st52{fill:url(#SVGID_00000026872312532974012220000004561753655042024320_);}
	.st53{fill:#FFFFFF;}
	.st54{fill:#ECB154;}
	.st55{fill:#ECB340;}
	.st56{fill:#EAC843;}
	.st57{fill:#ECB340;stroke:#ECB340;stroke-width:2;stroke-miterlimit:10;}
	.st58{fill:#EAC843;stroke:#EAC843;stroke-width:4;stroke-miterlimit:10;}
</style>
<path class="st56" d="M92.86,97.5c-0.23,0-0.47-0.07-0.68-0.21c-0.56-0.37-0.8-1.13-0.57-1.81l4.44-13.12l-9.94-0.42
	c-0.46-0.02-0.88-0.3-1.11-0.74c-0.23-0.44-0.24-0.98-0.03-1.43l10.81-23.33c0.24-0.51,0.7-0.86,1.23-0.81l16.88,0.4
	c0.52,0.02,0.99,0.37,1.2,0.91c0.21,0.54,0.11,1.16-0.24,1.59l-12.47,15.21l10.43-0.37c0.56-0.01,1.02,0.32,1.25,0.85
	c0.23,0.53,0.15,1.17-0.19,1.61L93.87,96.98C93.61,97.32,93.24,97.5,92.86,97.5z M88.31,79.06L98,79.47
	c0.43,0.02,0.83,0.27,1.07,0.66c0.24,0.4,0.29,0.9,0.14,1.35l-2.44,7.2l13.06-12.22l-10.55,0.37c-0.55,0.03-1.04-0.32-1.26-0.87
	c-0.23-0.54-0.14-1.18,0.23-1.63l12.64-15.41l-13.11-0.29L88.31,79.06z"/>
<g>
	<path class="st58" d="M135.62,175H64.38c-7.06,0-12.81-6.06-12.81-13.5V30.5c0-7.45,5.75-13.5,12.81-13.5h71.23
		c7.06,0,12.81,6.06,12.81,13.5V161.5C148.43,168.94,142.68,175,135.62,175z M64.38,22.27c-4.16,0-7.54,3.7-7.54,8.24V161.5
		c0,4.54,3.38,8.24,7.54,8.24h71.23c4.16,0,7.54-3.69,7.54-8.24V30.5c0-4.54-3.38-8.24-7.54-8.24H64.38z"/>
	<path class="st56" d="M114.58,32.54H83.14c-2.56,0-4.64-2.08-4.64-4.64v-6.86c0-0.97,0.78-1.75,1.75-1.75h37.21
		c0.97,0,1.75,0.78,1.75,1.75v6.86C119.22,30.45,117.14,32.54,114.58,32.54z M82,22.78v5.11c0,0.63,0.51,1.14,1.14,1.14h31.43
		c0.63,0,1.14-0.51,1.14-1.14v-5.11H82z"/>
	<path class="st56" d="M132.34,162.77H67.66c-1.45,0-2.63-1.18-2.63-2.63c0-1.45,1.18-2.63,2.63-2.63h64.68
		c1.45,0,2.63,1.18,2.63,2.63C134.97,161.59,133.79,162.77,132.34,162.77z"/>
</g>
<path class="st56" d="M71.21,136.68v-23.36c0-2.94,1.88-5.32,4.19-5.32h49.19c2.31,0,4.19,2.38,4.19,5.32v23.36
	c0,2.94-1.88,5.32-4.19,5.32H75.4C73.09,142,71.21,139.62,71.21,136.68z"/>
<rect x="81.48" y="134.27" class="st53" width="37.04" height="2.73"/>
<rect x="81.48" y="124.27" class="st53" width="37.04" height="2.73"/>
<rect x="81.48" y="113.27" class="st53" width="37.04" height="2.73"/>
</svg>
