<?xml version="1.0" encoding="utf-8"?>
<!-- Generator: Adobe Illustrator 26.2.1, SVG Export Plug-In . SVG Version: 6.00 Build 0)  -->
<svg version="1.1" id="Capa_1" xmlns="http://www.w3.org/2000/svg" xmlns:xlink="http://www.w3.org/1999/xlink" x="0px" y="0px"
	 viewBox="0 0 200 200" style="enable-background:new 0 0 200 200;" xml:space="preserve">
<style type="text/css">
	.st0{clip-path:url(#SVGID_00000149351793886613353440000004957020995453723018_);}
	.st1{fill:url(#SVGID_00000023960640640006466770000011717635108033976467_);}
	.st2{fill:url(#SVGID_00000046324081587084748790000000069633537021815222_);}
	.st3{fill:url(#SVGID_00000056403648799590178080000008548221386460236983_);}
	.st4{fill:url(#SVGID_00000013912051247573692610000014692922313736376228_);}
	.st5{fill:url(#SVGID_00000091704628393118373460000006063509816404976516_);}
	.st6{fill:url(#SVGID_00000118386049144794882400000009114210620334621340_);}
	.st7{fill:url(#SVGID_00000147193285535265608310000007484808121384422550_);}
	.st8{fill:url(#SVGID_00000016068024960503540300000015300615033243165061_);}
	.st9{fill:url(#SVGID_00000010288315657221094140000017927853998484086943_);}
	.st10{fill:url(#SVGID_00000162343522000419103670000015057003584482434977_);}
	.st11{fill:url(#SVGID_00000040575806410180892230000002750711925211135914_);}
	.st12{fill:url(#SVGID_00000133502725610192744740000015698420683701736622_);}
	.st13{fill:url(#SVGID_00000060030502265932591760000002363354312308240536_);}
	.st14{fill:url(#SVGID_00000101816205198774293680000017776236270671988414_);}
	.st15{fill:url(#SVGID_00000181803779789079237230000015844801099952771488_);}
	.st16{fill:url(#SVGID_00000106118242050801704650000013374912212888914097_);}
	.st17{fill:url(#SVGID_00000091702405438302316710000003738016788937855660_);}
	.st18{fill:url(#SVGID_00000072244013054545138270000009440761848542152120_);}
	.st19{fill:url(#SVGID_00000117650070105726874870000011303139019501687715_);}
	.st20{fill:url(#SVGID_00000183231254205268095730000013950420111124922502_);}
	.st21{fill:url(#SVGID_00000110462129873896298100000011280179418715408540_);}
	.st22{fill:url(#SVGID_00000011026751366014057310000007872832959302597793_);}
	.st23{fill:url(#SVGID_00000086672827306360735950000004523490143283517853_);}
	.st24{fill:url(#SVGID_00000117674733423716332960000009968232133174369160_);}
	.st25{fill:url(#SVGID_00000013883973042695916770000009678485248872602271_);}
	.st26{fill:#606060;}
	.st27{clip-path:url(#SVGID_00000110439402385865886730000003256282481496965517_);}
	.st28{fill:url(#SVGID_00000140705518437006510030000014422410333139702711_);}
	.st29{fill:url(#SVGID_00000021079514055411798080000010807874365245524406_);}
	.st30{fill:url(#SVGID_00000014629967236359637990000010543208091923385985_);}
	.st31{fill:url(#SVGID_00000019660078462453657410000006837983496688902533_);}
	.st32{fill:url(#SVGID_00000013172843049301809070000005964342989798408335_);}
	.st33{fill:url(#SVGID_00000106138215412706968180000018348793777136107454_);}
	.st34{fill:url(#SVGID_00000171719823273941696160000013679661201011266973_);}
	.st35{fill:url(#SVGID_00000034090062449983080690000001848221749236146864_);}
	.st36{fill:url(#SVGID_00000058548908330566066010000004535267761804358534_);}
	.st37{fill:url(#SVGID_00000088114006308100127820000006718631760093941152_);}
	.st38{fill:url(#SVGID_00000061470611713588345990000012184449523598693792_);}
	.st39{fill:url(#SVGID_00000062194187562944257160000004054930036182047400_);}
	.st40{fill:url(#SVGID_00000136403865888912533700000002105587294799856317_);}
	.st41{fill:url(#SVGID_00000183928356242351399830000000039785951786525350_);}
	.st42{fill:url(#SVGID_00000002367387677912000280000006015560189467045277_);}
	.st43{fill:url(#SVGID_00000114076019096662235390000003442195928068866730_);}
	.st44{fill:url(#SVGID_00000078749743436536784060000006810984009462697662_);}
	.st45{fill:url(#SVGID_00000021821154692876740950000001499348554813780902_);}
	.st46{fill:url(#SVGID_00000024699481015163408260000015473635188010704269_);}
	.st47{fill:url(#SVGID_00000114787031174884330220000003565668418136101789_);}
	.st48{fill:url(#SVGID_00000121272401949604777290000012636989280489000111_);}
	.st49{fill:url(#SVGID_00000039110631289762672310000015335334533424647841_);}
	.st50{fill:url(#SVGID_00000172402318492952849600000018286630675719914651_);}
	.st51{fill:url(#SVGID_00000075156383239903592890000000557172539083611022_);}
	.st52{fill:url(#SVGID_00000047045506836101268740000013317444049551403179_);}
	.st53{fill:#FFFFFF;}
	.st54{fill:#ECB154;}
	.st55{fill:#ECB340;}
	.st56{fill:#EAC843;}
	.st57{fill:#ECB340;stroke:#ECB340;stroke-width:2;stroke-miterlimit:10;}
</style>
<g>
	<path class="st57" d="M109.67,116.66H92.59c-2.62,0-4.74-2.13-4.74-4.74v-4.16c0-1.17,0.95-2.12,2.12-2.12
		c1.17,0,2.12,0.95,2.12,2.12v4.16c0,0.28,0.23,0.51,0.51,0.51h17.07c0.28,0,0.51-0.23,0.51-0.51V99.22c0-0.28-0.23-0.51-0.51-0.51
		H92.59c-2.62,0-4.74-2.13-4.74-4.74V81.27c0-2.62,2.13-4.74,4.74-4.74h17.07c2.62,0,4.74,2.13,4.74,4.74v4.16
		c0,1.17-0.95,2.12-2.12,2.12c-1.17,0-2.12-0.95-2.12-2.12v-4.16c0-0.28-0.23-0.51-0.51-0.51H92.59c-0.28,0-0.51,0.23-0.51,0.51
		v12.69c0,0.28,0.23,0.51,0.51,0.51h17.07c2.62,0,4.74,2.13,4.74,4.74v12.69C114.41,114.53,112.28,116.66,109.67,116.66z"/>
	<path class="st57" d="M101.13,120.32c-1.17,0-2.12-0.95-2.12-2.12V74.98c0-1.17,0.95-2.12,2.12-2.12c1.17,0,2.12,0.95,2.12,2.12
		v43.23C103.25,119.37,102.3,120.32,101.13,120.32z"/>
	<path class="st57" d="M149.88,162.76h-97.5c-1.17,0-2.12-0.95-2.12-2.12V68.09H34.71c-1.17,0-2.12-0.95-2.12-2.12
		c0-16.95,13.79-30.73,30.73-30.73h67.12c11.88,0,21.55,9.67,21.55,21.55v103.86C152,161.82,151.05,162.76,149.88,162.76z
		 M54.5,158.53h93.27V56.78c0-9.55-7.77-17.31-17.31-17.31c-9.55,0-17.31,7.77-17.31,17.31v9.19c0,1.17-0.95,2.12-2.12,2.12H54.5
		V158.53z M36.91,63.85h71.99v-7.07c0-7.08,3.44-13.38,8.73-17.31H63.33C49.43,39.47,38,50.23,36.91,63.85z"/>
	<path class="st57" d="M136.9,131.85H65.36c-1.17,0-2.12-0.95-2.12-2.12c0-1.17,0.95-2.12,2.12-2.12h71.54
		c1.17,0,2.12,0.95,2.12,2.12C139.02,130.9,138.07,131.85,136.9,131.85z"/>
	<path class="st57" d="M136.9,147.75H65.36c-1.17,0-2.12-0.95-2.12-2.12s0.95-2.12,2.12-2.12h71.54c1.17,0,2.12,0.95,2.12,2.12
		S138.07,147.75,136.9,147.75z"/>
	<path class="st57" d="M111.09,57.36H59.33c-1.17,0-2.12-0.95-2.12-2.12s0.95-2.12,2.12-2.12h51.76c1.17,0,2.12,0.95,2.12,2.12
		S112.26,57.36,111.09,57.36z"/>
</g>
</svg>
